<svg xmlns="http://www.w3.org/2000/svg" viewBox="0 0 600 600"><defs><style>.cls-1{fill:#cc2027;stroke:#262626;stroke-width:4px;}.cls-1,.cls-2,.cls-3,.cls-4{stroke-miterlimit:10;}.cls-2,.cls-4{fill:none;}.cls-2,.cls-3,.cls-4{stroke:#000;stroke-width:2.5px;}.cls-3{fill:#ede3d9;}.cls-4{stroke-linecap:round;}</style></defs><g id="distributor"><path class="cls-1" d="M300,440.00049c-4-116-68-152-68-212,0-32,20-68,68-68.001,52-.001,68,32.001,68,64.001C368,284.00049,308,324.00049,300,440.00049Z"/><path class="cls-2" d="M287.35308,242.65568h-8.98715a2.97342,2.97342,0,0,1-3.12837-2.78918v-8.82419a2.97342,2.97342,0,0,1,3.12837-2.78918h8.98715"/><path class="cls-3" d="M289.60582,251.15643h27.30153a2.25275,2.25275,0,0,0,2.25274-2.25275v-24.2531l3.2476-3.2476a1.203,1.203,0,0,0-.85061-2.05356H285.04066a1.238,1.238,0,0,0-.87538,2.11336l3.1878,3.1878v24.2531A2.25275,2.25275,0,0,0,289.60582,251.15643Z"/><path class="cls-4" d="M296.10955,214.16762s4.17-3.01168,0-6.02336,0-6.02337,0-6.02337"/><path class="cls-4" d="M303.44951,214.16762s4.17-3.01168,0-6.02336,0-6.02337,0-6.02337"/><path class="cls-4" d="M310.78946,214.16762s4.17-3.01168,0-6.02336,0-6.02337,0-6.02337"/></g></svg>