<svg xmlns="http://www.w3.org/2000/svg" viewBox="0 0 600 600"><defs><style>.cls-1{fill:#cc2027;stroke:#262626;stroke-width:4px;}.cls-1,.cls-2{stroke-miterlimit:10;}.cls-2{fill:#ede3d9;stroke:#000;stroke-width:1.87703px;}</style></defs><g id="production"><path class="cls-1" d="M300,440.00049c-4-116-68-152-68-212,0-32,20-68,68-68.001,52-.001,68,32.001,68,64.001C368,284.00049,308,324.00049,300,440.00049Z"/><path class="cls-2" d="M260.69664,251.13993V211.96131a6.19128,6.19128,0,0,1,6.19128-6.19128h3.71476a1.21274,1.21274,0,0,0,1.23826-1.23826v-7.42953a1.21274,1.21274,0,0,0-1.23826-1.23826v-1.23825H281.747V195.864a1.21274,1.21274,0,0,0-1.23826,1.23826v7.42953c0,.43779,0,1.23826,1.23826,1.23826h3.71476c4.953,0,6.19128,2.47651,6.19128,6.19128v39.02652a3.07417,3.07417,0,0,1-3.07417,3.07417H263.61871A2.92208,2.92208,0,0,1,260.69664,251.13993Z"/><polyline class="cls-2" points="279.782 193.699 279.782 191.28 272.568 191.28 272.568 193.699"/><path class="cls-2" d="M309.59044,252.09621V212.91759a6.19128,6.19128,0,0,1,6.19128-6.19127h3.71477a1.21273,1.21273,0,0,0,1.23825-1.23826v-7.42953a1.21273,1.21273,0,0,0-1.23825-1.23826V195.582h11.1443v1.23826a1.21274,1.21274,0,0,0-1.23826,1.23826v7.42953c0,.43779,0,1.23826,1.23826,1.23826h3.71477c4.953,0,6.19128,2.47651,6.19128,6.19127v39.02652a3.07418,3.07418,0,0,1-3.07418,3.07418H312.51252A2.92208,2.92208,0,0,1,309.59044,252.09621Z"/><polyline class="cls-2" points="328.676 194.655 328.676 192.236 321.462 192.236 321.462 194.655"/><path class="cls-2" d="M284.3238,262.50325V223.32463a6.19128,6.19128,0,0,1,6.19128-6.19127h3.71477a1.21273,1.21273,0,0,0,1.23825-1.23826v-7.42953a1.21273,1.21273,0,0,0-1.23825-1.23826v-1.23826h11.1443v1.23826a1.21274,1.21274,0,0,0-1.23826,1.23826v7.42953c0,.43779,0,1.23826,1.23826,1.23826h3.71477c4.953,0,6.19128,2.47651,6.19128,6.19127v39.02652a3.07418,3.07418,0,0,1-3.07418,3.07418H287.24588A2.92208,2.92208,0,0,1,284.3238,262.50325Z"/><polyline class="cls-2" points="303.409 205.062 303.409 202.643 296.195 202.643 296.195 205.062"/></g></svg>