<svg id="seller" xmlns="http://www.w3.org/2000/svg" viewBox="0 0 600 600"><defs><style>.cls-1{fill:#cc2027;stroke:#262626;stroke-width:4px;}.cls-1,.cls-2{stroke-miterlimit:10;}.cls-2{fill:#ede3d9;stroke:#000;stroke-width:2.5px;}</style></defs><path class="cls-1" d="M300,440.00049c-4-116-68-152-68-212,0-32,20-68,68-68.001,52-.001,68,32.001,68,64.001C368,284.00049,308,324.00049,300,440.00049Z"/><path class="cls-2" d="M279.38468,269.57962V217.39784a8.24613,8.24613,0,0,1,8.24613-8.24613h4.94767a1.61524,1.61524,0,0,0,1.64923-1.64923v-9.89535a1.61524,1.61524,0,0,0-1.64923-1.64923v-1.64922h14.843v1.64922a1.61524,1.61524,0,0,0-1.64923,1.64923v9.89535c0,.58309,0,1.64923,1.64923,1.64923h4.94767c6.59691,0,8.24613,3.29845,8.24613,8.24613V269.377a4.09448,4.09448,0,0,1-4.09447,4.09448H283.27657A3.89189,3.89189,0,0,1,279.38468,269.57962Z"/><polyline class="cls-2" points="304.804 193.074 304.804 189.852 295.196 189.852 295.196 193.074"/></svg>