<svg xmlns="http://www.w3.org/2000/svg" viewBox="0 0 600 600"><defs><style>.cls-1{fill:#cc2027;stroke:#262626;stroke-width:4px;}.cls-1,.cls-2,.cls-3,.cls-4{stroke-miterlimit:10;}.cls-2{fill:#ede3d9;}.cls-2,.cls-3,.cls-4{stroke:#000;stroke-width:2.5px;}.cls-3,.cls-4{fill:none;}.cls-4{stroke-linecap:round;}</style></defs><g id="seller-distributor"><path class="cls-1" d="M300,440.00049c-4-116-68-152-68-212,0-32,20-68,68-68.001,52-.001,68,32.001,68,64.001C368,284.00049,308,324.00049,300,440.00049Z"/><path class="cls-2" d="M293.82882,260.19093V208.00915A8.24612,8.24612,0,0,1,302.075,199.763h4.94767a1.61524,1.61524,0,0,0,1.64923-1.64923v-9.89535a1.61524,1.61524,0,0,0-1.64923-1.64923V184.92h14.843v1.64923a1.61523,1.61523,0,0,0-1.64922,1.64923v9.89535c0,.58309,0,1.64923,1.64922,1.64923h4.94768c6.59691,0,8.24613,3.29845,8.24613,8.24613v51.97919a4.09448,4.09448,0,0,1-4.09448,4.09448H297.72071A3.89189,3.89189,0,0,1,293.82882,260.19093Z"/><polyline class="cls-2" points="319.248 183.686 319.248 180.463 309.64 180.463 309.64 183.686"/><path class="cls-3" d="M272.01577,261.48016h-8.98715a2.97342,2.97342,0,0,1-3.12837-2.78918v-8.82419a2.97342,2.97342,0,0,1,3.12837-2.78918h8.98715"/><path class="cls-2" d="M274.26851,269.98091H301.57a2.25275,2.25275,0,0,0,2.25274-2.25274v-24.2531l3.2476-3.2476a1.203,1.203,0,0,0-.85061-2.05357H269.70335a1.238,1.238,0,0,0-.87538,2.11337l3.1878,3.1878v24.2531A2.25275,2.25275,0,0,0,274.26851,269.98091Z"/><path class="cls-4" d="M280.77224,232.9921s4.17-3.01168,0-6.02336,0-6.02336,0-6.02336"/><path class="cls-4" d="M288.11219,232.9921s4.17-3.01168,0-6.02336,0-6.02336,0-6.02336"/></g></svg>