<svg xmlns="http://www.w3.org/2000/svg" viewBox="0 0 205.02306 148.8189"><defs><style>.cls-1{fill:#cc2027;}.cls-2{fill:#fcb515;}.cls-2,.cls-3,.cls-4,.cls-5{stroke:#262626;stroke-miterlimit:10;}.cls-3,.cls-4,.cls-5{fill:#ede3d9;}.cls-4{stroke-width:0.8px;}.cls-5{stroke-width:0.65px;}</style></defs><g id="Website_title" data-name="Website title"><rect class="cls-1" width="205.02306" height="148.8189"/><g id="TypoPath"><g id="TypoPathLat"><g id="TypoPath-2" data-name="TypoPath"><path class="cls-2" d="M34.72471,23.27854V15.5236H57.98954v7.75494H50.2346V69.80819H42.47966V23.27854Z"/><path class="cls-2" d="M100.17642,18.93577A11.63268,11.63268,0,0,1,120.0296,27.156a11.64994,11.64994,0,0,1-11.63294,11.63241,11.95564,11.95564,0,0,1-3.87747-.62039V54.2983A15.48912,15.48912,0,0,1,120.0296,69.80819h-7.75547a7.74455,7.74455,0,0,0-7.75494-7.75494v7.75494H96.76425V27.156A11.20514,11.20514,0,0,1,100.17642,18.93577Zm10.95386,5.48662a3.866,3.866,0,1,0-5.46724,5.46724,3.866,3.866,0,1,0,5.46724-5.46724Z"/><path class="cls-2" d="M143.75972,18.93577a11.20313,11.20313,0,0,1,3.41217,8.22024,11.64992,11.64992,0,0,1-11.63241,11.63241A15.48911,15.48911,0,0,1,151.04936,54.2983a15.48911,15.48911,0,0,1-15.50988,15.50989h-7.75494V15.5236h7.75494A11.20512,11.20512,0,0,1,143.75972,18.93577Zm-5.48715,10.95386a3.87751,3.87751,0,0,0-2.73309-6.61109v7.75494A3.72961,3.72961,0,0,0,138.27257,29.88963Zm2.75406,29.8953a7.75495,7.75495,0,0,0-5.48715-13.24157V62.05325A7.47748,7.47748,0,0,0,141.02663,59.78493Z"/><path class="cls-2" d="M162.21648,34.44565a11.63241,11.63241,0,0,1,19.85265,8.22024,11.63241,11.63241,0,1,1-19.85265-8.22024Zm10.95333,5.48663a3.83712,3.83712,0,1,0,1.14438,2.73361A3.72958,3.72958,0,0,0,173.16981,39.93228Z"/><rect class="cls-3" x="158.80431" y="62.05325" width="23.26483" height="7.75494"/><path class="cls-2" d="M38.13689,86.68833a11.60772,11.60772,0,0,1,16.44047,0A11.63242,11.63242,0,0,1,46.35713,106.541a11.95529,11.95529,0,0,1-3.87747-.6204v16.13028a15.48911,15.48911,0,0,1,15.50988,15.50989H50.2346a7.74455,7.74455,0,0,0-7.75494-7.755v7.755h-7.755V94.90857A11.20513,11.20513,0,0,1,38.13689,86.68833ZM49.09074,92.175a3.83835,3.83835,0,1,0,1.14386,2.73362A3.73074,3.73074,0,0,0,49.09074,92.175Z"/><path class="cls-2" d="M100.17642,86.68833a11.63268,11.63268,0,0,1,19.85318,8.22024h-7.75547a3.86595,3.86595,0,1,0-3.87747,3.87747,11.62518,11.62518,0,1,1-11.63241,11.63241h7.75494a3.866,3.866,0,1,0,3.87747-3.87747,11.62518,11.62518,0,0,1-8.22024-19.85265Z"/><rect class="cls-3" x="96.76425" y="129.8058" width="23.26535" height="7.75494"/><path class="cls-2" d="M131.27426,86.68833a11.63241,11.63241,0,0,1,19.85265,8.22024H143.372A3.86558,3.86558,0,1,0,139.4945,98.786a11.62518,11.62518,0,1,1-11.63241,11.63241H135.617a3.86558,3.86558,0,1,0,3.87747-3.87747,11.62518,11.62518,0,0,1-8.22024-19.85265Z"/><rect class="cls-3" x="127.86209" y="129.8058" width="23.26483" height="7.75494"/><path class="cls-3" d="M65.74448,15.5236h7.75494V125.92833a3.8775,3.8775,0,0,0,7.75494,0V15.5236h7.75495V125.92833a11.62517,11.62517,0,0,1-19.85265,8.22024,11.20515,11.20515,0,0,1-3.41218-8.22024Z"/></g><g id="TypoPath-3" data-name="TypoPath"><path class="cls-3" d="M32.72471,21.27854V13.5236H55.98954v7.75494H48.2346V67.80819H40.47966V21.27854Z"/><path class="cls-3" d="M98.17642,16.93577a11.60838,11.60838,0,0,1,16.441,0A11.20314,11.20314,0,0,1,118.0296,25.156a11.20314,11.20314,0,0,1-3.41218,8.22024,11.208,11.208,0,0,1-8.22076,3.41217,11.95564,11.95564,0,0,1-3.87747-.62039V52.2983A15.48912,15.48912,0,0,1,118.0296,67.80819h-7.75547a7.74455,7.74455,0,0,0-7.75494-7.75494v7.75494H94.76425V25.156A11.20514,11.20514,0,0,1,98.17642,16.93577Zm10.95386,5.48662a3.866,3.866,0,1,0-5.46724,5.46724,3.866,3.866,0,1,0,5.46724-5.46724Z"/><path class="cls-3" d="M141.75972,16.93577a11.20313,11.20313,0,0,1,3.41217,8.22024,11.20313,11.20313,0,0,1-3.41217,8.22024,11.20512,11.20512,0,0,1-8.22024,3.41217A15.48911,15.48911,0,0,1,149.04936,52.2983a15.48911,15.48911,0,0,1-15.50988,15.50989h-7.75494V13.5236h7.75494A11.20512,11.20512,0,0,1,141.75972,16.93577Zm-5.48715,10.95386a3.87751,3.87751,0,0,0-2.73309-6.61109v7.75494A3.72961,3.72961,0,0,0,136.27257,27.88963Zm2.75406,29.8953a7.75495,7.75495,0,0,0-5.48715-13.24157V60.05325A7.47748,7.47748,0,0,0,139.02663,57.78493Z"/><path class="cls-3" d="M160.21648,32.44565a11.63241,11.63241,0,0,1,19.85265,8.22024,11.63241,11.63241,0,1,1-19.85265-8.22024Zm10.95333,5.48663a3.83712,3.83712,0,1,0,1.14438,2.73361A3.72958,3.72958,0,0,0,171.16981,37.93228Z"/><rect class="cls-2" x="156.80431" y="60.05325" width="23.26483" height="7.75494"/><path class="cls-3" d="M36.13689,84.68833a11.60772,11.60772,0,0,1,16.44047,0A11.63242,11.63242,0,0,1,44.35713,104.541a11.95529,11.95529,0,0,1-3.87747-.6204v16.13028a15.48911,15.48911,0,0,1,15.50988,15.50989H48.2346a7.74455,7.74455,0,0,0-7.75494-7.755v7.755h-7.755V92.90857A11.20513,11.20513,0,0,1,36.13689,84.68833ZM47.09074,90.175a3.83835,3.83835,0,1,0,1.14386,2.73362A3.73074,3.73074,0,0,0,47.09074,90.175Z"/><path class="cls-3" d="M98.17642,84.68833a11.63268,11.63268,0,0,1,19.85318,8.22024h-7.75547a3.86595,3.86595,0,1,0-3.87747,3.87747,11.62518,11.62518,0,1,1-11.63241,11.63241h7.75494a3.866,3.866,0,1,0,3.87747-3.87747,11.62518,11.62518,0,0,1-8.22024-19.85265Z"/><rect class="cls-2" x="94.76425" y="127.8058" width="23.26535" height="7.75494"/><path class="cls-3" d="M129.27426,84.68833a11.63241,11.63241,0,0,1,19.85265,8.22024H141.372A3.86558,3.86558,0,1,0,137.4945,96.786a11.62518,11.62518,0,1,1-11.63241,11.63241H133.617a3.86558,3.86558,0,1,0,3.87747-3.87747,11.62518,11.62518,0,0,1-8.22024-19.85265Z"/><rect class="cls-2" x="125.86209" y="127.8058" width="23.26483" height="7.75494"/><path class="cls-2" d="M63.74448,13.5236h7.75494V123.92833a3.8775,3.8775,0,0,0,7.75494,0V13.5236h7.75495V123.92833a11.62517,11.62517,0,0,1-19.85265,8.22024,11.20515,11.20515,0,0,1-3.41218-8.22024Z"/></g></g></g><g id="Alk."><path class="cls-4" d="M172.90542,133.62166a3.30507,3.30507,0,1,1-1.213-4.52133l6.065,3.50679-1.10276,1.90778-3.35226-1.92984A3.21123,3.21123,0,0,1,172.90542,133.62166Zm-8.381-4.96244v6.61659h-2.20553v-6.61659Zm5.80054,4.37231a1.08254,1.08254,0,0,0,.77193-1.35074,1.02457,1.02457,0,0,0-.47419-.6396l-.03308-.02205a1.04954,1.04954,0,0,0-.8381-.11028,1.094,1.094,0,0,0-.67269.50727,1.07591,1.07591,0,0,0-.09925.8381,1.08247,1.08247,0,0,0,1.34538.7773Z"/><path class="cls-4" d="M163.30034,125.49428a3.30126,3.30126,0,1,1,2.33786.97044A3.18675,3.18675,0,0,1,163.30034,125.49428Zm1.56041-3.11545a1.092,1.092,0,1,0,.77745-.32517A1.06182,1.06182,0,0,0,164.86075,122.37883Zm-2.53085-4.73623,15.43856,4.41106v-2.20553l-15.43856-4.41106Zm9.79255-.97043a3.30111,3.30111,0,1,1,2.33786.97043A3.18681,3.18681,0,0,1,172.12245,116.67217Zm1.56042-3.11546a1.092,1.092,0,1,0,.77744-.32517A1.06183,1.06183,0,0,0,173.68287,113.55671Z"/><path class="cls-4" d="M164.53543,97.79284v6.61658H162.3299V97.79284Zm2.20553,0v2.20553l3.3083,1.10276-3.3083,1.10277v2.20552l6.61659-2.20552V99.99837Zm11.0275,0v6.61658h-2.20553V97.79284Z"/><path class="cls-4" d="M164.53543,88.97072v6.61659H162.3299V88.97072Zm3.176,5.64615a3.30126,3.30126,0,1,1,2.33786.97044A3.18675,3.18675,0,0,1,167.7114,94.61687Zm10.05706-5.64615v6.61659h-2.20553V88.97072Zm-8.49665,2.5307a1.092,1.092,0,1,0,.77745-.32517A1.06182,1.06182,0,0,0,169.27181,91.50142Z"/><path class="cls-4" d="M177.76846,86.76519H162.3299V84.55966h13.233V82.35413h2.20553Z"/></g><g id="IGOR_1" data-name="IGOR 1"><path class="cls-5" d="M162.58886,14.58286h-1.44928v1.44928h1.45652v1.44928h-1.45652V18.9307h1.44928V20.38h-1.44928v1.44928h1.44928v1.44928H158.241V21.82926h1.44928V20.38H158.241V18.9307h1.44928V17.48142h-1.442V16.03214h1.442V14.58286H158.241V13.13358h4.34784Z"/><path class="cls-5" d="M165.70118,21.61549a.72464.72464,0,0,0,1.23551-.51087H168.386a2.17392,2.17392,0,0,1-4.34783,0V18.20606h1.44927a.72249.72249,0,1,0,.72464-.72464,2.17257,2.17257,0,0,1-1.53623-3.71016A2.17392,2.17392,0,0,1,168.386,15.3075a2.07184,2.07184,0,0,1-.558,1.44928,2.07184,2.07184,0,0,1,.558,1.44928A2.17718,2.17718,0,0,1,166.21205,20.38a2.23363,2.23363,0,0,1-.72464-.11594v.84058A.6972.6972,0,0,0,165.70118,21.61549Zm1.02175-6.81886a.71735.71735,0,1,0,.21376.51087A.69724.69724,0,0,0,166.72293,14.79663Z"/><path class="cls-5" d="M174.18309,14.58286h-4.34784V13.13358h4.34784Zm-3.71015,2.087a2.1693,2.1693,0,1,1-.63769,1.53624A2.09394,2.09394,0,0,1,170.47294,16.66982Zm3.71015,6.60872h-4.34784V21.82926h4.34784Zm-1.663-5.58335a.71733.71733,0,1,0,.21377.51087A.6972.6972,0,0,0,172.52,17.69519Z"/><path class="cls-5" d="M176.27006,13.77126a2.17257,2.17257,0,1,1,3.07247,3.07248,2.09394,2.09394,0,0,1-1.53624.63768,2.23359,2.23359,0,0,1-.72464-.11594V20.38a2.89468,2.89468,0,0,1,2.89856,2.89856h-1.44928a1.44732,1.44732,0,0,0-1.44928-1.44928v1.44928h-1.44928v-7.971A2.09393,2.09393,0,0,1,176.27006,13.77126Zm2.0471,1.02537a.71733.71733,0,1,0,.21377.51087A.6972.6972,0,0,0,178.31716,14.79663Z"/></g></g></svg>