<svg id="Layer_1" data-name="Layer 1" xmlns="http://www.w3.org/2000/svg" viewBox="0 0 205.02306 148.8189"><defs><style>.cls-1{fill:#cc2027;}.cls-2,.cls-5{fill:#ede3d9;}.cls-2,.cls-3,.cls-4,.cls-5{stroke:#262626;stroke-miterlimit:10;}.cls-3{fill:#fcb515;}.cls-4{fill:#f0efef;stroke-width:0.8px;}.cls-5{stroke-width:0.65px;}</style></defs><rect class="cls-1" y="-0.46808" width="205.02306" height="149.28698"/><g id="TypoPath"><g id="TypoPathKyr"><path class="cls-2" d="M43.47968,23.70037h-7.755v-7.755H58.98962v7.755h-7.755v7.755h7.755v7.755h-7.755V70.23019h-7.755V39.21031h-7.755v-7.755h7.755Z"/><path class="cls-2" d="M113.27441,46.96528v7.755h-7.755V70.23019h-7.755V27.57786a11.63246,11.63246,0,0,1,23.26491,0,11.65,11.65,0,0,1-11.63246,11.63245,11.96506,11.96506,0,0,1-3.87748-.6204v8.37537ZM112.13,24.84371a3.866,3.866,0,1,0-5.46726,5.46725A3.866,3.866,0,1,0,112.13,24.84371Z"/><path class="cls-2" d="M140.4168,46.96528a11.65,11.65,0,0,1,11.63245,11.63245,11.63245,11.63245,0,0,1-23.2649,0V15.9454h23.2649v7.755H136.53932V47.58568A11.94138,11.94138,0,0,1,140.4168,46.96528Zm-2.7331,8.8983a3.83837,3.83837,0,1,0,2.7331-1.14333A3.73042,3.73042,0,0,0,137.6837,55.86358Z"/><path class="cls-2" d="M163.21641,34.86753a11.63246,11.63246,0,0,1,19.85272,8.22026,11.63246,11.63246,0,1,1-19.85272-8.22026Zm10.95337,5.48611a3.83716,3.83716,0,1,0,1.14438,2.73415A3.73115,3.73115,0,0,0,174.16978,40.35364Z"/><rect class="cls-3" x="159.80422" y="62.47522" width="23.26491" height="7.75497"/><path class="cls-2" d="M51.23465,114.71808v7.755h-7.755V137.983h-7.755V95.33066A11.65,11.65,0,0,1,47.35717,83.69821a11.63246,11.63246,0,0,1,0,23.26491,11.96512,11.96512,0,0,1-3.87749-.6204v8.37536ZM50.09027,92.59651a3.83715,3.83715,0,1,0,1.14438,2.73415A3.73115,3.73115,0,0,0,50.09027,92.59651Z"/><path class="cls-2" d="M101.17665,87.11039a11.63246,11.63246,0,0,1,19.85273,8.22027h-7.755a3.87752,3.87752,0,0,0-7.755,0v31.01988a3.87752,3.87752,0,0,0,7.755,0h7.755a11.63246,11.63246,0,0,1-23.26491,0V95.33066A11.20148,11.20148,0,0,1,101.17665,87.11039Z"/><path class="cls-2" d="M132.19653,87.11039a11.63245,11.63245,0,0,1,19.85272,8.22027h-7.755a3.87751,3.87751,0,0,0-7.755,0v31.01988a3.87752,3.87752,0,0,0,7.755,0h7.755a11.63245,11.63245,0,0,1-23.2649,0V95.33066A11.20148,11.20148,0,0,1,132.19653,87.11039Z"/><path class="cls-3" d="M86.59731,134.57081a11.63246,11.63246,0,0,1-19.85272-8.22027h7.755a3.87752,3.87752,0,0,0,7.755,0v-8.37537a11.97428,11.97428,0,0,1-3.87748.6204,11.65,11.65,0,0,1-11.63246-11.63245V15.9454h7.755v91.01772a3.87752,3.87752,0,0,0,7.755,0V15.9454h7.755V126.35054A11.20886,11.20886,0,0,1,86.59731,134.57081Z"/><path class="cls-3" d="M41.47968,21.70037h-7.755v-7.755H56.98962v7.755h-7.755v7.755h7.755v7.755h-7.755V68.23019h-7.755V37.21031h-7.755v-7.755h7.755Z"/><path class="cls-3" d="M111.27441,44.96528v7.755h-7.755V68.23019h-7.755V25.57786a11.20147,11.20147,0,0,1,3.41218-8.22027,11.60778,11.60778,0,0,1,16.44054,0,11.20148,11.20148,0,0,1,3.41219,8.22027,11.65,11.65,0,0,1-11.63246,11.63245,11.96506,11.96506,0,0,1-3.87748-.6204v8.37537ZM110.13,22.84371a3.866,3.866,0,1,0-5.46726,5.46725A3.866,3.866,0,1,0,110.13,22.84371Z"/><path class="cls-3" d="M138.4168,44.96528a11.65,11.65,0,0,1,11.63245,11.63245,11.63245,11.63245,0,0,1-23.2649,0V13.9454h23.2649v7.755H134.53932V45.58568A11.94138,11.94138,0,0,1,138.4168,44.96528Zm-2.7331,8.8983a3.83837,3.83837,0,1,0,2.7331-1.14333A3.73042,3.73042,0,0,0,135.6837,53.86358Z"/><path class="cls-3" d="M161.21641,32.86753a11.63246,11.63246,0,0,1,19.85272,8.22026,11.63246,11.63246,0,1,1-19.85272-8.22026Zm10.95337,5.48611a3.83716,3.83716,0,1,0,1.14438,2.73415A3.73115,3.73115,0,0,0,172.16978,38.35364Z"/><rect class="cls-2" x="157.80422" y="60.47522" width="23.26491" height="7.75497"/><path class="cls-3" d="M49.23465,112.71808v7.755h-7.755V135.983h-7.755V93.33066A11.65,11.65,0,0,1,45.35717,81.69821a11.63246,11.63246,0,0,1,0,23.26491,11.96512,11.96512,0,0,1-3.87749-.6204v8.37536ZM48.09027,90.59651a3.83715,3.83715,0,1,0,1.14438,2.73415A3.73115,3.73115,0,0,0,48.09027,90.59651Z"/><path class="cls-3" d="M99.17665,85.11039a11.63246,11.63246,0,0,1,19.85273,8.22027h-7.755a3.87752,3.87752,0,0,0-7.755,0v31.01988a3.87752,3.87752,0,0,0,7.755,0h7.755a11.63246,11.63246,0,0,1-23.26491,0V93.33066A11.20148,11.20148,0,0,1,99.17665,85.11039Z"/><path class="cls-3" d="M130.19653,85.11039a11.63245,11.63245,0,0,1,19.85272,8.22027h-7.755a3.87751,3.87751,0,0,0-7.755,0v31.01988a3.87752,3.87752,0,0,0,7.755,0h7.755a11.63245,11.63245,0,0,1-23.2649,0V93.33066A11.20148,11.20148,0,0,1,130.19653,85.11039Z"/><path class="cls-2" d="M84.59731,132.57081a11.63246,11.63246,0,0,1-19.85272-8.22027h7.755a3.87752,3.87752,0,0,0,7.755,0v-8.37537a11.97428,11.97428,0,0,1-3.87748.6204,11.65,11.65,0,0,1-11.63246-11.63245V13.9454h7.755v91.01772a3.87752,3.87752,0,0,0,7.755,0V13.9454h7.755V124.35054A11.20886,11.20886,0,0,1,84.59731,132.57081Z"/></g></g><g id="_1000ml" data-name="1000ml"><path class="cls-4" d="M162.81125,132.55889c.00746-.02953.01849-.04414.03311-.04414h15.37233c.02207,0,.0331.01462.0331.04415v2.12983a.02926.02926,0,0,1-.0331.03311l-13.17629,0v2.174c0,.02207-.01461.0331-.04414.0331h-2.1519q-.0331-.01118-.03311-.0331Z"/><path class="cls-4" d="M168.1855,129.33655a3.30359,3.30359,0,1,1,2.33951.97112A3.18961,3.18961,0,0,1,168.1855,129.33655Zm1.56166-3.11765a1.09275,1.09275,0,1,0,.77785-.3254A1.06215,1.06215,0,0,0,169.74716,126.2189Z"/><path class="cls-4" d="M168.1855,120.50822a3.3036,3.3036,0,1,1,2.33951.97112A3.1896,3.1896,0,0,1,168.1855,120.50822Zm1.56166-3.11765a1.09276,1.09276,0,1,0,.77785-.3254A1.06216,1.06216,0,0,0,169.74716,117.39057Z"/><path class="cls-4" d="M168.1855,111.67989a3.3036,3.3036,0,1,1,2.33951.97112A3.18958,3.18958,0,0,1,168.1855,111.67989Zm1.56167-3.11765a1.09277,1.09277,0,1,0,.77784-.32539A1.06217,1.06217,0,0,0,169.74717,108.56224Z"/><path class="cls-4" d="M169.42148,97.20143l0,2.20709-6.62124,0V97.20143a4.25412,4.25412,0,0,1,1.29114-3.123q.09933-.09932.19864-.1876-.09931-.08814-.19864-.1876a4.25414,4.25414,0,0,1-1.29114-3.123V88.3731h6.62125v2.20709l-4.41417,0a2.20463,2.20463,0,0,0,2.20708,2.20709v2.20708a2.20463,2.20463,0,0,0-2.20708,2.20708Zm4.41416-8.82832V99.40852h-2.20708V88.3731Zm4.41417,0,0,11.03541h-2.20708l0-11.03541Z"/><path class="cls-4" d="M178.24981,86.166H162.80023V83.95894h13.2425V81.75186h2.20708Z"/></g><g id="IGOR_1" data-name="IGOR 1"><path class="cls-5" d="M164.6134,15.29614h-1.44928v1.44928h1.45653V18.1947h-1.45653V19.644h1.44928v1.44928h-1.44928v1.44928h1.44928v1.44928h-4.34784V22.54254h1.44928V21.09326h-1.44928V19.644h1.44928V18.1947h-1.442V16.74542h1.442V15.29614h-1.44928V13.84686h4.34784Z"/><path class="cls-5" d="M167.72573,22.32877a.72465.72465,0,0,0,1.23551-.51087h1.44928a2.17392,2.17392,0,0,1-4.34784,0V18.91934H167.512a.72249.72249,0,1,0,.72464-.72464,2.17257,2.17257,0,0,1-1.53624-3.71016,2.17392,2.17392,0,0,1,3.71016,1.53624,2.07184,2.07184,0,0,1-.558,1.44928,2.07184,2.07184,0,0,1,.558,1.44928,2.1772,2.1772,0,0,1-2.17392,2.17392,2.23354,2.23354,0,0,1-.72464-.11594v.84058A.6972.6972,0,0,0,167.72573,22.32877Zm1.02174-6.81886a.71733.71733,0,1,0,.21377.51087A.6972.6972,0,0,0,168.74747,15.50991Z"/><path class="cls-5" d="M176.20764,15.29614H171.8598V13.84686h4.34784Zm-3.71016,2.087a2.16931,2.16931,0,1,1-.63768,1.53624A2.09394,2.09394,0,0,1,172.49748,17.3831Zm3.71016,6.60872H171.8598V22.54254h4.34784Zm-1.663-5.58335a.71733.71733,0,1,0,.21377.51087A.69716.69716,0,0,0,174.54459,18.40847Z"/><path class="cls-5" d="M178.2946,14.48454a2.17257,2.17257,0,1,1,3.07247,3.07248,2.09394,2.09394,0,0,1-1.53623.63768,2.23354,2.23354,0,0,1-.72464-.11594v3.0145a2.89468,2.89468,0,0,1,2.89856,2.89856h-1.44928a1.44734,1.44734,0,0,0-1.44928-1.44928v1.44928h-1.44928v-7.971A2.09394,2.09394,0,0,1,178.2946,14.48454Zm2.04711,1.02537a.71733.71733,0,1,0,.21377.51087A.6972.6972,0,0,0,180.34171,15.50991Z"/></g></svg>