<svg id="Layer_1" data-name="Layer 1" xmlns="http://www.w3.org/2000/svg" viewBox="0 0 205.02 148.82"><defs><style>.cls-1{fill:#cc2027;}.cls-2{fill:#fcb515;}.cls-2,.cls-3,.cls-4,.cls-5{stroke:#262626;stroke-miterlimit:10;}.cls-3,.cls-4,.cls-5{fill:#ede3d9;}.cls-4{stroke-width:0.65px;}.cls-5{stroke-width:0.8px;}</style></defs><rect class="cls-1" width="205.02" height="148.82"/><g id="TypoPath"><g id="TypoPathLat"><g id="TypoPath-2" data-name="TypoPath"><path class="cls-2" d="M34.72,23.28V15.52H58v7.76H50.23V69.81H42.48V23.28Z"/><path class="cls-2" d="M100.18,18.94a11.59,11.59,0,0,1,16.44,0A11.21,11.21,0,0,1,120,27.16,11.64,11.64,0,0,1,108.4,38.79a12,12,0,0,1-3.88-.62V54.3A15.48,15.48,0,0,1,120,69.81h-7.76a7.73,7.73,0,0,0-7.75-7.76v7.76H96.76V27.16A11.18,11.18,0,0,1,100.18,18.94Zm10.95,5.48a3.72,3.72,0,0,0-2.73-1.14,3.89,3.89,0,0,0-3.88,3.88,3.72,3.72,0,0,0,1.14,2.73A3.76,3.76,0,0,0,108.4,31a3.87,3.87,0,0,0,2.73-6.61Z"/><path class="cls-2" d="M143.76,18.94a11.21,11.21,0,0,1,3.41,8.22,11.64,11.64,0,0,1-11.63,11.63A15.5,15.5,0,0,1,151.05,54.3a15.5,15.5,0,0,1-15.51,15.51h-7.76V15.52h7.76A11.19,11.19,0,0,1,143.76,18.94Zm-5.49,11a3.88,3.88,0,0,0-2.73-6.61V31A3.72,3.72,0,0,0,138.27,29.89ZM141,59.78a7.76,7.76,0,0,0-5.49-13.24V62.05A7.47,7.47,0,0,0,141,59.78Z"/><path class="cls-2" d="M162.22,34.45a11.63,11.63,0,0,1,19.85,8.22,11.64,11.64,0,1,1-19.85-8.22Zm10.95,5.48a3.72,3.72,0,0,0-2.73-1.14,3.89,3.89,0,0,0-3.88,3.88,3.72,3.72,0,0,0,1.14,2.73,3.76,3.76,0,0,0,2.74,1.14,3.87,3.87,0,0,0,2.73-6.61Z"/><rect class="cls-3" x="158.8" y="62.05" width="23.26" height="7.75"/><path class="cls-2" d="M38.14,86.69a11.61,11.61,0,0,1,16.44,0,11.63,11.63,0,0,1-8.22,19.85,12,12,0,0,1-3.88-.62v16.13A15.5,15.5,0,0,1,58,137.56H50.23a7.72,7.72,0,0,0-7.75-7.75v7.75H34.72V94.91A11.18,11.18,0,0,1,38.14,86.69Zm11,5.48A3.72,3.72,0,0,0,46.36,91a3.89,3.89,0,0,0-3.88,3.88,3.72,3.72,0,0,0,1.14,2.73,3.77,3.77,0,0,0,2.74,1.15,3.87,3.87,0,0,0,2.73-6.62Z"/><path class="cls-2" d="M100.18,86.69A11.63,11.63,0,0,1,120,94.91h-7.76a3.76,3.76,0,0,0-1.14-2.74A3.72,3.72,0,0,0,108.4,91a3.89,3.89,0,0,0-3.88,3.88,3.72,3.72,0,0,0,1.14,2.73,3.77,3.77,0,0,0,2.74,1.15,11.62,11.62,0,1,1-11.64,11.63h7.76a3.72,3.72,0,0,0,1.14,2.73,3.77,3.77,0,0,0,2.74,1.15,3.88,3.88,0,0,0,0-7.76,11.62,11.62,0,0,1-8.22-19.85Z"/><rect class="cls-3" x="96.76" y="129.81" width="23.27" height="7.75"/><path class="cls-2" d="M131.27,86.69a11.64,11.64,0,0,1,19.86,8.22h-7.76a3.88,3.88,0,0,0-7.75,0,3.91,3.91,0,0,0,3.87,3.88,11.62,11.62,0,1,1-11.63,11.63h7.76a3.88,3.88,0,0,0,7.75,0,3.89,3.89,0,0,0-3.88-3.88,11.62,11.62,0,0,1-8.22-19.85Z"/><rect class="cls-3" x="127.86" y="129.81" width="23.26" height="7.75"/><path class="cls-3" d="M65.74,15.52H73.5V125.93a3.72,3.72,0,0,0,1.14,2.73,3.77,3.77,0,0,0,2.74,1.15,3.91,3.91,0,0,0,3.87-3.88V15.52H89V125.93a11.62,11.62,0,0,1-19.85,8.22,11.21,11.21,0,0,1-3.42-8.22Z"/></g><g id="TypoPath-3" data-name="TypoPath"><path class="cls-3" d="M32.72,21.28V13.52H56v7.76H48.23V67.81H40.48V21.28Z"/><path class="cls-3" d="M98.18,16.94a11.59,11.59,0,0,1,16.44,0A11.21,11.21,0,0,1,118,25.16,11.64,11.64,0,0,1,106.4,36.79a12,12,0,0,1-3.88-.62V52.3A15.48,15.48,0,0,1,118,67.81h-7.76a7.73,7.73,0,0,0-7.75-7.76v7.76H94.76V25.16A11.18,11.18,0,0,1,98.18,16.94Zm10.95,5.48a3.72,3.72,0,0,0-2.73-1.14,3.89,3.89,0,0,0-3.88,3.88,3.72,3.72,0,0,0,1.14,2.73A3.76,3.76,0,0,0,106.4,29a3.87,3.87,0,0,0,2.73-6.61Z"/><path class="cls-3" d="M141.76,16.94a11.21,11.21,0,0,1,3.41,8.22,11.64,11.64,0,0,1-11.63,11.63A15.5,15.5,0,0,1,149.05,52.3a15.5,15.5,0,0,1-15.51,15.51h-7.76V13.52h7.76A11.19,11.19,0,0,1,141.76,16.94Zm-5.49,11a3.88,3.88,0,0,0-2.73-6.61V29A3.72,3.72,0,0,0,136.27,27.89ZM139,57.78a7.76,7.76,0,0,0-5.49-13.24V60.05A7.47,7.47,0,0,0,139,57.78Z"/><path class="cls-3" d="M160.22,32.45a11.63,11.63,0,0,1,19.85,8.22,11.64,11.64,0,1,1-19.85-8.22Zm10.95,5.48a3.72,3.72,0,0,0-2.73-1.14,3.89,3.89,0,0,0-3.88,3.88,3.72,3.72,0,0,0,1.14,2.73,3.76,3.76,0,0,0,2.74,1.14,3.87,3.87,0,0,0,2.73-6.61Z"/><rect class="cls-2" x="156.8" y="60.05" width="23.26" height="7.75"/><path class="cls-3" d="M36.14,84.69a11.61,11.61,0,0,1,16.44,0,11.63,11.63,0,0,1-8.22,19.85,12,12,0,0,1-3.88-.62v16.13A15.5,15.5,0,0,1,56,135.56H48.23a7.72,7.72,0,0,0-7.75-7.75v7.75H32.72V92.91A11.18,11.18,0,0,1,36.14,84.69Zm11,5.48A3.72,3.72,0,0,0,44.36,89a3.89,3.89,0,0,0-3.88,3.88,3.72,3.72,0,0,0,1.14,2.73,3.77,3.77,0,0,0,2.74,1.15,3.87,3.87,0,0,0,2.73-6.62Z"/><path class="cls-3" d="M98.18,84.69A11.63,11.63,0,0,1,118,92.91h-7.76a3.76,3.76,0,0,0-1.14-2.74A3.72,3.72,0,0,0,106.4,89a3.89,3.89,0,0,0-3.88,3.88,3.72,3.72,0,0,0,1.14,2.73,3.77,3.77,0,0,0,2.74,1.15,11.62,11.62,0,1,1-11.64,11.63h7.76a3.72,3.72,0,0,0,1.14,2.73,3.77,3.77,0,0,0,2.74,1.15,3.88,3.88,0,0,0,0-7.76,11.62,11.62,0,0,1-8.22-19.85Z"/><rect class="cls-2" x="94.76" y="127.81" width="23.27" height="7.75"/><path class="cls-3" d="M129.27,84.69a11.64,11.64,0,0,1,19.86,8.22h-7.76a3.88,3.88,0,0,0-7.75,0,3.91,3.91,0,0,0,3.87,3.88,11.62,11.62,0,1,1-11.63,11.63h7.76a3.88,3.88,0,0,0,7.75,0,3.89,3.89,0,0,0-3.88-3.88,11.62,11.62,0,0,1-8.22-19.85Z"/><rect class="cls-2" x="125.86" y="127.81" width="23.26" height="7.75"/><path class="cls-2" d="M63.74,13.52H71.5V123.93a3.72,3.72,0,0,0,1.14,2.73,3.77,3.77,0,0,0,2.74,1.15,3.91,3.91,0,0,0,3.87-3.88V13.52H87V123.93a11.62,11.62,0,0,1-19.85,8.22,11.21,11.21,0,0,1-3.42-8.22Z"/></g></g></g><g id="IGOR_1" data-name="IGOR 1"><path class="cls-4" d="M162.59,14.58h-1.45V16h1.46v1.45h-1.46v1.45h1.45v1.45h-1.45v1.45h1.45v1.45h-4.35V21.83h1.45V20.38h-1.45V18.93h1.45V17.48h-1.44V16h1.44V14.58h-1.45V13.13h4.35Z"/><path class="cls-4" d="M165.7,21.62a.72.72,0,0,0,1,0,.7.7,0,0,0,.22-.52h1.45a2.11,2.11,0,0,1-.64,1.54,2.09,2.09,0,0,1-1.54.64,2.05,2.05,0,0,1-1.53-.64A2.08,2.08,0,0,1,164,21.1V18.21h1.45a.73.73,0,0,0,.21.51.73.73,0,0,0,1.24-.51.75.75,0,0,0-.73-.73A2.19,2.19,0,0,1,164,15.31a2.19,2.19,0,0,1,2.17-2.18,2.19,2.19,0,0,1,2.18,2.18,2.09,2.09,0,0,1-.56,1.45,2.17,2.17,0,0,1-1.62,3.62,2.13,2.13,0,0,1-.72-.12v.84A.73.73,0,0,0,165.7,21.62Zm1-6.82a.7.7,0,0,0-1,0,.72.72,0,0,0,1,1,.7.7,0,0,0,0-1Z"/><path class="cls-4" d="M174.18,14.58h-4.34V13.13h4.34Zm-3.71,2.09a2.19,2.19,0,1,1-.63,1.54A2.09,2.09,0,0,1,170.47,16.67Zm3.71,6.61h-4.34V21.83h4.34Zm-1.66-5.58a.7.7,0,0,0-1,0,.7.7,0,0,0-.22.51.74.74,0,0,0,.22.51.72.72,0,0,0,1,0,.73.73,0,0,0,.21-.51A.69.69,0,0,0,172.52,17.7Z"/><path class="cls-4" d="M176.27,13.77a2.13,2.13,0,0,1,1.54-.64A2.19,2.19,0,0,1,180,15.31a2.19,2.19,0,0,1-2.17,2.17,2.48,2.48,0,0,1-.73-.11v3a2.9,2.9,0,0,1,2.9,2.9h-1.45a1.43,1.43,0,0,0-1.45-1.45v1.45h-1.45v-8A2.09,2.09,0,0,1,176.27,13.77Zm2,1a.7.7,0,0,0-.51-.22.72.72,0,0,0-.51,1.24.69.69,0,0,0,.51.21.73.73,0,0,0,.51-.21.72.72,0,0,0,0-1Z"/></g><g id="_8_vol" data-name="8% vol"><path class="cls-5" d="M163.82,135.42a3.31,3.31,0,0,1,4.32-5,4.45,4.45,0,0,1,.41-.47,4.41,4.41,0,1,1,0,6.24,3.63,3.63,0,0,1-.41-.47,3.3,3.3,0,0,1-4.32-.31Zm6.29-.78a2.2,2.2,0,1,0-.65-1.56A2.13,2.13,0,0,0,170.11,134.64Zm-4.73-2.34a1.09,1.09,0,0,0,0,1.56,1,1,0,0,0,.77.32,1,1,0,0,0,.78-.32,1.09,1.09,0,0,0,0-1.56,1.08,1.08,0,0,0-.78-.32A1.06,1.06,0,0,0,165.38,132.3Z"/><path class="cls-5" d="M162.82,125.49a3.3,3.3,0,1,1,2.33,1A3.15,3.15,0,0,1,162.82,125.49Zm1.56-3.11a1.05,1.05,0,0,0-.33.78,1.13,1.13,0,0,0,1.1,1.1,1.05,1.05,0,0,0,.78-.33,1,1,0,0,0,.33-.77,1.13,1.13,0,0,0-1.11-1.11A1,1,0,0,0,164.38,122.38Zm-2.53-4.74,15.43,4.41v-2.2l-15.43-4.41Zm9.79-1a3.3,3.3,0,1,1,2.34,1A3.17,3.17,0,0,1,171.64,116.67Zm1.56-3.11a1,1,0,0,0-.33.77,1.05,1.05,0,0,0,.33.78,1.07,1.07,0,0,0,.78.33,1,1,0,0,0,.77-.33,1.05,1.05,0,0,0,.33-.78,1.13,1.13,0,0,0-1.1-1.1A1.07,1.07,0,0,0,173.2,113.56Z"/><path class="cls-5" d="M164.05,97.79v6.62h-2.2V97.79Zm2.21,0V100l3.31,1.1-3.31,1.1v2.21l6.61-2.21V100Zm11,0v6.62h-2.2V97.79Z"/><path class="cls-5" d="M164.05,89v6.62h-2.2V89Zm3.18,5.65A3.31,3.31,0,0,1,169.57,89a3.15,3.15,0,0,1,2.33,1,3.31,3.31,0,1,1-4.67,4.68ZM177.28,89v6.62h-2.2V89Zm-8.49,2.53a1.11,1.11,0,1,0,1.55,0,1.1,1.1,0,0,0-1.55,0Z"/><path class="cls-5" d="M177.28,86.77H161.85V84.56h13.23V82.35h2.2Z"/></g></svg>