<svg xmlns="http://www.w3.org/2000/svg" xmlns:xlink="http://www.w3.org/1999/xlink" viewBox="0 0 184.25197 297.6378"><defs><style>.cls-1{fill:#cc2027;}.cls-10,.cls-2,.cls-5,.cls-9{fill:#ede3d9;}.cls-3{fill:#262626;}.cls-4,.cls-8{fill:#fdb614;}.cls-4,.cls-5{stroke:#262626;stroke-width:0.5px;}.cls-10,.cls-4,.cls-5,.cls-8,.cls-9{stroke-miterlimit:10;}.cls-11,.cls-6{fill:none;stroke:#000;}.cls-6{stroke-width:0.3px;}.cls-7{fill:#131313;}.cls-8,.cls-9{stroke:#131313;}.cls-10{stroke:#231f20;}.cls-11{stroke-width:0.3px;}</style><symbol id="TURBORUSS_FRONT" data-name="TURBORUSS FRONT" viewBox="0 0 292.252 405.638"><rect class="cls-1" x="54" y="54" width="184.25197" height="297.6378"/><rect class="cls-2" x="58.75198" y="58.75197" width="174.748" height="288.13385"/><path class="cls-7" d="M233,59.252V346.38579H59.252V59.252H233m1-1H58.252V347.38579H234V58.252Z"/><rect class="cls-1" x="63.00395" y="63.00394" width="166.24406" height="279.62991"/><path class="cls-7" d="M228.74805,63.504V342.13384H63.50391V63.504H228.74805m1-1H62.50391V343.13384H229.74805V62.504Z"/><g id="TypoPath"><g id="TypoPathLat"><g id="TypoPath-2" data-name="TypoPath"><path class="cls-8" d="M73.41722,80.01552V72.26058H96.682v7.75494H88.9271v46.52965H81.17216V80.01552Z"/><path class="cls-8" d="M138.86893,75.67275a11.62536,11.62536,0,1,1,16.441,16.44048,11.208,11.208,0,0,1-8.22077,3.41217,11.95564,11.95564,0,0,1-3.87747-.62039v16.13028a15.48911,15.48911,0,0,1,15.51041,15.50988h-7.75546a7.74457,7.74457,0,0,0-7.755-7.75494v7.75494h-7.75494V83.893A11.20515,11.20515,0,0,1,138.86893,75.67275Zm10.95385,5.48662a3.83836,3.83836,0,1,0,1.14386,2.73362A3.73077,3.73077,0,0,0,149.82278,81.15937Z"/><path class="cls-8" d="M182.45222,75.67275A11.63241,11.63241,0,0,1,174.232,95.5254a15.51852,15.51852,0,0,1,10.97325,26.48313,14.94753,14.94753,0,0,1-10.97325,4.53664H166.477V72.26058H174.232A11.20512,11.20512,0,0,1,182.45222,75.67275Zm-5.48714,10.95386a3.87751,3.87751,0,0,0-2.7331-6.61109v7.75494A3.72962,3.72962,0,0,0,176.96508,86.62661Zm2.75405,29.8953a7.75494,7.75494,0,0,0-5.48715-13.24156v15.50988A7.47746,7.47746,0,0,0,179.71913,116.52191Z"/><path class="cls-8" d="M200.909,91.18264a11.60774,11.60774,0,1,1-3.41217,8.22023A11.20516,11.20516,0,0,1,200.909,91.18264Zm10.95334,5.48662a3.83715,3.83715,0,1,0,1.14437,2.73361A3.72961,3.72961,0,0,0,211.86232,96.66926Z"/><rect class="cls-9" x="197.49681" y="72.26058" width="23.26483" height="7.75494"/><rect class="cls-9" x="197.49681" y="118.79023" width="23.26483" height="7.75494"/><path class="cls-8" d="M76.82939,143.42531A11.62518,11.62518,0,1,1,85.04963,163.278a11.95564,11.95564,0,0,1-3.87747-.62039v16.13027A15.48912,15.48912,0,0,1,96.682,194.29773H88.9271a7.74455,7.74455,0,0,0-7.75494-7.75494v7.75494H73.41722V151.64555A11.20514,11.20514,0,0,1,76.82939,143.42531Zm10.95386,5.48662a3.83838,3.83838,0,1,0,1.14385,2.73362A3.73079,3.73079,0,0,0,87.78325,148.91193Z"/><path class="cls-8" d="M138.86893,143.42531a11.63267,11.63267,0,0,1,19.85317,8.22024h-7.75546a3.866,3.866,0,1,0-3.87748,3.87747,11.62517,11.62517,0,1,1-11.63241,11.63241h7.75494a3.866,3.866,0,1,0,3.87747-3.87747,11.62517,11.62517,0,0,1-8.22023-19.85265Z"/><rect class="cls-9" x="135.45675" y="186.54279" width="23.26535" height="7.75494"/><path class="cls-8" d="M169.96677,143.42531a11.63242,11.63242,0,0,1,19.85265,8.22024h-7.75494A3.86559,3.86559,0,1,0,178.187,155.523a11.62517,11.62517,0,1,1-11.63241,11.63241h7.75494A3.86559,3.86559,0,1,0,178.187,163.278a11.62517,11.62517,0,0,1-8.22023-19.85265Z"/><rect class="cls-9" x="166.55459" y="186.54279" width="23.26483" height="7.75494"/><path class="cls-9" d="M104.437,72.26058h7.75495V182.66532a3.8775,3.8775,0,0,0,7.75494,0V72.26058h7.75494V182.66532a11.63242,11.63242,0,0,1-23.26483,0Z"/></g><g id="TypoPath-3" data-name="TypoPath"><path class="cls-9" d="M71.41722,78.01552V70.26058H94.682v7.75494H86.9271v46.52965H79.17216V78.01552Z"/><path class="cls-9" d="M136.86893,73.67275a11.62536,11.62536,0,1,1,16.441,16.44048,11.208,11.208,0,0,1-8.22077,3.41217,11.95564,11.95564,0,0,1-3.87747-.62039v16.13028a15.48911,15.48911,0,0,1,15.51041,15.50988h-7.75546a7.74457,7.74457,0,0,0-7.755-7.75494v7.75494h-7.75494V81.893A11.20515,11.20515,0,0,1,136.86893,73.67275Zm10.95385,5.48662a3.83836,3.83836,0,1,0,1.14386,2.73362A3.73077,3.73077,0,0,0,147.82278,79.15937Z"/><path class="cls-9" d="M180.45222,73.67275A11.63241,11.63241,0,0,1,172.232,93.5254a15.51852,15.51852,0,0,1,10.97325,26.48313,14.94753,14.94753,0,0,1-10.97325,4.53664H164.477V70.26058H172.232A11.20512,11.20512,0,0,1,180.45222,73.67275Zm-5.48714,10.95386a3.87751,3.87751,0,0,0-2.7331-6.61109v7.75494A3.72962,3.72962,0,0,0,174.96508,84.62661Zm2.75405,29.8953a7.75494,7.75494,0,0,0-5.48715-13.24156v15.50988A7.47746,7.47746,0,0,0,177.71913,114.52191Z"/><path class="cls-9" d="M198.909,89.18264a11.60774,11.60774,0,1,1-3.41217,8.22023A11.20516,11.20516,0,0,1,198.909,89.18264Zm10.95334,5.48662a3.83715,3.83715,0,1,0,1.14437,2.73361A3.72961,3.72961,0,0,0,209.86232,94.66926Z"/><rect class="cls-8" x="195.49681" y="70.26058" width="23.26483" height="7.75494"/><rect class="cls-8" x="195.49681" y="116.79023" width="23.26483" height="7.75494"/><path class="cls-9" d="M74.82939,141.42531A11.62518,11.62518,0,1,1,83.04963,161.278a11.95564,11.95564,0,0,1-3.87747-.62039v16.13027A15.48912,15.48912,0,0,1,94.682,192.29773H86.9271a7.74455,7.74455,0,0,0-7.75494-7.75494v7.75494H71.41722V149.64555A11.20514,11.20514,0,0,1,74.82939,141.42531Zm10.95386,5.48662a3.83838,3.83838,0,1,0,1.14385,2.73362A3.73079,3.73079,0,0,0,85.78325,146.91193Z"/><path class="cls-9" d="M136.86893,141.42531a11.63267,11.63267,0,0,1,19.85317,8.22024h-7.75546a3.866,3.866,0,1,0-3.87748,3.87747,11.62517,11.62517,0,1,1-11.63241,11.63241h7.75494a3.866,3.866,0,1,0,3.87747-3.87747,11.62517,11.62517,0,0,1-8.22023-19.85265Z"/><rect class="cls-8" x="133.45675" y="184.54279" width="23.26535" height="7.75494"/><path class="cls-9" d="M167.96677,141.42531a11.63242,11.63242,0,0,1,19.85265,8.22024h-7.75494A3.86559,3.86559,0,1,0,176.187,153.523a11.62517,11.62517,0,1,1-11.63241,11.63241h7.75494A3.86559,3.86559,0,1,0,176.187,161.278a11.62517,11.62517,0,0,1-8.22023-19.85265Z"/><rect class="cls-8" x="164.55459" y="184.54279" width="23.26483" height="7.75494"/><path class="cls-8" d="M102.437,70.26058h7.75495V180.66532a3.8775,3.8775,0,0,0,7.75494,0V70.26058h7.75494V180.66532a11.63242,11.63242,0,0,1-23.26483,0Z"/></g></g><g id="TypoPathKyr"><path class="cls-9" d="M81.2453,219.0946h-7.755v-7.755H96.75524v7.755h-7.755v7.755h7.755v7.755h-7.755v31.01988h-7.755V234.60453h-7.755v-7.755h7.755Z"/><path class="cls-9" d="M151.04,242.3595v7.755h-7.755v15.50994h-7.755V222.97208a11.62522,11.62522,0,1,1,11.63245,11.63245,11.96506,11.96506,0,0,1-3.87748-.62039v8.37536Zm-1.14439-22.12157a3.83712,3.83712,0,1,0,1.14439,2.73415A3.73113,3.73113,0,0,0,149.89564,220.23793Z"/><path class="cls-9" d="M178.18242,242.3595A11.62523,11.62523,0,1,1,166.55,253.992V211.33963h23.2649v7.755H174.30493v23.8853A11.94149,11.94149,0,0,1,178.18242,242.3595Zm-2.7331,8.89831a3.83834,3.83834,0,1,0,2.7331-1.14334A3.73042,3.73042,0,0,0,175.44932,251.25781Z"/><path class="cls-9" d="M200.982,230.26175a11.60778,11.60778,0,1,1-3.41219,8.22027A11.20315,11.20315,0,0,1,200.982,230.26175Zm10.95337,5.48612a3.83715,3.83715,0,1,0,1.14438,2.73415A3.73116,3.73116,0,0,0,211.9354,235.74787Z"/><rect class="cls-8" x="197.56984" y="257.86944" width="23.26491" height="7.75497"/><rect class="cls-8" x="197.56984" y="211.33963" width="23.26491" height="7.75497"/><path class="cls-9" d="M89.00027,310.11231v7.755h-7.755v15.50994h-7.755V290.72489a11.62521,11.62521,0,0,1,19.85272-8.22027,11.63246,11.63246,0,0,1-8.22026,19.85272,11.96512,11.96512,0,0,1-3.87749-.6204v8.37537Zm-1.14438-22.12157a3.83715,3.83715,0,1,0,1.14438,2.73415A3.73112,3.73112,0,0,0,87.85589,287.99074Z"/><path class="cls-9" d="M138.94227,282.50462a11.63246,11.63246,0,0,1,19.85273,8.22027H151.04a3.87752,3.87752,0,0,0-7.755,0v31.01987a3.87752,3.87752,0,0,0,7.755,0h7.755a11.63246,11.63246,0,0,1-23.26491,0V290.72489A11.20147,11.20147,0,0,1,138.94227,282.50462Z"/><path class="cls-9" d="M169.96215,282.50462a11.63245,11.63245,0,0,1,19.85272,8.22027h-7.755a3.87752,3.87752,0,0,0-7.755,0v31.01987a3.87752,3.87752,0,0,0,7.755,0h7.755a11.63245,11.63245,0,0,1-23.2649,0V290.72489A11.20147,11.20147,0,0,1,169.96215,282.50462Z"/><path class="cls-8" d="M124.36293,329.965a11.63246,11.63246,0,0,1-19.85272-8.22027h7.755a3.87752,3.87752,0,0,0,7.755,0V313.3694a11.97429,11.97429,0,0,1-3.87749.62039,11.65,11.65,0,0,1-11.63245-11.63245V211.33963h7.755v91.01771a3.87752,3.87752,0,0,0,7.755,0V211.33963h7.755V321.74476A11.2089,11.2089,0,0,1,124.36293,329.965Z"/><path class="cls-8" d="M79.2453,217.0946h-7.755v-7.755H94.75524v7.755h-7.755v7.755h7.755v7.755h-7.755v31.01988h-7.755V232.60453h-7.755v-7.755h7.755Z"/><path class="cls-8" d="M149.04,240.3595v7.755h-7.755v15.50994h-7.755V220.97208a11.62522,11.62522,0,1,1,11.63245,11.63245,11.96506,11.96506,0,0,1-3.87748-.62039v8.37536Zm-1.14439-22.12157a3.83712,3.83712,0,1,0,1.14439,2.73415A3.73113,3.73113,0,0,0,147.89564,218.23793Z"/><path class="cls-8" d="M176.18242,240.3595A11.62523,11.62523,0,1,1,164.55,251.992V209.33963h23.2649v7.755H172.30493v23.8853A11.94149,11.94149,0,0,1,176.18242,240.3595Zm-2.7331,8.89831a3.83834,3.83834,0,1,0,2.7331-1.14334A3.73042,3.73042,0,0,0,173.44932,249.25781Z"/><path class="cls-8" d="M198.982,228.26175a11.60778,11.60778,0,1,1-3.41219,8.22027A11.20315,11.20315,0,0,1,198.982,228.26175Zm10.95337,5.48612a3.83715,3.83715,0,1,0,1.14438,2.73415A3.73116,3.73116,0,0,0,209.9354,233.74787Z"/><rect class="cls-9" x="195.56984" y="255.86944" width="23.26491" height="7.75497"/><rect class="cls-9" x="195.56984" y="209.33963" width="23.26491" height="7.75497"/><path class="cls-8" d="M87.00027,308.11231v7.755h-7.755v15.50994h-7.755V288.72489a11.62521,11.62521,0,0,1,19.85272-8.22027,11.63246,11.63246,0,0,1-8.22026,19.85272,11.96512,11.96512,0,0,1-3.87749-.6204v8.37537Zm-1.14438-22.12157a3.83715,3.83715,0,1,0,1.14438,2.73415A3.73112,3.73112,0,0,0,85.85589,285.99074Z"/><path class="cls-8" d="M136.94227,280.50462a11.63246,11.63246,0,0,1,19.85273,8.22027H149.04a3.87752,3.87752,0,0,0-7.755,0v31.01987a3.87752,3.87752,0,0,0,7.755,0h7.755a11.63246,11.63246,0,0,1-23.26491,0V288.72489A11.20147,11.20147,0,0,1,136.94227,280.50462Z"/><path class="cls-8" d="M167.96215,280.50462a11.63245,11.63245,0,0,1,19.85272,8.22027h-7.755a3.87752,3.87752,0,0,0-7.755,0v31.01987a3.87752,3.87752,0,0,0,7.755,0h7.755a11.63245,11.63245,0,0,1-23.2649,0V288.72489A11.20147,11.20147,0,0,1,167.96215,280.50462Z"/><path class="cls-9" d="M122.36293,327.965a11.63246,11.63246,0,0,1-19.85272-8.22027h7.755a3.87752,3.87752,0,0,0,7.755,0V311.3694a11.97429,11.97429,0,0,1-3.87749.62039,11.65,11.65,0,0,1-11.63245-11.63245V209.33963h7.755v91.01771a3.87752,3.87752,0,0,0,7.755,0V209.33963h7.755V319.74476A11.2089,11.2089,0,0,1,122.36293,327.965Z"/></g></g><g id="Alc"><path class="cls-10" d="M201.66628,187.31158c.00653-.0269.01658-.04021.03016-.04021h14.00342c.0201,0,.03015.01331.03015.04021v1.94017a.02665.02665,0,0,1-.03015.03016H203.69693v1.98038c0,.02011-.01358.03016-.04021.03016h-1.96028q-.03015-.01019-.03016-.03016Z"/><path class="cls-10" d="M203.66677,185.26083v-2.01054h6.03162v-2.01054h-8.04216v-2.01054H215.73v2.01054h-4.02108v4.02108Z"/><path class="cls-10" d="M202.54087,176.334a3.00941,3.00941,0,1,1,2.13117.88464A2.90451,2.90451,0,0,1,202.54087,176.334Zm1.42232-2.84a.99545.99545,0,1,0,.70885-.29642A.96837.96837,0,0,0,203.96319,173.494Zm-2.307-4.3175L215.73,173.19759v-2.01054L201.65623,167.166Zm8.9268-.88464a3.00941,3.00941,0,1,1,2.13117.88464A2.90451,2.90451,0,0,1,210.583,168.29187Zm1.42232-2.84a.99545.99545,0,1,0,.70885-.29642A.96837.96837,0,0,0,212.00535,165.45185Z"/><path class="cls-10" d="M205.67731,151.08165v2.01054l3.01581,1.00527-3.01581,1.00527v2.01054l6.03162-2.01054v-2.01054Z"/><path class="cls-10" d="M203.66677,143.03949v14.07378h-2.01054V143.03949Zm2.89518,5.147a3.00941,3.00941,0,1,1,2.13117.88464A2.90451,2.90451,0,0,1,206.562,148.18647Zm9.16806-5.147v14.07378h-2.01054V143.03949Zm-7.74574,2.307a.99547.99547,0,1,0,.70885-.29641A.9684.9684,0,0,0,207.98427,145.34644Z"/><path class="cls-10" d="M215.73,141.029H201.65623V139.0184h12.06324v-2.01054H215.73Z"/></g><g id="ml"><path class="cls-9" d="M201.75533,329.37722h-2.17879v-6.53636h2.17879l7.62575,4.40115v-2.22237h2.17879v2.17879h3.26818v2.17879h-6.1006l-6.97212-4.01986Z"/><path class="cls-9" d="M204.89278,319.70341a3.26126,3.26126,0,1,1,2.30952.95866A3.14756,3.14756,0,0,1,204.89278,319.70341Zm1.54135-3.07769a1.07876,1.07876,0,1,0,.76817-.32122A1.04942,1.04942,0,0,0,206.43413,316.62572Z"/><path class="cls-9" d="M204.89278,310.98826a3.26124,3.26124,0,1,1,2.30952.95867A3.14755,3.14755,0,0,1,204.89278,310.98826Zm1.54135-3.07768a1.07873,1.07873,0,1,0,.76817-.32123A1.04941,1.04941,0,0,0,206.43413,307.91058Z"/><path class="cls-9" d="M206.1129,295.34379v2.17878h-6.53636v-2.17878a4.19959,4.19959,0,0,1,1.27459-3.083q.09805-.09805.1961-.1852-.09805-.087-.1961-.1852a4.19959,4.19959,0,0,1-1.27459-3.083v-2.17864h6.53636v2.17864h-4.35757a2.17588,2.17588,0,0,0,2.17879,2.17879V293.165a2.17587,2.17587,0,0,0-2.17879,2.17879Zm4.35758-8.715v10.89378h-2.17879V286.62879Zm4.35757,0v10.89378h-2.17879V286.62879Z"/><path class="cls-9" d="M214.82805,284.45H199.57654v-2.17878h13.07272v-2.17879h2.17879Z"/></g><line class="cls-6" x1="54" x2="54" y2="36"/><line class="cls-6" y1="54" x2="36" y2="54"/><line class="cls-6" y1="351.6378" x2="36" y2="351.6378"/><line class="cls-6" x1="54" y1="405.6378" x2="54" y2="369.6378"/><line class="cls-6" x1="238.25197" x2="238.25197" y2="36"/><line class="cls-6" x1="292.25197" y1="54" x2="256.25197" y2="54"/><line class="cls-6" x1="292.25197" y1="351.6378" x2="256.25197" y2="351.6378"/><line class="cls-6" x1="238.25197" y1="405.6378" x2="238.25197" y2="369.6378"/></symbol><symbol id="New_Symbol" data-name="New Symbol" viewBox="0 0 292.252 150.52"><rect class="cls-1" x="54" y="54" width="184.25197" height="42.51969"/><rect class="cls-2" x="58.75225" y="58.75193" width="174.74805" height="33.01563"/><path class="cls-3" d="M233,59.252V91.26772H59.252V59.252H233m1-1H58.252V92.26772H234V58.252Z"/><rect class="cls-1" x="63.0042" y="63.00388" width="166.24414" height="24.51172"/><path class="cls-3" d="M228.748,63.50393V87.01575H63.504V63.50393H228.748m1-1H62.504V88.01575H229.748V62.50393Z"/><g id="TypoPathLat-2" data-name="TypoPathLat"><path class="cls-4" d="M72.84749,69.913V67.5687h7.03278V69.913H77.536V83.97853H75.19175V69.913Z"/><path class="cls-5" d="M82.22453,67.5687h2.34426V80.46213a1.17214,1.17214,0,0,0,2.34426,0V67.5687h2.34426V80.46213a3.51639,3.51639,0,0,1-7.03278,0Z"/><path class="cls-4" d="M92.63305,68.60018a3.51415,3.51415,0,1,1,2.48491,6.0013,3.60965,3.60965,0,0,1-1.17213-.18754V79.29a4.68171,4.68171,0,0,1,4.68836,4.68853H96.28993a2.34057,2.34057,0,0,0-2.3441-2.34427v2.34427H91.60157V71.08509A3.38721,3.38721,0,0,1,92.63305,68.60018Zm3.31126,1.65872a1.16031,1.16031,0,1,0,.34562.82619A1.12754,1.12754,0,0,0,95.94431,70.2589Z"/><path class="cls-4" d="M105.80763,68.60018a3.51639,3.51639,0,0,1-2.48491,6.0013,4.68853,4.68853,0,1,1,0,9.37705h-2.34427V67.5687h2.34427A3.38659,3.38659,0,0,1,105.80763,68.60018Zm-1.65872,3.31111a1.17215,1.17215,0,0,0-.82619-1.99833v2.34426A1.127,1.127,0,0,0,104.14891,71.91129Zm.83253,9.03744a2.34427,2.34427,0,0,0-1.65872-4.003v4.68852A2.26147,2.26147,0,0,0,104.98144,80.94873Z"/><path class="cls-4" d="M111.387,73.2887a3.50894,3.50894,0,1,1-1.03147,2.48491A3.38661,3.38661,0,0,1,111.387,73.2887Zm3.31111,1.65872a1.15955,1.15955,0,1,0,.34594.82619A1.127,1.127,0,0,0,114.69808,74.94742Z"/><path class="cls-4" d="M120.764,68.60018a3.51421,3.51421,0,1,1,2.48492,6.0013,3.6096,3.6096,0,0,1-1.17213-.18754V79.29a4.68225,4.68225,0,0,1,4.68852,4.68853h-2.34426a2.34059,2.34059,0,0,0-2.34426-2.34427v2.34427h-2.34426V71.08509A3.38662,3.38662,0,0,1,120.764,68.60018Zm3.31111,1.65872a1.15955,1.15955,0,1,0,.34594.82619A1.12693,1.12693,0,0,0,124.07512,70.2589Z"/><path class="cls-5" d="M129.10958,67.5687h2.34426V80.46213a1.17214,1.17214,0,0,0,2.34426,0V67.5687h2.34426V80.46213a3.51639,3.51639,0,0,1-7.03278,0Z"/><path class="cls-4" d="M139.5181,68.60018a3.5164,3.5164,0,0,1,6.00131,2.48491h-2.34426a1.16843,1.16843,0,1,0-1.17213,1.17213,3.5142,3.5142,0,1,1-3.5164,3.51639h2.34427a1.16842,1.16842,0,1,0,1.17213-1.17213,3.51419,3.51419,0,0,1-2.48492-6.0013Z"/><path class="cls-4" d="M148.91858,68.60018a3.51639,3.51639,0,0,1,6.00131,2.48491h-2.34426a1.16843,1.16843,0,1,0-1.17213,1.17213,3.51421,3.51421,0,1,1-3.51639,3.51639h2.34426a1.16842,1.16842,0,1,0,1.17213-1.17213,3.5142,3.5142,0,0,1-2.48492-6.0013Z"/><rect class="cls-5" x="110.3555" y="67.5687" width="7.03278" height="2.34426"/><rect class="cls-5" x="138.48662" y="81.63426" width="7.03278" height="2.34426"/><rect class="cls-5" x="147.88711" y="81.63426" width="7.03278" height="2.34426"/><rect class="cls-5" x="110.3555" y="81.63426" width="7.03278" height="2.34426"/><path class="cls-5" d="M71.81994,68.88542V66.54116h7.03279v2.34426H76.50847V82.951H74.16421V68.88542Z"/><path class="cls-4" d="M81.197,66.54116h2.34426V79.43459a1.17214,1.17214,0,0,0,2.34426,0V66.54116h2.34426V79.43459a3.51639,3.51639,0,0,1-7.03278,0Z"/><path class="cls-5" d="M91.6055,67.57263a3.51415,3.51415,0,1,1,2.48492,6.00131,3.60987,3.60987,0,0,1-1.17213-.18754v4.87606A4.68171,4.68171,0,0,1,97.60665,82.951H95.26239a2.34059,2.34059,0,0,0-2.3441-2.34426V82.951H90.574V70.05755A3.38726,3.38726,0,0,1,91.6055,67.57263Zm3.31127,1.65873a1.1603,1.1603,0,1,0,.34562.82619A1.12754,1.12754,0,0,0,94.91677,69.23136Z"/><path class="cls-5" d="M104.78009,67.57263a3.51639,3.51639,0,0,1-2.48492,6.00131,4.68852,4.68852,0,1,1,0,9.377H99.95091V66.54116h2.34426A3.38664,3.38664,0,0,1,104.78009,67.57263Zm-1.65872,3.31111a1.17214,1.17214,0,0,0-.8262-1.99832v2.34426A1.127,1.127,0,0,0,103.12137,70.88374Zm.83253,9.03745a2.34427,2.34427,0,0,0-1.65873-4.003v4.68852A2.26147,2.26147,0,0,0,103.9539,79.92119Z"/><path class="cls-5" d="M110.35943,72.26116a3.50894,3.50894,0,1,1-1.03147,2.48491A3.38661,3.38661,0,0,1,110.35943,72.26116Zm3.31111,1.65872a1.15955,1.15955,0,1,0,.34594.82619A1.127,1.127,0,0,0,113.67054,73.91988Z"/><path class="cls-5" d="M119.73647,67.57263a3.51421,3.51421,0,1,1,2.48492,6.00131,3.60987,3.60987,0,0,1-1.17213-.18754v4.87606a4.68225,4.68225,0,0,1,4.68852,4.68852h-2.34426a2.34059,2.34059,0,0,0-2.34426-2.34426V82.951H118.705V70.05755A3.38664,3.38664,0,0,1,119.73647,67.57263Zm3.31111,1.65873a1.15954,1.15954,0,1,0,.34594.82619A1.12694,1.12694,0,0,0,123.04758,69.23136Z"/><path class="cls-4" d="M128.082,66.54116h2.34426V79.43459a1.17214,1.17214,0,0,0,2.34426,0V66.54116h2.34426V79.43459a3.51639,3.51639,0,0,1-7.03278,0Z"/><path class="cls-5" d="M138.49056,67.57263a3.51639,3.51639,0,0,1,6.0013,2.48492H142.1476a1.16842,1.16842,0,1,0-1.17213,1.17213,3.5142,3.5142,0,1,1-3.51639,3.51639h2.34426a1.16843,1.16843,0,1,0,1.17213-1.17213,3.5142,3.5142,0,0,1-2.48491-6.00131Z"/><path class="cls-5" d="M147.891,67.57263a3.5164,3.5164,0,0,1,6.00131,2.48492h-2.34426a1.16842,1.16842,0,1,0-1.17213,1.17213,3.51421,3.51421,0,1,1-3.51639,3.51639h2.34426a1.16842,1.16842,0,1,0,1.17213-1.17213,3.51421,3.51421,0,0,1-2.48492-6.00131Z"/><rect class="cls-4" x="109.32796" y="66.54116" width="7.03278" height="2.34426"/><rect class="cls-4" x="137.45908" y="80.60672" width="7.03278" height="2.34426"/><rect class="cls-4" x="146.85957" y="80.60672" width="7.03278" height="2.34426"/><rect class="cls-4" x="109.32796" y="80.60672" width="7.03278" height="2.34426"/></g><line class="cls-6" x1="54" x2="54" y2="36"/><line class="cls-6" y1="54" x2="36" y2="54"/><line class="cls-6" y1="96.51969" x2="36" y2="96.51969"/><line class="cls-6" x1="54" y1="150.51969" x2="54" y2="114.51969"/><line class="cls-6" x1="238.25197" x2="238.25197" y2="36"/><line class="cls-6" x1="292.25197" y1="54" x2="256.25197" y2="54"/><line class="cls-6" x1="292.25197" y1="96.51969" x2="256.25197" y2="96.51969"/><line class="cls-6" x1="238.25197" y1="150.51969" x2="238.25197" y2="114.51969"/></symbol></defs><g id="Layer_6" data-name="Layer 6"><use width="292.25197" height="405.6378" transform="translate(-54 -54)" xlink:href="#TURBORUSS_FRONT"/><line class="cls-11" x1="156.36299" y1="77.95276" x2="192.36299" y2="77.95276"/><line class="cls-11" x1="156.36299" y1="219.68504" x2="192.36299" y2="219.68504"/><line class="cls-11" x1="156.36299" y1="-30.04724" x2="156.36299" y2="5.95276"/><line class="cls-11" x1="102.36299" y1="23.95276" x2="138.36299" y2="23.95276"/><line class="cls-11" x1="102.36299" y1="273.68504" x2="138.36299" y2="273.68504"/><line class="cls-11" x1="156.36299" y1="327.68504" x2="156.36299" y2="291.68504"/></g><g id="Layer_7" data-name="Layer 7"><use width="292.25197" height="150.51969" transform="translate(156.36299 -23.10203)" xlink:href="#New_Symbol"/></g></svg>