<?xml version="1.0" encoding="utf-8"?>
<!-- Generator: Adobe Illustrator 25.0.1, SVG Export Plug-In . SVG Version: 6.00 Build 0)  -->
<svg version="1.1" id="Layer_1" xmlns="http://www.w3.org/2000/svg" xmlns:xlink="http://www.w3.org/1999/xlink" x="0px" y="0px"
	 viewBox="0 0 184.3 141.7" style="enable-background:new 0 0 184.3 141.7;" xml:space="preserve">
<style type="text/css">
	.st0{fill:#CC2027;}
	.st1{fill:#EDE3D9;}
	.st2{fill:#262626;}
	.st3{fill:#EDE3D9;stroke:#231F20;stroke-width:0.5;stroke-miterlimit:10;}
	.st4{fill:#EDE3D9;stroke:#262626;stroke-width:0.5;stroke-miterlimit:10;}
	.st5{fill:#EDE3D9;stroke:#231F20;stroke-width:1;stroke-miterlimit:10;}
	.st6{fill:#FDB614;stroke:#231F20;stroke-width:1;stroke-miterlimit:10;}
	.st7{fill:#FDB614;stroke:#262626;stroke-width:1;stroke-miterlimit:10;}
	.st8{fill:#EDE3D9;stroke:#262626;stroke-width:1;stroke-miterlimit:10;}
	.st9{fill:none;stroke:#000000;stroke-width:0.3;stroke-miterlimit:4;}
	.st10{fill:#131313;}
	.st11{fill:#FDB614;stroke:#131313;stroke-width:1;stroke-miterlimit:10;}
	.st12{fill:#EDE3D9;stroke:#131313;stroke-width:1;stroke-miterlimit:10;}
	.st13{fill:#EDE3D9;stroke:#231F20;stroke-miterlimit:10;}
	.st14{fill:#FDB614;stroke:#231F20;stroke-miterlimit:10;}
	.st15{fill:#FDB614;stroke:#262626;stroke-miterlimit:10;}
	.st16{fill:#EDE3D9;stroke:#262626;stroke-miterlimit:10;}
</style>
<symbol  id="TURBORUSS_BACK" viewBox="-146.1 -124.9 292.3 249.7">
	<rect x="-92.1" y="-70.9" class="st0" width="184.3" height="141.7"/>
	<rect x="-87.4" y="-66.1" class="st1" width="174.7" height="132.2"/>
	<path class="st2" d="M86.9-65.6V65.6H-86.9V-65.6H86.9 M87.9-66.6H-87.9V66.6H87.9V-66.6z"/>
	<rect x="-83.1" y="-61.9" class="st0" width="166.2" height="123.7"/>
	<path class="st2" d="M82.6-61.4V61.4H-82.6V-61.4H82.6 M83.6-62.4H-83.6V62.4H83.6V-62.4z"/>
	<g id="Alc-3_1_">
		<path class="st3" d="M67.2,13.7C67.2,13.7,67.2,13.7,67.2,13.7l8.3,0c0,0,0,0,0,0v1.1c0,0,0,0,0,0c0,0,0,0,0,0h-7.1V16
			c0,0,0,0,0,0h-1.2c0,0,0,0,0,0V13.7z"/>
		<path class="st3" d="M68.4,12.5v-1.2h3.6v-1.2h-4.8V8.9h8.3v1.2h-2.4v2.4L68.4,12.5z"/>
		<path class="st3" d="M67.7,7.2c-0.7-0.7-0.7-1.8,0-2.5c0.7-0.7,1.8-0.7,2.5,0c0.7,0.7,0.7,1.8,0,2.5c-0.3,0.3-0.8,0.5-1.3,0.5
			C68.5,7.7,68,7.6,67.7,7.2z M68.5,5.5c-0.2,0.2-0.2,0.6,0,0.8c0.2,0.2,0.6,0.2,0.8,0s0.2-0.6,0-0.8c-0.1-0.1-0.3-0.2-0.4-0.2
			C68.8,5.4,68.7,5.4,68.5,5.5L68.5,5.5z M67.2,3l8.3,2.4V4.2l-8.3-2.4V3z M72.5,2.5c-0.7-0.7-0.7-1.8,0-2.5s1.8-0.7,2.5,0
			c0.7,0.7,0.7,1.8,0,2.5C74.6,2.8,74.2,3,73.7,3C73.2,3,72.8,2.8,72.5,2.5L72.5,2.5z M73.3,0.8c-0.2,0.2-0.2,0.6,0,0.8
			s0.6,0.2,0.8,0c0.2-0.2,0.2-0.6,0-0.8c-0.1-0.1-0.3-0.2-0.4-0.2C73.6,0.6,73.4,0.7,73.3,0.8L73.3,0.8z"/>
		<path class="st3" d="M69.6-7.7v1.2L71.3-6l-1.8,0.6v1.2l3.6-1.2v-1.2L69.6-7.7z"/>
		<path class="st3" d="M68.4-12.5v8.3h-1.2v-8.3H68.4z M70.1-9.4c-0.7-0.7-0.7-1.8,0-2.5c0.7-0.7,1.8-0.7,2.5,0
			c0.7,0.7,0.7,1.8,0,2.5c-0.3,0.3-0.8,0.5-1.3,0.5C70.9-8.9,70.4-9.1,70.1-9.4L70.1-9.4z M75.5-12.5v8.3h-1.2v-8.3H75.5z
			 M70.9-11.1c-0.2,0.2-0.2,0.6,0,0.8s0.6,0.2,0.8,0c0.2-0.2,0.2-0.6,0-0.8c-0.1-0.1-0.3-0.2-0.4-0.2C71.2-11.3,71-11.2,70.9-11.1
			L70.9-11.1z"/>
		<path class="st3" d="M75.5-13.7h-8.3v-1.2h7.1v-1.2h1.2V-13.7z"/>
	</g>
	<g id="ml-3_1_">
		<path class="st4" d="M-74.5,14.6h-1.3v-3.9h1.3l4.5,2.6V12h1.3v1.3h1.9v1.3h-3.6l-4.1-2.4L-74.5,14.6z"/>
		<path class="st4" d="M-72.6,8.9c-0.8-0.8-0.8-2,0-2.7c0.8-0.8,2-0.8,2.7,0c0.8,0.8,0.8,2,0,2.7c-0.4,0.4-0.9,0.6-1.4,0.6
			C-71.8,9.4-72.3,9.2-72.6,8.9z M-71.7,7c-0.2,0.3-0.2,0.7,0,0.9s0.7,0.2,0.9,0s0.2-0.7,0-0.9c-0.1-0.1-0.3-0.2-0.4-0.2
			C-71.4,6.8-71.6,6.9-71.7,7z"/>
		<path class="st4" d="M-72.6,3.7c-0.8-0.8-0.8-2,0-2.7c0.8-0.8,2-0.8,2.7,0c0.8,0.8,0.8,2,0,2.7c-0.4,0.4-0.9,0.6-1.4,0.6
			C-71.8,4.3-72.3,4.1-72.6,3.7z M-71.7,1.9c-0.2,0.3-0.2,0.7,0,0.9c0.3,0.2,0.7,0.2,0.9,0c0.2-0.3,0.2-0.7,0-0.9
			c-0.1-0.1-0.3-0.2-0.4-0.2C-71.4,1.7-71.6,1.8-71.7,1.9L-71.7,1.9z"/>
		<path class="st4" d="M-71.9-5.6v1.3h-3.9v-1.3c0-0.7,0.3-1.3,0.8-1.8c0,0,0.1-0.1,0.1-0.1c0,0-0.1-0.1-0.1-0.1
			c-0.5-0.5-0.8-1.1-0.8-1.8v-1.3h3.9v1.3h-2.6c0,0.7,0.6,1.3,1.3,1.3c0,0,0,0,0,0v1.3c-0.7,0-1.3,0.6-1.3,1.3c0,0,0,0,0,0
			L-71.9-5.6z M-69.3-10.7v6.4h-1.3v-6.4H-69.3z M-66.8-10.7v6.4H-68v-6.4H-66.8z"/>
		<path class="st4" d="M-66.8-12h-9v-1.3h7.7v-1.3h1.3L-66.8-12z"/>
	</g>
	<g id="TypoPathKyr-5_1_">
		<g id="TypoPathKyr-6_1_">
			<path class="st5" d="M-71.6,30.4H-76V26h13.2v4.4h-4.4v4.4h4.4v4.4h-4.4v17.6h-4.4V39.2H-76v-4.4h4.4L-71.6,30.4z"/>
			<path class="st6" d="M-47.1,54.8c-2.6,2.6-6.7,2.6-9.3,0c-1.2-1.2-1.9-2.9-1.9-4.7h4.4c0,1.2,1,2.2,2.2,2.2c1.2,0,2.2-1,2.2-2.2
				v-4.7c-0.7,0.2-1.5,0.4-2.2,0.4c-3.6,0-6.6-3-6.6-6.6V26h4.4v13.2c0,1.2,1,2.2,2.2,2.2c1.2,0,2.2-1,2.2-2.2V26h4.4v24.2
				C-45.2,51.9-45.9,53.6-47.1,54.8z"/>
			<path class="st5" d="M-32,43.5v4.4h-4.4v8.8h-4.4V32.6c0-3.6,3-6.6,6.6-6.6s6.6,3,6.6,6.6c0,3.6-2.9,6.6-6.6,6.6
				c-0.7,0-1.5-0.1-2.2-0.4v4.7H-32z M-32.7,31c-0.9-0.8-2.2-0.8-3.1,0s-0.8,2.2,0,3.1c0.9,0.8,2.2,0.8,3.1,0c0.4-0.4,0.6-1,0.6-1.5
				C-32,32-32.3,31.4-32.7,31z"/>
			<path class="st5" d="M-16.6,43.5c3.6,0,6.6,3,6.6,6.6c0,3.6-3,6.6-6.6,6.6c-3.6,0-6.6-2.9-6.6-6.6V26h13.2v4.4h-8.8v13.5
				C-18.1,43.7-17.4,43.5-16.6,43.5z M-18.2,48.6c-0.8,0.9-0.8,2.2,0,3.1c0.9,0.8,2.2,0.8,3.1,0c0.8-0.9,0.8-2.2,0-3.1
				c-0.4-0.4-1-0.6-1.5-0.6C-17.2,47.9-17.8,48.2-18.2,48.6L-18.2,48.6z"/>
			<path class="st5" d="M-3.7,36.7c2.6-2.6,6.7-2.6,9.3,0s2.6,6.7,0,9.3c-2.6,2.6-6.7,2.6-9.3,0c-1.2-1.2-1.9-2.9-1.9-4.6
				C-5.7,39.6-5,37.9-3.7,36.7z M2.5,39.8c-0.9-0.8-2.2-0.8-3.1,0s-0.8,2.2,0,3.1s2.2,0.8,3.1,0c0.4-0.4,0.6-1,0.6-1.5
				C3.1,40.8,2.9,40.2,2.5,39.8L2.5,39.8z"/>
			<path class="st5" d="M20.7,43.5v4.4h-4.4v8.8h-4.4V32.6c0-3.6,3-6.6,6.6-6.6c3.6,0,6.6,3,6.6,6.6c0,3.6-2.9,6.6-6.6,6.6
				c-0.7,0-1.5-0.1-2.2-0.4v4.7H20.7z M20.1,31c-0.9-0.8-2.2-0.8-3.1,0s-0.8,2.2,0,3.1s2.2,0.8,3.1,0c0.4-0.4,0.6-1,0.6-1.5
				C20.7,32,20.5,31.4,20.1,31L20.1,31z"/>
			<path class="st6" d="M40.7,54.8c-2.6,2.6-6.7,2.6-9.3,0c-1.2-1.2-1.9-2.9-1.9-4.7h4.4c0,1.2,1,2.2,2.2,2.2c1.2,0,2.2-1,2.2-2.2
				v-4.7c-0.7,0.2-1.5,0.4-2.2,0.4c-3.6,0-6.6-3-6.6-6.6V26h4.4v13.2c0,1.2,1,2.2,2.2,2.2c1.2,0,2.2-1,2.2-2.2V26h4.4v24.2
				C42.7,51.9,42,53.6,40.7,54.8z"/>
			<path class="st5" d="M49,27.9c2.6-2.6,6.7-2.6,9.3,0c1.2,1.2,1.9,2.9,1.9,4.7h-4.4c0-1.2-1-2.2-2.2-2.2c-1.2,0-2.2,1-2.2,2.2
				v17.6c0,1.2,1,2.2,2.2,2.2c1.2,0,2.2-1,2.2-2.2h4.4c0,3.6-3,6.6-6.6,6.6c-3.6,0-6.6-3-6.6-6.6V32.6C47,30.8,47.7,29.1,49,27.9z"
				/>
			<path class="st5" d="M66.6,27.9c2.6-2.6,6.7-2.6,9.3,0c1.2,1.2,1.9,2.9,1.9,4.7h-4.4c0-1.2-1-2.2-2.2-2.2c-1.2,0-2.2,1-2.2,2.2
				v17.6c0,1.2,1,2.2,2.2,2.2c1.2,0,2.2-1,2.2-2.2h4.4c0,3.6-3,6.6-6.6,6.6c-3.6,0-6.6-3-6.6-6.6V32.6
				C64.6,30.8,65.3,29.1,66.6,27.9z"/>
			<rect x="-5.7" y="26" class="st6" width="13.2" height="4.4"/>
			<rect x="-5.7" y="52.3" class="st6" width="13.2" height="4.4"/>
		</g>
		<g id="TypoPathKyr-7_1_">
			<path class="st6" d="M-73.5,28.5h-4.4v-4.4h13.2v4.4h-4.4v4.4h4.4v4.4h-4.4v17.6h-4.4V37.3h-4.4v-4.4h4.4V28.5z"/>
			<path class="st5" d="M-49,52.9c-2.6,2.6-6.7,2.6-9.3,0c-1.2-1.2-1.9-2.9-1.9-4.7h4.4c0,1.2,1,2.2,2.2,2.2c1.2,0,2.2-1,2.2-2.2
				v-4.7c-0.7,0.2-1.5,0.4-2.2,0.4c-3.6,0-6.6-3-6.6-6.6V24.1h4.4v13.2c0,1.2,1,2.2,2.2,2.2c1.2,0,2.2-1,2.2-2.2V24.1h4.4v24.2
				C-47.1,50-47.8,51.7-49,52.9z"/>
			<path class="st6" d="M-33.9,41.7V46h-4.4v8.8h-4.4V30.7c0-3.6,3-6.6,6.6-6.6s6.6,3,6.6,6.6c0,3.6-2.9,6.6-6.6,6.6
				c-0.7,0-1.5-0.1-2.2-0.4v4.7H-33.9z M-34.6,29.1c-0.9-0.8-2.2-0.8-3.1,0c-0.8,0.9-0.8,2.2,0,3.1s2.2,0.8,3.1,0
				c0.4-0.4,0.6-1,0.6-1.5C-33.9,30.1-34.1,29.5-34.6,29.1z"/>
			<path class="st6" d="M-18.5,41.7c3.6,0,6.6,3,6.6,6.6c0,3.6-3,6.6-6.6,6.6c-3.6,0-6.6-2.9-6.6-6.6V24.1h13.2v4.4h-8.8V42
				C-20,41.8-19.3,41.6-18.5,41.7z M-20.1,46.7c-0.8,0.9-0.8,2.2,0,3.1s2.2,0.8,3.1,0s0.8-2.2,0-3.1c-0.4-0.4-1-0.6-1.5-0.6
				C-19.1,46-19.7,46.3-20.1,46.7z"/>
			<path class="st6" d="M-5.6,34.8c2.6-2.6,6.7-2.6,9.3,0s2.6,6.7,0,9.3s-6.7,2.6-9.3,0c-1.2-1.2-1.9-2.9-1.9-4.6
				C-7.6,37.7-6.9,36-5.6,34.8z M0.6,37.9c-0.9-0.8-2.2-0.8-3.1,0s-0.8,2.2,0,3.1c0.9,0.8,2.2,0.8,3.1,0c0.4-0.4,0.6-1,0.6-1.5
				C1.2,38.9,1,38.3,0.6,37.9z"/>
			<path class="st6" d="M18.8,41.7V46h-4.4v8.8H10V30.7c0-3.6,3-6.6,6.6-6.6c3.6,0,6.6,3,6.6,6.6c0,3.6-2.9,6.6-6.6,6.6
				c-0.7,0-1.5-0.1-2.2-0.4v4.7H18.8z M18.2,29.1c-0.9-0.8-2.2-0.8-3.1,0s-0.8,2.2,0,3.1c0.9,0.8,2.2,0.8,3.1,0
				c0.4-0.4,0.6-1,0.6-1.5C18.8,30.1,18.6,29.5,18.2,29.1z"/>
			<path class="st5" d="M38.8,52.9c-2.6,2.6-6.7,2.6-9.3,0c-1.2-1.2-1.9-2.9-1.9-4.7H32c0,1.2,1,2.2,2.2,2.2c1.2,0,2.2-1,2.2-2.2
				v-4.7c-0.7,0.2-1.5,0.4-2.2,0.4c-3.6,0-6.6-3-6.6-6.6V24.1H32v13.2c0,1.2,1,2.2,2.2,2.2c1.2,0,2.2-1,2.2-2.2V24.1h4.4v24.2
				C40.8,50,40.1,51.7,38.8,52.9z"/>
			<path class="st6" d="M47.1,26c2.6-2.6,6.7-2.6,9.3,0c1.2,1.2,1.9,2.9,1.9,4.7H54c0-1.2-1-2.2-2.2-2.2c-1.2,0-2.2,1-2.2,2.2v17.6
				c0,1.2,1,2.2,2.2,2.2c1.2,0,2.2-1,2.2-2.2h4.4c0,3.6-3,6.6-6.6,6.6c-3.6,0-6.6-3-6.6-6.6V30.7C45.1,28.9,45.8,27.2,47.1,26z"/>
			<path class="st6" d="M64.7,26c2.6-2.6,6.7-2.6,9.3,0c1.2,1.2,1.9,2.9,1.9,4.7h-4.4c0-1.2-1-2.2-2.2-2.2c-1.2,0-2.2,1-2.2,2.2
				v17.6c0,1.2,1,2.2,2.2,2.2c1.2,0,2.2-1,2.2-2.2h4.4c0,3.6-3,6.6-6.6,6.6c-3.6,0-6.6-3-6.6-6.6V30.7C62.7,28.9,63.4,27.2,64.7,26z
				"/>
			<rect x="-7.6" y="50.4" class="st5" width="13.2" height="4.4"/>
			<rect x="-7.6" y="24.1" class="st5" width="13.2" height="4.4"/>
		</g>
	</g>
	<g id="TypoPathLat-3_1_">
		<path class="st7" d="M-75.9-50.5v-4.4h13.2v4.4h-4.4v26.4h-4.4v-26.4H-75.9z"/>
		<path class="st8" d="M-58.4-54.9h4.4v24.2c0,1.2,1,2.2,2.2,2.2c1.2,0,2.2-1,2.2-2.2v-24.2h4.4v24.2c0,3.6-2.9,6.6-6.6,6.6
			c-3.6,0-6.6-2.9-6.6-6.6l0,0L-58.4-54.9z"/>
		<path class="st7" d="M-38.9-53c2.6-2.6,6.7-2.6,9.3,0s2.6,6.7,0,9.3c-1.2,1.2-2.9,1.9-4.6,1.9c-0.7,0-1.5-0.1-2.2-0.4v9.1
			c4.8,0,8.8,3.9,8.8,8.8c0,0,0,0,0,0H-32c0-2.4-2-4.4-4.4-4.4c0,0,0,0,0,0v4.4h-4.4v-24.2C-40.8-50.1-40.1-51.7-38.9-53z
			 M-32.7-49.9c-0.9-0.8-2.2-0.8-3.1,0c-0.8,0.9-0.8,2.2,0,3.1c0.9,0.8,2.2,0.8,3.1,0c0.4-0.4,0.6-1,0.6-1.5
			C-32-48.9-32.2-49.5-32.7-49.9L-32.7-49.9z"/>
		<path class="st7" d="M-14.2-53c2.6,2.6,2.6,6.7,0,9.3c-1.2,1.2-2.9,1.9-4.7,1.9c4.9,0,8.8,3.9,8.8,8.8c0,4.9-3.9,8.8-8.8,8.8
			c0,0,0,0,0,0h-4.4v-30.7h4.4C-17.1-54.9-15.4-54.2-14.2-53z M-17.3-46.8c0.9-0.9,0.9-2.3,0-3.1c-0.4-0.4-1-0.6-1.5-0.6v4.4
			C-18.2-46.1-17.7-46.3-17.3-46.8L-17.3-46.8z M-15.7-29.8c1.7-1.7,1.7-4.5,0-6.2c-0.8-0.8-1.9-1.3-3.1-1.3v8.8
			C-17.7-28.5-16.5-29-15.7-29.8L-15.7-29.8z"/>
		<path class="st7" d="M-3.7-44.2c2.6-2.6,6.7-2.6,9.3,0s2.6,6.7,0,9.3c-2.6,2.6-6.7,2.6-9.3,0c-1.2-1.2-1.9-2.9-1.9-4.6
			C-5.7-41.3-5-43-3.7-44.2z M2.5-41.1c-0.9-0.8-2.2-0.8-3.1,0c-0.8,0.9-0.8,2.2,0,3.1c0.9,0.8,2.2,0.8,3.1,0c0.4-0.4,0.6-1,0.6-1.5
			C3.1-40.1,2.9-40.7,2.5-41.1L2.5-41.1z"/>
		<path class="st7" d="M13.9-53c2.6-2.6,6.7-2.6,9.3,0s2.6,6.7,0,9.3c-1.2,1.2-2.9,1.9-4.6,1.9c-0.7,0-1.5-0.1-2.2-0.4v9.1
			c4.8,0,8.8,3.9,8.8,8.8c0,0,0,0,0,0h-4.4c0-2.4-2-4.4-4.4-4.4c0,0,0,0,0,0v4.4h-4.4v-24.2C11.9-50.1,12.6-51.7,13.9-53z
			 M20.1-49.9c-0.9-0.8-2.2-0.8-3.1,0c-0.8,0.9-0.8,2.2,0,3.1s2.2,0.8,3.1,0c0.4-0.4,0.6-1,0.6-1.5C20.7-48.9,20.5-49.5,20.1-49.9
			L20.1-49.9z"/>
		<path class="st8" d="M29.5-54.9h4.4v24.2c0,1.2,1,2.2,2.2,2.2c1.2,0,2.2-1,2.2-2.2v-24.2h4.4v24.2c0,3.6-3,6.6-6.6,6.6
			c-3.6,0-6.6-2.9-6.6-6.6L29.5-54.9z"/>
		<path class="st7" d="M49-53c2.6-2.6,6.7-2.6,9.3,0c1.2,1.2,1.9,2.9,1.9,4.7h-4.4c0-1.2-1-2.2-2.2-2.2c-1.2,0-2.2,1-2.2,2.2
			c0,1.2,1,2.2,2.2,2.2c3.6,0,6.6,3,6.6,6.6s-3,6.6-6.6,6.6c-3.6,0-6.6-2.9-6.6-6.6h4.4c0,1.2,1,2.2,2.2,2.2c1.2,0,2.2-1,2.2-2.2
			c0-1.2-1-2.2-2.2-2.2c-3.6,0-6.6-2.9-6.6-6.6C47.1-50.1,47.8-51.7,49-53z"/>
		<path class="st7" d="M66.6-53c2.6-2.6,6.7-2.6,9.3,0c1.2,1.2,1.9,2.9,1.9,4.7h-4.4c0-1.2-1-2.2-2.2-2.2c-1.2,0-2.2,1-2.2,2.2
			c0,1.2,1,2.2,2.2,2.2c3.6,0,6.6,3,6.6,6.6s-3,6.6-6.6,6.6c-3.6,0-6.6-2.9-6.6-6.6h4.4c0,1.2,1,2.2,2.2,2.2c1.2,0,2.2-1,2.2-2.2
			c0-1.2-1-2.2-2.2-2.2c-3.6,0-6.6-2.9-6.6-6.6C64.7-50.1,65.4-51.7,66.6-53z"/>
		<rect x="-5.6" y="-54.9" class="st8" width="13.2" height="4.4"/>
		<rect x="47.1" y="-28.5" class="st8" width="13.2" height="4.4"/>
		<rect x="64.7" y="-28.5" class="st8" width="13.2" height="4.4"/>
		<rect x="-5.6" y="-28.5" class="st8" width="13.2" height="4.4"/>
		<path class="st8" d="M-77.9-52.4v-4.4h13.2v4.4h-4.4v26.4h-4.4v-26.4H-77.9z"/>
		<path class="st7" d="M-60.3-56.8h4.4v24.2c0,1.2,1,2.2,2.2,2.2c1.2,0,2.2-1,2.2-2.2v-24.2h4.4v24.2c0,3.6-2.9,6.6-6.6,6.6
			c-3.6,0-6.6-2.9-6.6-6.6l0,0V-56.8z"/>
		<path class="st8" d="M-40.8-54.9c2.6-2.6,6.7-2.6,9.3,0c2.6,2.6,2.6,6.7,0,9.3c-1.2,1.2-2.9,1.9-4.6,1.9c-0.7,0-1.5-0.1-2.2-0.4
			v9.1c4.8,0,8.8,3.9,8.8,8.8c0,0,0,0,0,0h-4.4c0-2.4-2-4.4-4.4-4.4c0,0,0,0,0,0v4.4h-4.4v-24.2C-42.7-52-42-53.7-40.8-54.9z
			 M-34.6-51.8c-0.9-0.8-2.2-0.8-3.1,0c-0.8,0.9-0.8,2.2,0,3.1c0.9,0.8,2.2,0.8,3.1,0c0.4-0.4,0.6-1,0.6-1.5
			C-33.9-50.8-34.2-51.4-34.6-51.8z"/>
		<path class="st8" d="M-16.1-54.9c2.6,2.6,2.6,6.7,0,9.3c-1.2,1.2-2.9,1.9-4.7,1.9c4.9,0,8.8,3.9,8.8,8.8c0,4.9-3.9,8.8-8.8,8.8
			c0,0,0,0,0,0h-4.4v-30.7h4.4C-19-56.9-17.3-56.2-16.1-54.9z M-19.2-48.7c0.9-0.9,0.9-2.3,0-3.1c-0.4-0.4-1-0.6-1.5-0.6v4.4
			C-20.2-48-19.6-48.3-19.2-48.7z M-17.6-31.8c1.7-1.7,1.7-4.5,0-6.2c-0.8-0.8-1.9-1.3-3.1-1.3v8.8C-19.6-30.4-18.5-30.9-17.6-31.8
			L-17.6-31.8z"/>
		<path class="st8" d="M-5.6-46.1c2.6-2.6,6.7-2.6,9.3,0c2.6,2.6,2.6,6.7,0,9.3c-2.6,2.6-6.7,2.6-9.3,0c-1.2-1.2-1.9-2.9-1.9-4.6
			C-7.6-43.2-6.9-44.9-5.6-46.1z M0.6-43c-0.9-0.8-2.2-0.8-3.1,0c-0.8,0.9-0.8,2.2,0,3.1c0.9,0.8,2.2,0.8,3.1,0
			c0.4-0.4,0.6-1,0.6-1.5C1.2-42,1-42.6,0.6-43L0.6-43z"/>
		<path class="st8" d="M11.9-54.9c2.6-2.6,6.7-2.6,9.3,0s2.6,6.7,0,9.3c-1.2,1.2-2.9,1.9-4.6,1.9c-0.7,0-1.5-0.1-2.2-0.4v9.1
			c4.8,0,8.8,3.9,8.8,8.8c0,0,0,0,0,0h-4.4c0-2.4-2-4.4-4.4-4.4c0,0,0,0,0,0v4.4H10v-24.2C10-52,10.7-53.7,11.9-54.9z M18.1-51.8
			c-0.9-0.8-2.2-0.8-3.1,0c-0.8,0.9-0.8,2.2,0,3.1c0.9,0.8,2.2,0.8,3.1,0c0.4-0.4,0.6-1,0.6-1.5C18.8-50.8,18.6-51.4,18.1-51.8z"/>
		<path class="st7" d="M27.6-56.8H32v24.2c0,1.2,1,2.2,2.2,2.2c1.2,0,2.2-1,2.2-2.2v-24.2h4.4v24.2c0,3.6-3,6.6-6.6,6.6
			c-3.6,0-6.6-2.9-6.6-6.6V-56.8z"/>
		<path class="st8" d="M47.1-54.9c2.6-2.6,6.7-2.6,9.3,0c1.2,1.2,1.9,2.9,1.9,4.7h-4.4c0-1.2-1-2.2-2.2-2.2c-1.2,0-2.2,1-2.2,2.2
			c0,1.2,1,2.2,2.2,2.2c3.6,0,6.6,3,6.6,6.6c0,3.6-3,6.6-6.6,6.6c-3.6,0-6.6-2.9-6.6-6.6h4.4c0,1.2,1,2.2,2.2,2.2
			c1.2,0,2.2-1,2.2-2.2c0-1.2-1-2.2-2.2-2.2c-3.6,0-6.6-2.9-6.6-6.6C45.1-52,45.8-53.7,47.1-54.9z"/>
		<path class="st8" d="M64.7-54.9c2.6-2.6,6.7-2.6,9.3,0c1.2,1.2,1.9,2.9,1.9,4.7h-4.4c0-1.2-1-2.2-2.2-2.2c-1.2,0-2.2,1-2.2,2.2
			c0,1.2,1,2.2,2.2,2.2c3.6,0,6.6,3,6.6,6.6s-3,6.6-6.6,6.6c-3.6,0-6.6-2.9-6.6-6.6h4.4c0,1.2,1,2.2,2.2,2.2c1.2,0,2.2-1,2.2-2.2
			c0-1.2-1-2.2-2.2-2.2c-3.6,0-6.6-2.9-6.6-6.6C62.8-52,63.4-53.7,64.7-54.9L64.7-54.9z"/>
		<rect x="-7.6" y="-56.8" class="st7" width="13.2" height="4.4"/>
		<rect x="45.1" y="-30.5" class="st7" width="13.2" height="4.4"/>
		<rect x="62.8" y="-30.5" class="st7" width="13.2" height="4.4"/>
		<rect x="-7.6" y="-30.5" class="st7" width="13.2" height="4.4"/>
	</g>
	<rect x="-60.4" y="-19.3" class="st1" width="120.9" height="38.7"/>
	<path class="st2" d="M59.9-18.8v37.7H-59.9v-37.7H59.9 M60.9-19.8H-60.9v39.7H60.9V-19.8z"/>
	<rect x="-57.6" y="-16.5" class="st0" width="115.2" height="33"/>
	<path class="st2" d="M57.1-16v32H-57.1v-32H57.1 M58.1-17H-58.1v34H58.1V-17z"/>
	<path class="st3" d="M-49.6-6.2c-1,0.9-2.4,0.8-3.3-0.2c-0.4-0.5-0.6-1.1-0.6-1.7c0-0.6,0.3-1.2,0.8-1.6c0.5-0.4,1.1-0.6,1.7-0.6
		c0.6,0,1.2,0.3,1.6,0.8l0,0l2.5,2.9l-1.2,1l-1.1-1.2C-49.3-6.6-49.4-6.4-49.6-6.2z M-51.2-7.2c0.2,0,0.4-0.1,0.6-0.2
		c0.2-0.1,0.2-0.3,0.3-0.5c0-0.2-0.1-0.4-0.2-0.6l0,0c-0.1-0.2-0.3-0.3-0.5-0.3c-0.2,0-0.4,0.1-0.6,0.2c-0.3,0.3-0.4,0.8-0.1,1.1
		c0,0,0,0,0,0C-51.6-7.3-51.4-7.2-51.2-7.2z"/>
	<path class="st3" d="M-44.2-12.8c0.9-0.9,2.4-0.9,3.3,0c0.9,0.9,0.9,2.4,0,3.3c-0.4,0.4-1,0.7-1.7,0.7c-0.3,0-0.5,0-0.8-0.1v6.4
		h-1.6v-8.6C-44.9-11.7-44.7-12.3-44.2-12.8z M-42-11.6c-0.3-0.3-0.8-0.3-1.1,0c-0.3,0.3-0.3,0.8,0,1.1c0.3,0.3,0.8,0.3,1.1,0
		c0.1-0.1,0.2-0.3,0.2-0.5C-41.8-11.3-41.9-11.5-42-11.6L-42-11.6z"/>
	<path class="st3" d="M-34.8-11.9h-1.6v1.6h1.6v1.6h-1.6v6.2h-1.6v-10.9h3.1V-11.9z"/>
	<path class="st3" d="M-29.3-11.9h-1.6v1.6h1.6v1.6h-1.6v4.7h1.6v1.6h-3.1v-10.9h3.1V-11.9z"/>
	<path class="st3" d="M-26.9-2.5v-10.9h1.6v9.4h1.6v1.6H-26.9z"/>
	<path class="st3" d="M-20.7-12.8c0.9-0.9,2.4-0.9,3.3,0c0.4,0.4,0.7,1,0.7,1.7h-1.6c0-0.4-0.4-0.8-0.8-0.8s-0.8,0.4-0.8,0.8
		c0,0.4,0.3,0.8,0.8,0.8c1.3,0,2.3,1.1,2.3,2.3c0,1.3-1.1,2.3-2.3,2.3c-1.3,0-2.3-1-2.3-2.3h1.6c0,0.4,0.4,0.8,0.8,0.8
		s0.8-0.4,0.8-0.8c0-0.4-0.3-0.8-0.8-0.8c-1.3,0-2.3-1-2.3-2.3C-21.4-11.7-21.2-12.3-20.7-12.8L-20.7-12.8z"/>
	<path class="st3" d="M-10.4-6.2c-1,0.9-2.4,0.8-3.3-0.2c-0.4-0.5-0.6-1.1-0.6-1.7c0-0.6,0.3-1.2,0.8-1.6c0.5-0.4,1.1-0.6,1.7-0.6
		c0.6,0,1.2,0.3,1.6,0.8l0,0l2.5,2.9l-1.2,1L-10-6.8C-10.1-6.6-10.3-6.4-10.4-6.2z M-12.1-7.2c0.2,0,0.4-0.1,0.6-0.2
		c0.2-0.1,0.2-0.3,0.3-0.5c0-0.2-0.1-0.4-0.2-0.6l0,0c-0.1-0.2-0.3-0.3-0.5-0.3c-0.2,0-0.4,0.1-0.6,0.2c-0.3,0.3-0.4,0.8-0.1,1.1
		c0,0,0,0,0,0C-12.5-7.3-12.3-7.2-12.1-7.2z"/>
	<path class="st3" d="M-2.6-11.9h-1.6v1.6h1.6v1.6h-1.6v6.2h-1.6v-10.9h3.1V-11.9z"/>
	<path class="st3" d="M-0.3-11.9v-1.6h4.7v1.6H2.9v9.4H1.3v-9.4H-0.3z"/>
	<path class="st3" d="M14.6-8l0.8,2.3H17l1.6-4.7H17L16.2-8l-0.8-2.3h-1.6L13.1-8l-0.8-2.3h-1.6l1.6,4.7h1.6L14.6-8z"/>
	<path class="st3" d="M24.8-6.2c-1,0.9-2.4,0.8-3.3-0.2c-0.4-0.5-0.6-1.1-0.6-1.7c0-0.6,0.3-1.2,0.8-1.6c0.5-0.4,1.1-0.6,1.7-0.6
		c0.6,0,1.2,0.3,1.6,0.8l0,0l2.5,2.9l-1.2,1l-1.1-1.2C25.2-6.6,25-6.4,24.8-6.2z M23.2-7.2c0.2,0,0.4-0.1,0.6-0.2
		C23.9-7.5,24-7.7,24-7.9c0-0.2-0.1-0.4-0.2-0.6l0,0c-0.1-0.2-0.3-0.3-0.5-0.3c-0.2,0-0.4,0.1-0.6,0.2c-0.3,0.3-0.4,0.8-0.1,1.1
		c0,0,0,0,0,0C22.8-7.3,23-7.2,23.2-7.2z"/>
	<path class="st3" d="M30.2-12.8c0.9-0.9,2.4-0.9,3.3,0c0.4,0.4,0.7,1,0.7,1.7h-1.6c0-0.4-0.4-0.8-0.8-0.8s-0.8,0.4-0.8,0.8
		c0,0.4,0.3,0.8,0.8,0.8c1.3,0,2.3,1.1,2.3,2.3c0,1.3-1.1,2.3-2.3,2.3c-1.3,0-2.3-1-2.3-2.3h1.6c0,0.4,0.4,0.8,0.8,0.8
		s0.8-0.4,0.8-0.8c0-0.4-0.3-0.8-0.8-0.8c-1.3,0-2.3-1-2.3-2.3C29.5-11.7,29.8-12.3,30.2-12.8z"/>
	<path class="st3" d="M37.3-12.8c0.9-0.9,2.4-0.9,3.3,0c0.4,0.4,0.7,1,0.7,1.7h-1.6c0-0.4-0.4-0.8-0.8-0.8s-0.8,0.4-0.8,0.8
		c0,0.4,0.3,0.8,0.8,0.8c1.3,0,2.3,1.1,2.3,2.3c0,1.3-1.1,2.3-2.3,2.3c-1.3,0-2.3-1-2.3-2.3h1.6c0,0.4,0.4,0.8,0.8,0.8
		s0.8-0.4,0.8-0.8c0-0.4-0.3-0.8-0.8-0.8c-1.3,0-2.3-1-2.3-2.3C36.6-11.7,36.8-12.3,37.3-12.8z"/>
	<path class="st3" d="M46.8-11.9h-1.6v1.6h1.6v1.6h-1.6v4.7h1.6v1.6h-3.1v-10.9h3.1V-11.9z"/>
	<path class="st3" d="M49.8-12.8c0.9-0.9,2.4-0.9,3.3,0c0.9,0.9,0.9,2.4,0,3.3c-0.4,0.4-1,0.7-1.7,0.7c-0.3,0-0.5,0-0.8-0.1v3.2
		c1.7,0,3.1,1.4,3.1,3.1c0,0,0,0,0,0h-1.6c0-0.9-0.7-1.6-1.6-1.6c0,0,0,0,0,0v1.6h-1.6v-8.6C49.1-11.7,49.4-12.3,49.8-12.8z
		 M52-11.6c-0.3-0.3-0.8-0.3-1.1,0c-0.3,0.3-0.3,0.8,0,1.1s0.8,0.3,1.1,0c0.1-0.1,0.2-0.3,0.2-0.5C52.3-11.3,52.2-11.5,52-11.6
		L52-11.6z"/>
	<path class="st3" d="M-48.9,5.7h-1.6L-51.2,8L-52,5.7h-1.6l1.6,4.7h1.6L-48.9,5.7z"/>
	<path class="st3" d="M-46.1,6.4c0.9-0.9,2.4-0.9,3.3,0c0.9,0.9,0.9,2.4,0,3.3c-0.9,0.9-2.4,0.9-3.3,0c-0.4-0.4-0.7-1-0.7-1.7
		C-46.8,7.4-46.6,6.8-46.1,6.4z M-43.9,7.5c-0.3-0.3-0.8-0.3-1.1,0c-0.3,0.3-0.3,0.8,0,1.1c0.3,0.3,0.8,0.3,1.1,0
		c0.1-0.1,0.2-0.3,0.2-0.5C-43.7,7.8-43.8,7.6-43.9,7.5L-43.9,7.5z"/>
	<path class="st3" d="M-36.1,3.2c0.4,0.4,0.7,1,0.7,1.7v6.2c0,1.3-1.1,2.3-2.3,2.3h-2.3V2.6h2.3C-37.1,2.6-36.5,2.8-36.1,3.2z
		 M-37.2,4.4c-0.1-0.1-0.3-0.2-0.6-0.2h-0.8v7.8h0.8c0.4,0,0.8-0.4,0.8-0.8V4.9C-37,4.7-37.1,4.5-37.2,4.4z"/>
	<path class="st3" d="M-30.7,7.7c-0.3-0.3-0.7-0.5-1.1-0.5v6.3h-1.6V2.6h1.6v1.6c0.9,0,1.6-0.7,1.6-1.6c0,0,0,0,0,0h1.6
		c0,1.6-1.2,3-2.8,3.1c0.7,0.1,1.4,0.4,1.9,0.9c0.6,0.6,0.9,1.4,0.9,2.2v4.7h-1.6V8.8C-30.3,8.4-30.4,8-30.7,7.7z"/>
	<path class="st3" d="M-22.8,9.8c-1,0.9-2.4,0.8-3.3-0.2c-0.4-0.5-0.6-1.1-0.6-1.7c0-0.6,0.3-1.2,0.8-1.6c0.5-0.4,1.1-0.6,1.7-0.6
		c0.6,0,1.2,0.3,1.6,0.8l0,0l2.5,2.9l-1.2,1l-1.1-1.2C-22.4,9.4-22.6,9.6-22.8,9.8z M-24.4,8.8c0.2,0,0.4-0.1,0.6-0.2
		c0.2-0.1,0.2-0.3,0.3-0.5c0-0.2-0.1-0.4-0.2-0.6l0,0c-0.1-0.2-0.3-0.3-0.5-0.3c-0.2,0-0.4,0.1-0.6,0.2c-0.3,0.3-0.4,0.8-0.1,1.1
		c0,0,0,0,0,0C-24.8,8.7-24.6,8.8-24.4,8.8z"/>
	<path class="st3" d="M-14.8,2.6h1.6v8.6c0,0.4,0.4,0.8,0.8,0.8c0.4,0,0.8-0.3,0.8-0.8V2.6h1.6v8.6c0,1.3-1,2.3-2.3,2.3
		s-2.3-1-2.3-2.3l0,0V2.6z"/>
	<path class="st3" d="M-6.5,13.5h-1.6V2.6h1.6v0.9L-5,5V2.6h1.6v10.9H-5V7.2l-1.6-1.6V13.5z"/>
	<path class="st3" d="M2.6,3.2c0.4,0.4,0.7,1,0.7,1.7v6.2c0,1.3-1.1,2.3-2.3,2.3h-2.3V2.6h2.3C1.6,2.6,2.2,2.8,2.6,3.2z M1.5,4.4
		C1.4,4.2,1.2,4.1,0.9,4.1H0.2v7.8h0.8c0.4,0,0.8-0.4,0.8-0.8V4.9C1.7,4.7,1.6,4.5,1.5,4.4L1.5,4.4z"/>
	<path class="st3" d="M10.7,11.7c0.3,0.3,0.8,0.3,1.1,0c0.1-0.1,0.2-0.3,0.2-0.5h1.6c0,1.3-1,2.3-2.3,2.3s-2.3-1-2.3-2.3l0,0V8h1.6
		c0,0.4,0.4,0.8,0.8,0.8C11.7,8.8,12,8.5,12,8c0-0.4-0.3-0.8-0.8-0.8c-1.3,0-2.3-1.1-2.3-2.3c0-1.3,1.1-2.3,2.3-2.3
		c1.3,0,2.3,1,2.3,2.3c0,0.6-0.2,1.1-0.6,1.6c0.4,0.4,0.6,1,0.6,1.6c0,1.3-1.1,2.3-2.3,2.3c-0.3,0-0.5,0-0.8-0.1v0.9
		C10.5,11.4,10.6,11.6,10.7,11.7z M11.8,4.4c-0.3-0.3-0.8-0.3-1.1,0c-0.3,0.3-0.3,0.8,0,1.1s0.8,0.3,1.1,0C12,5.3,12,5.1,12,4.9
		C12,4.7,12,4.5,11.8,4.4z"/>
	<path class="st3" d="M18.7,4.1h-1.6v1.6h1.6v1.6h-1.6v4.7h1.6v1.6h-3.1V2.6h3.1V4.1z"/>
	<path class="st3" d="M24.7,8l0.8,2.3H27l1.6-4.7H27L26.2,8l-0.8-2.3h-1.6L23.1,8l-0.8-2.3h-1.6l1.6,4.7h1.6L24.7,8z"/>
	<path class="st3" d="M30.6,2.6h1.6v8.6c0,0.4,0.4,0.8,0.8,0.8c0.4,0,0.8-0.3,0.8-0.8V2.6h1.6v8.6c0,1.3-1,2.3-2.3,2.3
		s-2.3-1-2.3-2.3l0,0V2.6z"/>
	<path class="st3" d="M40.5,4.1h-1.6v1.6h1.6v1.6h-1.6v4.7h1.6v1.6h-3.1V2.6h3.1V4.1z"/>
	<path class="st3" d="M43.2,3.2c0.9-0.9,2.4-0.9,3.3,0c0.9,0.9,0.9,2.4,0,3.3c-0.4,0.4-1,0.7-1.7,0.7c-0.3,0-0.5,0-0.8-0.1v3.2
		c1.7,0,3.1,1.4,3.1,3.1c0,0,0,0,0,0h-1.6c0-0.9-0.7-1.6-1.6-1.6c0,0,0,0,0,0v1.6h-1.6V4.9C42.5,4.3,42.7,3.7,43.2,3.2z M45.4,4.4
		c-0.3-0.3-0.8-0.3-1.1,0c-0.3,0.3-0.3,0.8,0,1.1s0.8,0.3,1.1,0c0.1-0.1,0.2-0.3,0.2-0.5C45.6,4.7,45.5,4.5,45.4,4.4L45.4,4.4z"/>
	<path class="st3" d="M49.2,4.1V2.6h4.7v1.6L51,8.8h2.9v1.6h-4.7V8.8l2.9-4.7H49.2z"/>
	<rect x="-53.5" y="-13.4" class="st3" width="6.2" height="1.6"/>
	<rect x="-53.5" y="-4.1" class="st3" width="6.2" height="1.6"/>
	<rect x="-21.4" y="-4.1" class="st3" width="13.3" height="1.6"/>
	<rect x="-14.4" y="-13.4" class="st3" width="6.2" height="1.6"/>
	<rect x="10.7" y="-13.4" class="st3" width="16.4" height="1.6"/>
	<rect x="10.7" y="-4.1" class="st3" width="30.5" height="1.6"/>
	<rect x="-53.5" y="2.6" class="st3" width="11.4" height="1.6"/>
	<rect x="-53.5" y="11.9" class="st3" width="11.4" height="1.6"/>
	<rect x="-26.7" y="2.6" class="st3" width="6.2" height="1.6"/>
	<rect x="-26.7" y="11.9" class="st3" width="6.2" height="1.6"/>
	<rect x="20.8" y="2.6" class="st3" width="7.8" height="1.6"/>
	<rect x="20.8" y="11.9" class="st3" width="7.8" height="1.6"/>
	<rect x="49.2" y="11.9" class="st3" width="4.7" height="1.6"/>
	<line class="st9" x1="-92.1" y1="-124.9" x2="-92.1" y2="-88.9"/>
	<line class="st9" x1="-146.1" y1="-70.9" x2="-110.1" y2="-70.9"/>
	<line class="st9" x1="-146.1" y1="70.9" x2="-110.1" y2="70.9"/>
	<line class="st9" x1="-92.1" y1="124.9" x2="-92.1" y2="88.9"/>
	<line class="st9" x1="92.1" y1="-124.9" x2="92.1" y2="-88.9"/>
	<line class="st9" x1="146.1" y1="-70.9" x2="110.1" y2="-70.9"/>
	<line class="st9" x1="146.1" y1="70.9" x2="110.1" y2="70.9"/>
	<line class="st9" x1="92.1" y1="124.9" x2="92.1" y2="88.9"/>
</symbol>
<symbol  id="TURBORUSS_FRONT" viewBox="-146.1 -202.8 292.3 405.6">
	<rect x="-92.1" y="-148.8" class="st0" width="184.3" height="297.6"/>
	<rect x="-87.4" y="-144.1" class="st1" width="174.7" height="288.1"/>
	<path class="st10" d="M86.9-143.6v287.1H-86.9v-287.1H86.9 M87.9-144.6H-87.9v289.1H87.9V-144.6z"/>
	<rect x="-83.1" y="-139.8" class="st0" width="166.2" height="279.6"/>
	<path class="st10" d="M82.6-139.3v278.6H-82.6v-278.6H82.6 M83.6-140.3H-83.6v280.6H83.6V-140.3z"/>
	<g id="TypoPath_1_">
		<g id="TypoPathLat-2_1_">
			<g id="TypoPath-2_1_">
				<path class="st11" d="M-72.7-122.8v-7.8h23.3v7.8h-7.8v46.5H-65v-46.5H-72.7z"/>
				<path class="st11" d="M-7.3-127.1c4.5-4.5,11.9-4.5,16.4,0c4.5,4.5,4.5,11.9,0,16.4c0,0,0,0,0,0c-2.2,2.2-5.1,3.5-8.2,3.4
					c-1.3,0-2.6-0.2-3.9-0.6v16.1c8.6,0,15.5,6.9,15.5,15.5c0,0,0,0,0,0H4.8c0-4.3-3.5-7.7-7.7-7.8c0,0,0,0,0,0v7.8h-7.8v-42.7
					C-10.7-122-9.5-125-7.3-127.1z M3.7-121.7c-1.5-1.5-3.9-1.5-5.4,0s-1.5,3.9,0,5.4c1.5,1.5,3.9,1.5,5.4,0
					c0.7-0.7,1.1-1.7,1.1-2.7C4.9-120,4.4-120.9,3.7-121.7z"/>
				<path class="st11" d="M36.3-127.1c4.5,4.5,4.5,11.9,0,16.5c-2.2,2.2-5.1,3.4-8.2,3.4c8.6,0,15.5,7,15.5,15.5c0,4.1-1.6,8-4.5,11
					c-2.9,3-6.8,4.6-11,4.5h-7.8v-54.3h7.8C31.2-130.6,34.2-129.4,36.3-127.1z M30.8-116.2c1.5-1.5,1.5-4,0-5.5
					c-0.7-0.7-1.7-1.1-2.7-1.1v7.8C29.1-115,30.1-115.4,30.8-116.2L30.8-116.2z M33.6-86.3c3-3,3-7.9,0-11c-1.5-1.5-3.4-2.3-5.5-2.3
					V-84C30.2-84,32.2-84.8,33.6-86.3z"/>
				<path class="st11" d="M54.8-111.6c4.5-4.5,11.9-4.5,16.4,0s4.5,11.9,0,16.4c-4.5,4.5-11.9,4.5-16.4,0c-2.2-2.2-3.4-5.1-3.4-8.2
					C51.3-106.5,52.6-109.5,54.8-111.6z M65.7-106.1c-1.5-1.5-3.9-1.5-5.4,0c-1.5,1.5-1.5,3.9,0,5.4c1.5,1.5,3.9,1.5,5.4,0
					c0.7-0.7,1.1-1.7,1.1-2.7C66.9-104.4,66.5-105.4,65.7-106.1L65.7-106.1z"/>
				<rect x="51.4" y="-130.6" class="st12" width="23.3" height="7.8"/>
				<rect x="51.4" y="-84" class="st12" width="23.3" height="7.8"/>
				<path class="st11" d="M-69.3-59.4c4.5-4.5,11.9-4.5,16.4,0s4.5,11.9,0,16.4c-2.2,2.2-5.1,3.4-8.2,3.4c-1.3,0-2.6-0.2-3.9-0.6
					V-24c8.6,0,15.5,6.9,15.5,15.5c0,0,0,0,0,0h-7.8c0-4.3-3.5-7.7-7.7-7.8c0,0,0,0,0,0v7.8h-7.8v-42.7
					C-72.8-54.3-71.5-57.2-69.3-59.4z M-58.3-53.9c-1.5-1.5-3.9-1.5-5.4,0c-1.5,1.5-1.5,3.9,0,5.4c1.5,1.5,3.9,1.5,5.4,0
					c0.7-0.7,1.1-1.7,1.1-2.7C-57.2-52.2-57.6-53.2-58.3-53.9z"/>
				<path class="st11" d="M-7.3-59.4c4.5-4.5,11.9-4.5,16.5,0c2.2,2.2,3.4,5.1,3.4,8.2H4.8C4.8-53.3,3.1-55,1-55s-3.9,1.7-3.9,3.9
					c0,2.1,1.7,3.8,3.9,3.9c6.4,0,11.6,5.2,11.6,11.6S7.4-24,0.9-24c-6.4,0-11.6-5.2-11.6-11.6h7.8c0,2.1,1.7,3.9,3.9,3.9
					s3.9-1.7,3.9-3.9c0-2.1-1.7-3.8-3.9-3.9c-6.4,0-11.6-5.2-11.6-11.6C-10.7-54.2-9.4-57.2-7.3-59.4L-7.3-59.4z"/>
				<rect x="-10.7" y="-16.3" class="st12" width="23.3" height="7.8"/>
				<path class="st11" d="M23.8-59.4c4.5-4.5,11.9-4.5,16.5,0c2.2,2.2,3.4,5.1,3.4,8.2h-7.8c0-2.1-1.7-3.9-3.9-3.9
					c-2.1,0-3.9,1.7-3.9,3.9c0,2.1,1.7,3.8,3.9,3.9c6.4,0,11.6,5.2,11.6,11.6S38.5-24,32-24c-6.4,0-11.6-5.2-11.6-11.6h7.8
					c0,2.1,1.7,3.9,3.9,3.9c2.1,0,3.9-1.7,3.9-3.9c0-2.1-1.7-3.8-3.9-3.9c-6.4,0-11.6-5.2-11.6-11.6C20.4-54.2,21.7-57.2,23.8-59.4
					L23.8-59.4z"/>
				<rect x="20.4" y="-16.3" class="st12" width="23.3" height="7.8"/>
				<path class="st12" d="M-41.7-130.6h7.8v110.4c0,2.1,1.8,3.9,3.9,3.9c2.1,0,3.9-1.7,3.9-3.9v-110.4h7.8v110.4
					c0,6.4-5.2,11.6-11.6,11.6c-6.4,0-11.6-5.2-11.6-11.6V-130.6z"/>
			</g>
			<g id="TypoPath-3_1_">
				<path class="st12" d="M-74.7-124.8v-7.8h23.3v7.8h-7.8v46.5H-67v-46.5H-74.7z"/>
				<path class="st12" d="M-9.3-129.1c4.5-4.5,11.9-4.5,16.4,0c4.5,4.5,4.5,11.9,0,16.4c0,0,0,0,0,0c-2.2,2.2-5.1,3.5-8.2,3.4
					c-1.3,0-2.6-0.2-3.9-0.6v16.1c8.6,0,15.5,6.9,15.5,15.5c0,0,0,0,0,0H2.8c0-4.3-3.5-7.7-7.7-7.8c0,0,0,0,0,0v7.8h-7.8v-42.7
					C-12.7-124-11.5-127-9.3-129.1z M1.7-123.7c-1.5-1.5-3.9-1.5-5.4,0c-1.5,1.5-1.5,3.9,0,5.4c1.5,1.5,3.9,1.5,5.4,0
					c0.7-0.7,1.1-1.7,1.1-2.7C2.9-122,2.4-122.9,1.7-123.7z"/>
				<path class="st12" d="M34.3-129.1c4.5,4.5,4.5,11.9,0,16.5c-2.2,2.2-5.1,3.4-8.2,3.4c8.6,0,15.5,7,15.5,15.5c0,4.1-1.6,8-4.5,11
					c-2.9,3-6.8,4.6-11,4.5h-7.8v-54.3h7.8C29.2-132.6,32.2-131.4,34.3-129.1z M28.8-118.2c1.5-1.5,1.5-4,0-5.5
					c-0.7-0.7-1.7-1.1-2.7-1.1v7.8C27.1-117,28.1-117.4,28.8-118.2L28.8-118.2z M31.6-88.3c3-3,3-7.9,0-11c-1.5-1.5-3.4-2.3-5.5-2.3
					V-86C28.2-86,30.2-86.8,31.6-88.3z"/>
				<path class="st12" d="M52.8-113.6c4.5-4.5,11.9-4.5,16.4,0s4.5,11.9,0,16.4c-4.5,4.5-11.9,4.5-16.4,0c-2.2-2.2-3.4-5.1-3.4-8.2
					C49.3-108.5,50.6-111.5,52.8-113.6z M63.7-108.1c-1.5-1.5-3.9-1.5-5.4,0c-1.5,1.5-1.5,3.9,0,5.4c1.5,1.5,3.9,1.5,5.4,0
					c0.7-0.7,1.1-1.7,1.1-2.7C64.9-106.4,64.5-107.4,63.7-108.1L63.7-108.1z"/>
				<rect x="49.4" y="-132.6" class="st11" width="23.3" height="7.8"/>
				<rect x="49.4" y="-86" class="st11" width="23.3" height="7.8"/>
				<path class="st12" d="M-71.3-61.4c4.5-4.5,11.9-4.5,16.4,0s4.5,11.9,0,16.4c-2.2,2.2-5.1,3.4-8.2,3.4c-1.3,0-2.6-0.2-3.9-0.6
					V-26c8.6,0,15.5,6.9,15.5,15.5c0,0,0,0,0,0h-7.8c0-4.3-3.5-7.7-7.7-7.8c0,0,0,0,0,0v7.8h-7.8v-42.7
					C-74.8-56.3-73.5-59.2-71.3-61.4z M-60.3-55.9c-1.5-1.5-3.9-1.5-5.4,0c-1.5,1.5-1.5,3.9,0,5.4c1.5,1.5,3.9,1.5,5.4,0
					c0.7-0.7,1.1-1.7,1.1-2.7C-59.2-54.2-59.6-55.2-60.3-55.9z"/>
				<path class="st12" d="M-9.3-61.4c4.5-4.5,11.9-4.5,16.5,0c2.2,2.2,3.4,5.1,3.4,8.2H2.8C2.8-55.3,1.1-57-1-57s-3.9,1.7-3.9,3.9
					c0,2.1,1.7,3.8,3.9,3.9c6.4,0,11.6,5.2,11.6,11.6S5.4-26-1.1-26c-6.4,0-11.6-5.2-11.6-11.6h7.8c0,2.1,1.7,3.9,3.9,3.9
					s3.9-1.7,3.9-3.9c0-2.1-1.7-3.8-3.9-3.9c-6.4,0-11.6-5.2-11.6-11.6C-12.7-56.2-11.4-59.2-9.3-61.4L-9.3-61.4z"/>
				<rect x="-12.7" y="-18.3" class="st11" width="23.3" height="7.8"/>
				<path class="st12" d="M21.8-61.4c4.5-4.5,11.9-4.5,16.5,0c2.2,2.2,3.4,5.1,3.4,8.2h-7.8c0-2.1-1.7-3.9-3.9-3.9
					c-2.1,0-3.9,1.7-3.9,3.9c0,2.1,1.7,3.8,3.9,3.9c6.4,0,11.6,5.2,11.6,11.6S36.5-26,30-26c-6.4,0-11.6-5.2-11.6-11.6h7.8
					c0,2.1,1.7,3.9,3.9,3.9c2.1,0,3.9-1.7,3.9-3.9c0-2.1-1.7-3.8-3.9-3.9c-6.4,0-11.6-5.2-11.6-11.6C18.4-56.2,19.7-59.2,21.8-61.4
					L21.8-61.4z"/>
				<rect x="18.4" y="-18.3" class="st11" width="23.3" height="7.8"/>
				<path class="st11" d="M-43.7-132.6h7.8v110.4c0,2.1,1.8,3.9,3.9,3.9c2.1,0,3.9-1.7,3.9-3.9v-110.4h7.8v110.4
					c0,6.4-5.2,11.6-11.6,11.6c-6.4,0-11.6-5.2-11.6-11.6V-132.6z"/>
			</g>
		</g>
		<g id="TypoPathKyr-4_1_">
			<path class="st12" d="M-64.9,16.3h-7.8V8.5h23.3v7.8h-7.8V24h7.8v7.8h-7.8v31h-7.8v-31h-7.8V24h7.8L-64.9,16.3z"/>
			<path class="st12" d="M4.9,39.5v7.8h-7.8v15.5h-7.8V20.2c0-6.4,5.2-11.6,11.6-11.6c6.4,0,11.6,5.2,11.6,11.6
				c0,6.4-5.2,11.6-11.6,11.6c-1.3,0-2.6-0.2-3.9-0.6v8.4H4.9z M3.8,17.4c-1.5-1.5-3.9-1.5-5.4,0c-1.5,1.5-1.5,3.9,0,5.4
				c1.5,1.5,3.9,1.5,5.4,0c0.7-0.7,1.1-1.7,1.1-2.7C4.9,19.1,4.5,18.1,3.8,17.4L3.8,17.4z"/>
			<path class="st12" d="M32.1,39.5c6.4,0,11.6,5.2,11.6,11.6S38.5,62.8,32,62.8c-6.4,0-11.6-5.2-11.6-11.6V8.5h23.3v7.8H28.2v23.9
				C29.4,39.7,30.7,39.5,32.1,39.5z M29.3,48.4c-1.5,1.5-1.5,3.9,0,5.4c1.5,1.5,3.9,1.5,5.4,0c1.5-1.5,1.5-3.9,0-5.4
				c-0.7-0.7-1.7-1.1-2.7-1.1C31,47.3,30,47.7,29.3,48.4z"/>
			<path class="st12" d="M54.9,27.4c4.5-4.5,11.9-4.5,16.4,0s4.5,11.9,0,16.4s-11.9,4.5-16.4,0c-2.2-2.2-3.4-5.1-3.4-8.2
				C51.4,32.6,52.6,29.6,54.9,27.4z M65.8,32.9c-1.5-1.5-3.9-1.5-5.4,0c-1.5,1.5-1.5,3.9,0,5.4c1.5,1.5,3.9,1.5,5.4,0
				c0.7-0.7,1.1-1.7,1.1-2.7C67,34.6,66.6,33.6,65.8,32.9L65.8,32.9z"/>
			<rect x="51.4" y="55.1" class="st11" width="23.3" height="7.8"/>
			<rect x="51.4" y="8.5" class="st11" width="23.3" height="7.8"/>
			<path class="st12" d="M-57.1,107.3v7.8h-7.8v15.5h-7.8V87.9c0-6.4,5.2-11.6,11.6-11.6c3.1,0,6.1,1.2,8.2,3.4
				c4.5,4.5,4.5,11.9,0,16.5c-2.2,2.2-5.1,3.4-8.2,3.4c-1.3,0-2.6-0.2-3.9-0.6v8.4H-57.1z M-58.3,85.2c-1.5-1.5-3.9-1.5-5.4,0
				c-1.5,1.5-1.5,3.9,0,5.4c1.5,1.5,3.9,1.5,5.4,0c0.7-0.7,1.1-1.7,1.1-2.7C-57.1,86.9-57.5,85.9-58.3,85.2L-58.3,85.2z"/>
			<path class="st12" d="M-7.2,79.7c4.5-4.5,11.9-4.5,16.5,0c2.2,2.2,3.4,5.1,3.4,8.2H4.9C4.9,85.8,3.2,84,1,84
				c-2.1,0-3.9,1.7-3.9,3.9v31c0,2.1,1.7,3.9,3.9,3.9c2.1,0,3.9-1.7,3.9-3.9h7.8c0,6.4-5.2,11.6-11.6,11.6
				c-6.4,0-11.6-5.2-11.6-11.6v-31C-10.6,84.8-9.4,81.8-7.2,79.7z"/>
			<path class="st12" d="M23.8,79.7c4.5-4.5,11.9-4.5,16.5,0c2.2,2.2,3.4,5.1,3.4,8.2h-7.8c0-2.1-1.7-3.9-3.9-3.9
				c-2.1,0-3.9,1.7-3.9,3.9v31c0,2.1,1.7,3.9,3.9,3.9c2.1,0,3.9-1.7,3.9-3.9h7.8c0,6.4-5.2,11.6-11.6,11.6
				c-6.4,0-11.6-5.2-11.6-11.6v-31C20.4,84.8,21.6,81.8,23.8,79.7z"/>
			<path class="st11" d="M-21.8,127.1c-4.5,4.5-11.9,4.5-16.5,0c-2.2-2.2-3.4-5.1-3.4-8.2h7.8c0,2.1,1.7,3.9,3.9,3.9
				c2.1,0,3.9-1.7,3.9-3.9v-8.4c-1.2,0.4-2.6,0.6-3.9,0.6c-6.4,0-11.6-5.2-11.6-11.6v-91h7.8v91c0,2.1,1.7,3.9,3.9,3.9
				c2.1,0,3.9-1.7,3.9-3.9v-91h7.8v110.4C-18.3,122-19.5,125-21.8,127.1z"/>
			<path class="st11" d="M-66.9,14.3h-7.8V6.5h23.3v7.8h-7.8V22h7.8v7.8h-7.8v31h-7.8v-31h-7.8V22h7.8L-66.9,14.3z"/>
			<path class="st11" d="M2.9,37.5v7.8h-7.8v15.5h-7.8V18.2c0-6.4,5.2-11.6,11.6-11.6c6.4,0,11.6,5.2,11.6,11.6
				c0,6.4-5.2,11.6-11.6,11.6c-1.3,0-2.6-0.2-3.9-0.6v8.4H2.9z M1.8,15.4c-1.5-1.5-3.9-1.5-5.4,0c-1.5,1.5-1.5,3.9,0,5.4
				c1.5,1.5,3.9,1.5,5.4,0c0.7-0.7,1.1-1.7,1.1-2.7C2.9,17.1,2.5,16.1,1.8,15.4L1.8,15.4z"/>
			<path class="st11" d="M30.1,37.5c6.4,0,11.6,5.2,11.6,11.6S36.5,60.8,30,60.8c-6.4,0-11.6-5.2-11.6-11.6V6.5h23.3v7.8H26.2v23.9
				C27.4,37.7,28.7,37.5,30.1,37.5z M27.3,46.4c-1.5,1.5-1.5,3.9,0,5.4c1.5,1.5,3.9,1.5,5.4,0c1.5-1.5,1.5-3.9,0-5.4
				c-0.7-0.7-1.7-1.1-2.7-1.1C29,45.3,28,45.7,27.3,46.4z"/>
			<path class="st11" d="M52.9,25.4c4.5-4.5,11.9-4.5,16.4,0s4.5,11.9,0,16.4s-11.9,4.5-16.4,0c-2.2-2.2-3.4-5.1-3.4-8.2
				C49.4,30.6,50.6,27.6,52.9,25.4z M63.8,30.9c-1.5-1.5-3.9-1.5-5.4,0c-1.5,1.5-1.5,3.9,0,5.4c1.5,1.5,3.9,1.5,5.4,0
				c0.7-0.7,1.1-1.7,1.1-2.7C65,32.6,64.6,31.6,63.8,30.9L63.8,30.9z"/>
			<rect x="49.4" y="53.1" class="st12" width="23.3" height="7.8"/>
			<rect x="49.4" y="6.5" class="st12" width="23.3" height="7.8"/>
			<path class="st11" d="M-59.1,105.3v7.8h-7.8v15.5h-7.8V85.9c0-6.4,5.2-11.6,11.6-11.6c3.1,0,6.1,1.2,8.2,3.4
				c4.5,4.5,4.5,11.9,0,16.5c-2.2,2.2-5.1,3.4-8.2,3.4c-1.3,0-2.6-0.2-3.9-0.6v8.4H-59.1z M-60.3,83.2c-1.5-1.5-3.9-1.5-5.4,0
				c-1.5,1.5-1.5,3.9,0,5.4c1.5,1.5,3.9,1.5,5.4,0c0.7-0.7,1.1-1.7,1.1-2.7C-59.1,84.9-59.5,83.9-60.3,83.2L-60.3,83.2z"/>
			<path class="st11" d="M-9.2,77.7c4.5-4.5,11.9-4.5,16.5,0c2.2,2.2,3.4,5.1,3.4,8.2H2.9C2.9,83.8,1.2,82-1,82
				c-2.1,0-3.9,1.7-3.9,3.9v31c0,2.1,1.7,3.9,3.9,3.9c2.1,0,3.9-1.7,3.9-3.9h7.8c0,6.4-5.2,11.6-11.6,11.6
				c-6.4,0-11.6-5.2-11.6-11.6v-31C-12.6,82.8-11.4,79.8-9.2,77.7z"/>
			<path class="st11" d="M21.8,77.7c4.5-4.5,11.9-4.5,16.5,0c2.2,2.2,3.4,5.1,3.4,8.2h-7.8c0-2.1-1.7-3.9-3.9-3.9
				c-2.1,0-3.9,1.7-3.9,3.9v31c0,2.1,1.7,3.9,3.9,3.9c2.1,0,3.9-1.7,3.9-3.9h7.8c0,6.4-5.2,11.6-11.6,11.6
				c-6.4,0-11.6-5.2-11.6-11.6v-31C18.4,82.8,19.6,79.8,21.8,77.7z"/>
			<path class="st12" d="M-23.8,125.1c-4.5,4.5-11.9,4.5-16.5,0c-2.2-2.2-3.4-5.1-3.4-8.2h7.8c0,2.1,1.7,3.9,3.9,3.9
				c2.1,0,3.9-1.7,3.9-3.9v-8.4c-1.2,0.4-2.6,0.6-3.9,0.6c-6.4,0-11.6-5.2-11.6-11.6v-91h7.8v91c0,2.1,1.7,3.9,3.9,3.9
				c2.1,0,3.9-1.7,3.9-3.9v-91h7.8v110.4C-20.3,120-21.5,123-23.8,125.1z"/>
		</g>
	</g>
	<g id="Alc-2_1_">
		<path class="st5" d="M55.5-15.5C55.5-15.5,55.6-15.5,55.5-15.5l14,0c0,0,0,0,0,0v1.9c0,0,0,0,0,0c0,0,0,0,0,0h-12v2c0,0,0,0,0,0
			h-2c0,0,0,0,0,0V-15.5z"/>
		<path class="st5" d="M57.5-17.6v-2h6v-2h-8v-2h14.1v2h-4v4H57.5z"/>
		<path class="st5" d="M56.4-26.5c-1.2-1.2-1.2-3.1,0-4.3c1.2-1.2,3.1-1.2,4.3,0c1.2,1.2,1.2,3.1,0,4.3c-0.6,0.6-1.3,0.9-2.1,0.9
			C57.7-25.6,57-25.9,56.4-26.5z M57.8-29.3c-0.4,0.4-0.4,1,0,1.4c0.4,0.4,1,0.4,1.4,0c0.4-0.4,0.4-1,0-1.4
			c-0.2-0.2-0.4-0.3-0.7-0.3C58.3-29.6,58-29.5,57.8-29.3L57.8-29.3z M55.5-33.6l14.1,4v-2l-14.1-4L55.5-33.6z M64.5-34.5
			c-1.2-1.2-1.2-3.1,0-4.3c1.2-1.2,3.1-1.2,4.3,0c1.2,1.2,1.2,3.1,0,4.3c-0.6,0.6-1.3,0.9-2.1,0.9C65.8-33.6,65-34,64.5-34.5
			L64.5-34.5z M65.9-37.4c-0.4,0.4-0.4,1,0,1.4c0.4,0.4,1,0.4,1.4,0c0.4-0.4,0.4-1,0-1.4c-0.2-0.2-0.4-0.3-0.7-0.3
			C66.3-37.7,66.1-37.6,65.9-37.4L65.9-37.4z"/>
		<path class="st5" d="M59.6-51.7v2l3,1l-3,1v2l6-2v-2L59.6-51.7z"/>
		<path class="st5" d="M57.5-59.8v14.1h-2v-14.1H57.5z M60.4-54.6c-1.2-1.2-1.2-3.1,0-4.3c1.2-1.2,3.1-1.2,4.3,0
			c1.2,1.2,1.2,3.1,0,4.3c-0.6,0.6-1.3,0.9-2.1,0.9C61.8-53.7,61-54.1,60.4-54.6L60.4-54.6z M69.6-59.8v14.1h-2v-14.1H69.6z
			 M61.9-57.5c-0.4,0.4-0.4,1,0,1.4c0.4,0.4,1,0.4,1.4,0c0.4-0.4,0.4-1,0-1.4c-0.2-0.2-0.4-0.3-0.7-0.3C62.3-57.8,62-57.7,61.9-57.5
			L61.9-57.5z"/>
		<path class="st5" d="M69.6-61.8H55.5v-2h12.1v-2h2V-61.8z"/>
	</g>
	<g id="ml-2_1_">
		<path class="st12" d="M55.6,126.6h-2.2V120h2.2l7.6,4.4v-2.2h2.2v2.2h3.3v2.2h-6.1l-7-4L55.6,126.6z"/>
		<path class="st12" d="M58.8,116.9c-1.3-1.3-1.3-3.3,0-4.6c1.3-1.3,3.3-1.3,4.6,0c1.3,1.3,1.3,3.3,0,4.6c-0.6,0.6-1.4,1-2.3,1
			C60.2,117.9,59.4,117.5,58.8,116.9z M60.3,113.8c-0.4,0.4-0.4,1.1,0,1.5c0.4,0.4,1.1,0.4,1.5,0c0.4-0.4,0.4-1.1,0-1.5
			c-0.2-0.2-0.5-0.3-0.8-0.3C60.8,113.5,60.5,113.6,60.3,113.8L60.3,113.8z"/>
		<path class="st12" d="M58.8,108.2c-1.3-1.3-1.3-3.3,0-4.6s3.3-1.3,4.6,0c1.3,1.3,1.3,3.3,0,4.6c-0.6,0.6-1.4,1-2.3,1
			C60.2,109.1,59.4,108.8,58.8,108.2z M60.3,105.1c-0.4,0.4-0.4,1.1,0,1.5c0.4,0.4,1.1,0.4,1.5,0c0.4-0.4,0.4-1.1,0-1.5
			c-0.2-0.2-0.5-0.3-0.8-0.3C60.8,104.8,60.5,104.9,60.3,105.1z"/>
		<path class="st12" d="M60,92.5v2.2h-6.5v-2.2c0-1.2,0.4-2.3,1.3-3.1c0.1-0.1,0.1-0.1,0.2-0.2c-0.1-0.1-0.1-0.1-0.2-0.2
			c-0.8-0.8-1.3-1.9-1.3-3.1v-2.2H60V86h-4.4c0,1.2,1,2.2,2.2,2.2c0,0,0,0,0,0v2.2c-1.2,0-2.2,1-2.2,2.2c0,0,0,0,0,0L60,92.5z
			 M64.3,83.8v10.9h-2.2V83.8H64.3z M68.7,83.8v10.9h-2.2V83.8H68.7z"/>
		<path class="st12" d="M68.7,81.6H53.5v-2.2h13.1v-2.2h2.2V81.6z"/>
	</g>
	<line class="st9" x1="-92.1" y1="-202.8" x2="-92.1" y2="-166.8"/>
	<line class="st9" x1="-146.1" y1="-148.8" x2="-110.1" y2="-148.8"/>
	<line class="st9" x1="-146.1" y1="148.8" x2="-110.1" y2="148.8"/>
	<line class="st9" x1="-92.1" y1="202.8" x2="-92.1" y2="166.8"/>
	<line class="st9" x1="92.1" y1="-202.8" x2="92.1" y2="-166.8"/>
	<line class="st9" x1="146.1" y1="-148.8" x2="110.1" y2="-148.8"/>
	<line class="st9" x1="146.1" y1="148.8" x2="110.1" y2="148.8"/>
	<line class="st9" x1="92.1" y1="202.8" x2="92.1" y2="166.8"/>
</symbol>
<g id="BG_Back">
	<rect class="st0" width="184.3" height="141.7"/>
	<rect x="4.8" y="4.8" class="st1" width="174.7" height="132.2"/>
	<path class="st2" d="M179,5.3v131.2H5.3V5.3H179 M180,4.3H4.3v133.2H180V4.3z"/>
	<rect x="9" y="9" class="st0" width="166.2" height="123.7"/>
	<path class="st2" d="M174.7,9.5v122.7H9.5V9.5H174.7 M175.7,8.5H8.5v124.7h167.2V8.5z"/>
</g>
<g id="Typo_Back">
	<g id="Alc">
		<path class="st3" d="M159.3,84.6C159.3,84.6,159.3,84.6,159.3,84.6l8.3,0c0,0,0,0,0,0v1.1c0,0,0,0,0,0c0,0,0,0,0,0h-7.1v1.2
			c0,0,0,0,0,0h-1.2c0,0,0,0,0,0V84.6z"/>
		<path class="st3" d="M160.5,83.4v-1.2h3.6V81h-4.8v-1.2h8.3V81h-2.4v2.4H160.5z"/>
		<path class="st3" d="M159.8,78.1c-0.7-0.7-0.7-1.8,0-2.5s1.8-0.7,2.5,0c0.7,0.7,0.7,1.8,0,2.5c-0.3,0.3-0.8,0.5-1.3,0.5
			C160.6,78.6,160.2,78.4,159.8,78.1z M160.7,76.4c-0.2,0.2-0.2,0.6,0,0.8c0.2,0.2,0.6,0.2,0.8,0c0.2-0.2,0.2-0.6,0-0.8
			c-0.1-0.1-0.3-0.2-0.4-0.2C160.9,76.2,160.8,76.3,160.7,76.4L160.7,76.4z M159.3,73.8l8.3,2.4V75l-8.3-2.4V73.8z M164.6,73.3
			c-0.7-0.7-0.7-1.8,0-2.5s1.8-0.7,2.5,0c0.7,0.7,0.7,1.8,0,2.5c-0.3,0.3-0.8,0.5-1.3,0.5C165.4,73.8,164.9,73.7,164.6,73.3
			L164.6,73.3z M165.4,71.6c-0.2,0.2-0.2,0.6,0,0.8s0.6,0.2,0.8,0c0.2-0.2,0.2-0.6,0-0.8c-0.1-0.1-0.3-0.2-0.4-0.2
			C165.7,71.5,165.5,71.5,165.4,71.6L165.4,71.6z"/>
		<path class="st3" d="M161.7,63.1v1.2l1.8,0.6l-1.8,0.6v1.2l3.6-1.2v-1.2L161.7,63.1z"/>
		<path class="st3" d="M160.5,58.4v8.3h-1.2v-8.3H160.5z M162.2,61.4c-0.7-0.7-0.7-1.8,0-2.5c0.7-0.7,1.8-0.7,2.5,0
			c0.7,0.7,0.7,1.8,0,2.5c-0.3,0.3-0.8,0.5-1.3,0.5C163,61.9,162.5,61.8,162.2,61.4L162.2,61.4z M167.6,58.4v8.3h-1.2v-8.3H167.6z
			 M163,59.7c-0.2,0.2-0.2,0.6,0,0.8c0.2,0.2,0.6,0.2,0.8,0c0.2-0.2,0.2-0.6,0-0.8c-0.1-0.1-0.3-0.2-0.4-0.2
			C163.3,59.6,163.2,59.6,163,59.7L163,59.7z"/>
		<path class="st3" d="M167.6,57.2h-8.3V56h7.1v-1.2h1.2V57.2z"/>
	</g>
	<g id="ml">
		<path class="st4" d="M17.6,85.5h-1.3v-3.9h1.3l4.5,2.6v-1.3h1.3v1.3h1.9v1.3h-3.6l-4.1-2.4L17.6,85.5z"/>
		<path class="st4" d="M19.5,79.7c-0.8-0.8-0.8-2,0-2.7c0.8-0.8,2-0.8,2.7,0c0.8,0.8,0.8,2,0,2.7c-0.4,0.4-0.9,0.6-1.4,0.6
			C20.3,80.3,19.8,80.1,19.5,79.7z M20.4,77.9c-0.2,0.3-0.2,0.7,0,0.9c0.3,0.2,0.7,0.2,0.9,0c0.2-0.3,0.2-0.7,0-0.9
			c-0.1-0.1-0.3-0.2-0.4-0.2C20.7,77.7,20.5,77.8,20.4,77.9z"/>
		<path class="st4" d="M19.5,74.6c-0.8-0.8-0.8-2,0-2.7c0.8-0.8,2-0.8,2.7,0c0.8,0.8,0.8,2,0,2.7c-0.4,0.4-0.9,0.6-1.4,0.6
			C20.3,75.1,19.8,74.9,19.5,74.6z M20.4,72.7c-0.2,0.3-0.2,0.7,0,0.9c0.3,0.2,0.7,0.2,0.9,0c0.2-0.3,0.2-0.7,0-0.9
			c-0.1-0.1-0.3-0.2-0.4-0.2C20.7,72.6,20.5,72.6,20.4,72.7L20.4,72.7z"/>
		<path class="st4" d="M20.2,65.3v1.3h-3.9v-1.3c0-0.7,0.3-1.3,0.8-1.8c0,0,0.1-0.1,0.1-0.1c0,0-0.1-0.1-0.1-0.1
			c-0.5-0.5-0.8-1.1-0.8-1.8v-1.3h3.9v1.3h-2.6c0,0.7,0.6,1.3,1.3,1.3c0,0,0,0,0,0V64c-0.7,0-1.3,0.6-1.3,1.3c0,0,0,0,0,0L20.2,65.3
			z M22.8,60.1v6.4h-1.3v-6.4L22.8,60.1z M25.4,60.1v6.4h-1.3v-6.4L25.4,60.1z"/>
		<path class="st4" d="M25.4,58.9h-9v-1.3h7.7v-1.3h1.3L25.4,58.9z"/>
	</g>
	<g id="TypoPathKyr">
		<g id="TypoPathKyr-2">
			<path class="st13" d="M20.6,101.2h-4.4v-4.4h13.2v4.4h-4.4v4.4h4.4v4.4h-4.4v17.6h-4.4V110h-4.4v-4.4h4.4V101.2z"/>
			<path class="st14" d="M45,125.7c-2.6,2.6-6.7,2.6-9.3,0c-1.2-1.2-1.9-2.9-1.9-4.7h4.4c0,1.2,1,2.2,2.2,2.2c1.2,0,2.2-1,2.2-2.2
				v-4.7c-0.7,0.2-1.5,0.4-2.2,0.4c-3.6,0-6.6-3-6.6-6.6V96.8h4.4V110c0,1.2,1,2.2,2.2,2.2c1.2,0,2.2-1,2.2-2.2V96.8h4.4V121
				C46.9,122.8,46.2,124.4,45,125.7z"/>
			<path class="st13" d="M60.1,114.4v4.4h-4.4v8.8h-4.4v-24.2c0-3.6,3-6.6,6.6-6.6s6.6,3,6.6,6.6c0,3.6-2.9,6.6-6.6,6.6
				c-0.7,0-1.5-0.1-2.2-0.4v4.7L60.1,114.4z M59.5,101.9c-0.9-0.8-2.2-0.8-3.1,0c-0.8,0.9-0.8,2.2,0,3.1c0.9,0.8,2.2,0.8,3.1,0
				c0.4-0.4,0.6-1,0.6-1.5C60.1,102.8,59.9,102.3,59.5,101.9z"/>
			<path class="st13" d="M75.5,114.4c3.6,0,6.6,3,6.6,6.6s-3,6.6-6.6,6.6c-3.6,0-6.6-2.9-6.6-6.6V96.8h13.2v4.4h-8.8v13.5
				C74,114.5,74.7,114.4,75.5,114.4z M73.9,119.5c-0.8,0.9-0.8,2.2,0,3.1s2.2,0.8,3.1,0c0.8-0.9,0.8-2.2,0-3.1
				c-0.4-0.4-1-0.6-1.5-0.6C74.9,118.8,74.3,119,73.9,119.5L73.9,119.5z"/>
			<path class="st13" d="M88.4,107.6c2.6-2.6,6.7-2.6,9.3,0c2.6,2.6,2.6,6.7,0,9.3s-6.7,2.6-9.3,0c-1.2-1.2-1.9-2.9-1.9-4.6
				C86.4,110.5,87.1,108.8,88.4,107.6z M94.6,110.7c-0.9-0.8-2.2-0.8-3.1,0c-0.8,0.9-0.8,2.2,0,3.1s2.2,0.8,3.1,0
				c0.4-0.4,0.6-1,0.6-1.5C95.3,111.6,95,111.1,94.6,110.7z"/>
			<path class="st13" d="M112.8,114.4v4.4h-4.4v8.8H104v-24.2c0-3.6,3-6.6,6.6-6.6s6.6,3,6.6,6.6c0,3.6-2.9,6.6-6.6,6.6
				c-0.7,0-1.5-0.1-2.2-0.4v4.7L112.8,114.4z M112.2,101.9c-0.9-0.8-2.2-0.8-3.1,0c-0.8,0.9-0.8,2.2,0,3.1s2.2,0.8,3.1,0
				c0.4-0.4,0.6-1,0.6-1.5C112.8,102.8,112.6,102.3,112.2,101.9z"/>
			<path class="st14" d="M132.9,125.7c-2.6,2.6-6.7,2.6-9.3,0c-1.2-1.2-1.9-2.9-1.9-4.7h4.4c0,1.2,1,2.2,2.2,2.2
				c1.2,0,2.2-1,2.2-2.2v-4.7c-0.7,0.2-1.5,0.4-2.2,0.4c-3.6,0-6.6-3-6.6-6.6V96.8h4.4V110c0,1.2,1,2.2,2.2,2.2c1.2,0,2.2-1,2.2-2.2
				V96.8h4.4V121C134.8,122.8,134.1,124.4,132.9,125.7z"/>
			<path class="st13" d="M141.1,98.8c2.6-2.6,6.7-2.6,9.3,0c1.2,1.2,1.9,2.9,1.9,4.7H148c0-1.2-1-2.2-2.2-2.2c-1.2,0-2.2,1-2.2,2.2
				V121c0,1.2,1,2.2,2.2,2.2c1.2,0,2.2-1,2.2-2.2h4.4c0,3.6-3,6.6-6.6,6.6c-3.6,0-6.6-3-6.6-6.6v-17.6
				C139.2,101.7,139.9,100,141.1,98.8z"/>
			<path class="st13" d="M158.7,98.8c2.6-2.6,6.7-2.6,9.3,0c1.2,1.2,1.9,2.9,1.9,4.7h-4.4c0-1.2-1-2.2-2.2-2.2c-1.2,0-2.2,1-2.2,2.2
				V121c0,1.2,1,2.2,2.2,2.2c1.2,0,2.2-1,2.2-2.2h4.4c0,3.6-3,6.6-6.6,6.6c-3.6,0-6.6-3-6.6-6.6v-17.6
				C156.7,101.7,157.4,100,158.7,98.8z"/>
			<rect x="86.5" y="96.8" class="st14" width="13.2" height="4.4"/>
			<rect x="86.5" y="123.2" class="st14" width="13.2" height="4.4"/>
		</g>
		<g id="TypoPathKyr-3">
			<path class="st14" d="M18.7,99.3h-4.4v-4.4h13.2v4.4h-4.4v4.4h4.4v4.4h-4.4v17.6h-4.4v-17.6h-4.4v-4.4h4.4V99.3z"/>
			<path class="st13" d="M43.1,123.8c-2.6,2.6-6.7,2.6-9.3,0c-1.2-1.2-1.9-2.9-1.9-4.7h4.4c0,1.2,1,2.2,2.2,2.2c1.2,0,2.2-1,2.2-2.2
				v-4.7c-0.7,0.2-1.5,0.4-2.2,0.4c-3.6,0-6.6-3-6.6-6.6V94.9h4.4v13.2c0,1.2,1,2.2,2.2,2.2c1.2,0,2.2-1,2.2-2.2V94.9H45v24.2
				C45.1,120.9,44.4,122.5,43.1,123.8z"/>
			<path class="st14" d="M58.2,112.5v4.4h-4.4v8.8h-4.4v-24.2c0-3.6,3-6.6,6.6-6.6s6.6,3,6.6,6.6c0,3.6-2.9,6.6-6.6,6.6
				c-0.7,0-1.5-0.1-2.2-0.4v4.7H58.2z M57.6,100c-0.9-0.8-2.2-0.8-3.1,0s-0.8,2.2,0,3.1s2.2,0.8,3.1,0c0.4-0.4,0.6-1,0.6-1.5
				C58.2,101,58,100.4,57.6,100z"/>
			<path class="st14" d="M73.6,112.5c3.6,0,6.6,3,6.6,6.6s-3,6.6-6.6,6.6c-3.6,0-6.6-2.9-6.6-6.6V94.9h13.2v4.4h-8.8v13.5
				C72.1,112.6,72.8,112.5,73.6,112.5z M72,117.6c-0.8,0.9-0.8,2.2,0,3.1c0.9,0.8,2.2,0.8,3.1,0s0.8-2.2,0-3.1
				c-0.4-0.4-1-0.6-1.5-0.6C73,116.9,72.4,117.1,72,117.6z"/>
			<path class="st14" d="M86.5,105.7c2.6-2.6,6.7-2.6,9.3,0c2.6,2.6,2.6,6.7,0,9.3s-6.7,2.6-9.3,0c-1.2-1.2-1.9-2.9-1.9-4.6
				C84.5,108.6,85.2,106.9,86.5,105.7z M92.7,108.8c-0.9-0.8-2.2-0.8-3.1,0c-0.8,0.9-0.8,2.2,0,3.1c0.9,0.8,2.2,0.8,3.1,0
				c0.4-0.4,0.6-1,0.6-1.5C93.4,109.7,93.1,109.2,92.7,108.8z"/>
			<path class="st14" d="M110.9,112.5v4.4h-4.4v8.8h-4.4v-24.2c0-3.6,3-6.6,6.6-6.6s6.6,3,6.6,6.6c0,3.6-2.9,6.6-6.6,6.6
				c-0.7,0-1.5-0.1-2.2-0.4v4.7H110.9z M110.3,100c-0.9-0.8-2.2-0.8-3.1,0s-0.8,2.2,0,3.1c0.9,0.8,2.2,0.8,3.1,0
				c0.4-0.4,0.6-1,0.6-1.5C110.9,101,110.7,100.4,110.3,100z"/>
			<path class="st13" d="M131,123.8c-2.6,2.6-6.7,2.6-9.3,0c-1.2-1.2-1.9-2.9-1.9-4.7h4.4c0,1.2,1,2.2,2.2,2.2c1.2,0,2.2-1,2.2-2.2
				v-4.7c-0.7,0.2-1.5,0.4-2.2,0.4c-3.6,0-6.6-3-6.6-6.6V94.9h4.4v13.2c0,1.2,1,2.2,2.2,2.2c1.2,0,2.2-1,2.2-2.2V94.9h4.4v24.2
				C132.9,120.9,132.2,122.5,131,123.8z"/>
			<path class="st14" d="M139.2,96.9c2.6-2.6,6.7-2.6,9.3,0c1.2,1.2,1.9,2.9,1.9,4.7h-4.4c0-1.2-1-2.2-2.2-2.2c-1.2,0-2.2,1-2.2,2.2
				v17.6c0,1.2,1,2.2,2.2,2.2c1.2,0,2.2-1,2.2-2.2h4.4c0,3.6-3,6.6-6.6,6.6c-3.6,0-6.6-3-6.6-6.6v-17.6
				C137.3,99.8,138,98.1,139.2,96.9z"/>
			<path class="st14" d="M156.8,96.9c2.6-2.6,6.7-2.6,9.3,0c1.2,1.2,1.9,2.9,1.9,4.7h-4.4c0-1.2-1-2.2-2.2-2.2c-1.2,0-2.2,1-2.2,2.2
				v17.6c0,1.2,1,2.2,2.2,2.2c1.2,0,2.2-1,2.2-2.2h4.4c0,3.6-3,6.6-6.6,6.6c-3.6,0-6.6-3-6.6-6.6v-17.6
				C154.8,99.8,155.5,98.1,156.8,96.9z"/>
			<rect x="84.6" y="121.3" class="st13" width="13.2" height="4.4"/>
			<rect x="84.6" y="94.9" class="st13" width="13.2" height="4.4"/>
		</g>
	</g>
	<g id="TypoPathLat">
		<path class="st15" d="M16.2,20.4V16h13.2v4.4H25v26.4h-4.4V20.4L16.2,20.4z"/>
		<path class="st16" d="M33.8,16h4.4v24.2c0,1.2,1,2.2,2.2,2.2c1.2,0,2.2-1,2.2-2.2V16h4.4v24.2c0,3.6-2.9,6.6-6.6,6.6
			c-1.7,0-3.4-0.7-4.7-1.9c-1.3-1.2-2-2.9-1.9-4.7V16z"/>
		<path class="st15" d="M53.3,17.9c2.6-2.6,6.7-2.6,9.3,0c1.2,1.2,1.9,2.9,1.9,4.7c0,3.6-3,6.6-6.6,6.6c-0.7,0-1.5-0.1-2.2-0.4v9.1
			c4.8,0,8.8,3.9,8.8,8.8c0,0,0,0,0,0h-4.4c0-2.4-2-4.4-4.4-4.4c0,0,0,0,0,0v4.4h-4.4V22.6C51.3,20.8,52,19.1,53.3,17.9z M59.5,21
			c-0.9-0.8-2.2-0.8-3.1,0c-0.8,0.9-0.8,2.2,0,3.1c0.9,0.8,2.2,0.8,3.1,0c0.4-0.4,0.6-1,0.6-1.5C60.1,22,59.9,21.4,59.5,21L59.5,21z
			"/>
		<path class="st15" d="M78,17.9c2.6,2.6,2.6,6.7,0,9.3c0,0,0,0,0,0c-1.2,1.3-2.9,2-4.7,1.9c4.8,0,8.8,3.9,8.8,8.8c0,0,0,0,0,0
			c0,4.8-3.9,8.8-8.8,8.8c0,0,0,0,0,0h-4.4V16h4.4C75.1,15.9,76.7,16.6,78,17.9z M74.8,24.1c0.9-0.9,0.9-2.3,0-3.1
			c-0.4-0.4-1-0.6-1.5-0.6v4.4C73.9,24.8,74.4,24.5,74.8,24.1L74.8,24.1z M76.4,41c1.7-1.7,1.7-4.5,0-6.2c-0.8-0.8-1.9-1.3-3.1-1.3
			v8.8C74.5,42.3,75.6,41.9,76.4,41L76.4,41z"/>
		<path class="st15" d="M88.4,26.7c2.6-2.6,6.7-2.6,9.3,0c1.2,1.2,1.9,2.9,1.9,4.7c0,3.6-2.9,6.6-6.6,6.6c-3.6,0-6.6-2.9-6.6-6.6
			C86.5,29.6,87.2,27.9,88.4,26.7z M94.6,29.8c-0.9-0.8-2.2-0.8-3.1,0s-0.8,2.2,0,3.1c0.9,0.8,2.2,0.8,3.1,0c0.4-0.4,0.6-1,0.6-1.5
			C95.3,30.8,95,30.2,94.6,29.8z"/>
		<path class="st15" d="M106,17.9c2.6-2.6,6.7-2.6,9.3,0c1.2,1.2,1.9,2.9,1.9,4.7c0,3.6-3,6.6-6.6,6.6c-0.7,0-1.5-0.1-2.2-0.4v9.1
			c4.8,0,8.8,3.9,8.8,8.8c0,0,0,0,0,0h-4.4c0-2.4-2-4.4-4.4-4.4c0,0,0,0,0,0v4.4H104V22.6C104,20.8,104.7,19.1,106,17.9z M112.2,21
			c-0.9-0.8-2.2-0.8-3.1,0s-0.8,2.2,0,3.1s2.2,0.8,3.1,0c0.4-0.4,0.6-1,0.6-1.5C112.8,22,112.6,21.4,112.2,21L112.2,21z"/>
		<path class="st16" d="M121.6,16h4.4v24.2c0,1.2,1,2.2,2.2,2.2c1.2,0,2.2-1,2.2-2.2V16h4.4v24.2c0,3.6-2.9,6.6-6.6,6.6
			c-3.6,0-6.6-2.9-6.6-6.6l0,0L121.6,16z"/>
		<path class="st15" d="M141.1,17.9c2.6-2.6,6.7-2.6,9.3,0c1.2,1.2,1.9,2.9,1.9,4.7H148c0-1.2-1-2.2-2.2-2.2c-1.2,0-2.2,1-2.2,2.2
			c0,1.2,1,2.2,2.2,2.2c3.6,0,6.6,3,6.6,6.6c0,3.6-3,6.6-6.6,6.6c-3.6,0-6.6-2.9-6.6-6.6h4.4c0,1.2,1,2.2,2.2,2.2
			c1.2,0,2.2-1,2.2-2.2c0-1.2-1-2.2-2.2-2.2c-3.6,0-6.6-3-6.6-6.6C139.2,20.8,139.9,19.1,141.1,17.9z"/>
		<path class="st15" d="M158.7,17.9c2.6-2.6,6.7-2.6,9.3,0c1.2,1.2,1.9,2.9,1.9,4.7h-4.4c0-1.2-1-2.2-2.2-2.2c-1.2,0-2.2,1-2.2,2.2
			c0,1.2,1,2.2,2.2,2.2c3.6,0,6.6,3,6.6,6.6c0,3.6-3,6.6-6.6,6.6c-3.6,0-6.6-2.9-6.6-6.6h4.4c0,1.2,1,2.2,2.2,2.2
			c1.2,0,2.2-1,2.2-2.2c0-1.2-1-2.2-2.2-2.2c-3.6,0-6.6-3-6.6-6.6C156.8,20.8,157.5,19.1,158.7,17.9z"/>
		<rect x="86.5" y="16" class="st16" width="13.2" height="4.4"/>
		<rect x="139.2" y="42.3" class="st16" width="13.2" height="4.4"/>
		<rect x="156.8" y="42.3" class="st16" width="13.2" height="4.4"/>
		<rect x="86.5" y="42.3" class="st16" width="13.2" height="4.4"/>
		<path class="st16" d="M14.3,18.4V14h13.2v4.4h-4.4v26.4h-4.4V18.4H14.3z"/>
		<path class="st15" d="M31.8,14h4.4v24.2c0,1.2,1,2.2,2.2,2.2c1.2,0,2.2-1,2.2-2.2V14H45v24.2c0,3.6-2.9,6.6-6.6,6.6
			c-1.7,0-3.4-0.7-4.7-1.9c-1.3-1.2-2-2.9-1.9-4.7L31.8,14z"/>
		<path class="st16" d="M51.3,16c2.6-2.6,6.7-2.6,9.3,0c1.2,1.2,1.9,2.9,1.9,4.7c0,3.6-3,6.6-6.6,6.6c-0.7,0-1.5-0.1-2.2-0.4V36
			c4.8,0,8.8,3.9,8.8,8.8c0,0,0,0,0,0h-4.4c0-2.4-2-4.4-4.4-4.4c0,0,0,0,0,0v4.4h-4.4V20.6C49.4,18.9,50.1,17.2,51.3,16z M57.5,19.1
			c-0.9-0.8-2.2-0.8-3.1,0c-0.8,0.9-0.8,2.2,0,3.1c0.9,0.8,2.2,0.8,3.1,0c0.4-0.4,0.6-1,0.6-1.5C58.2,20,58,19.5,57.5,19.1z"/>
		<path class="st16" d="M76,16c2.6,2.6,2.6,6.7,0,9.3c0,0,0,0,0,0c-1.2,1.3-2.9,2-4.7,1.9c4.8,0,8.8,3.9,8.8,8.8c0,0,0,0,0,0
			c0,4.8-3.9,8.8-8.8,8.8c0,0,0,0,0,0H67V14h4.4C73.1,14,74.8,14.7,76,16z M72.9,22.2c0.9-0.9,0.9-2.3,0-3.1c-0.4-0.4-1-0.6-1.5-0.6
			v4.4C72,22.8,72.5,22.6,72.9,22.2z M74.5,39.1c1.7-1.7,1.7-4.5,0-6.2c-0.8-0.8-1.9-1.3-3.1-1.3v8.8C72.5,40.4,73.7,40,74.5,39.1z"
			/>
		<path class="st16" d="M86.5,24.8c2.6-2.6,6.7-2.6,9.3,0c1.2,1.2,1.9,2.9,1.9,4.7c0,3.6-2.9,6.6-6.6,6.6c-3.6,0-6.6-2.9-6.6-6.6
			C84.6,27.7,85.2,26,86.5,24.8z M92.7,27.9c-0.9-0.8-2.2-0.8-3.1,0s-0.8,2.2,0,3.1c0.9,0.8,2.2,0.8,3.1,0c0.4-0.4,0.6-1,0.6-1.5
			C93.3,28.8,93.1,28.3,92.7,27.9z"/>
		<path class="st16" d="M104.1,16c2.6-2.6,6.7-2.6,9.3,0c1.2,1.2,1.9,2.9,1.9,4.7c0,3.6-3,6.6-6.6,6.6c-0.7,0-1.5-0.1-2.2-0.4V36
			c4.8,0,8.8,3.9,8.8,8.8c0,0,0,0,0,0h-4.4c0-2.4-2-4.4-4.4-4.4c0,0,0,0,0,0v4.4h-4.4V20.6C102.1,18.9,102.8,17.2,104.1,16z
			 M110.3,19.1c-0.9-0.8-2.2-0.8-3.1,0s-0.8,2.2,0,3.1c0.9,0.8,2.2,0.8,3.1,0c0.4-0.4,0.6-1,0.6-1.5C110.9,20,110.7,19.5,110.3,19.1
			z"/>
		<path class="st15" d="M119.7,14h4.4v24.2c0,1.2,1,2.2,2.2,2.2c1.2,0,2.2-1,2.2-2.2V14h4.4v24.2c0,3.6-2.9,6.6-6.6,6.6
			c-3.6,0-6.6-2.9-6.6-6.6V14z"/>
		<path class="st16" d="M139.2,16c2.6-2.6,6.7-2.6,9.3,0c1.2,1.2,1.9,2.9,1.9,4.7H146c0-1.2-1-2.2-2.2-2.2c-1.2,0-2.2,1-2.2,2.2
			c0,1.2,1,2.2,2.2,2.2c3.6,0,6.6,3,6.6,6.6c0,3.6-3,6.6-6.6,6.6c-3.6,0-6.6-2.9-6.6-6.6h4.4c0,1.2,1,2.2,2.2,2.2
			c1.2,0,2.2-1,2.2-2.2c0-1.2-1-2.2-2.2-2.2c-3.6,0-6.6-3-6.6-6.6C137.2,18.9,137.9,17.2,139.2,16z"/>
		<path class="st16" d="M156.8,16c2.6-2.6,6.7-2.6,9.3,0c1.2,1.2,1.9,2.9,1.9,4.7h-4.4c0-1.2-1-2.2-2.2-2.2c-1.2,0-2.2,1-2.2,2.2
			c0,1.2,1,2.2,2.2,2.2c3.6,0,6.6,3,6.6,6.6c0,3.6-3,6.6-6.6,6.6c-3.6,0-6.6-2.9-6.6-6.6h4.4c0,1.2,1,2.2,2.2,2.2
			c1.2,0,2.2-1,2.2-2.2c0-1.2-1-2.2-2.2-2.2c-3.6,0-6.6-3-6.6-6.6C154.9,18.9,155.6,17.2,156.8,16z"/>
		<rect x="84.6" y="14" class="st15" width="13.2" height="4.4"/>
		<rect x="137.3" y="40.4" class="st15" width="13.2" height="4.4"/>
		<rect x="154.9" y="40.4" class="st15" width="13.2" height="4.4"/>
		<rect x="84.6" y="40.4" class="st15" width="13.2" height="4.4"/>
	</g>
</g>
<g id="Layer_6">
	
		<use xlink:href="#TURBORUSS_FRONT"  width="292.3" height="405.6" x="-146.1" y="-202.8" transform="matrix(1 0 0 1 -118.237 70.866)" style="overflow:visible;"/>
	<g>
		<defs>
			<rect id="SVGID_1_" x="-54" y="-54" width="292.3" height="249.7"/>
		</defs>
		<clipPath id="SVGID_2_">
			<use xlink:href="#SVGID_1_"  style="overflow:visible;"/>
		</clipPath>
		<g style="clip-path:url(#SVGID_2_);">
			
				<use xlink:href="#TURBORUSS_BACK"  width="292.3" height="249.7" x="-146.1" y="-124.9" transform="matrix(1 0 0 1 92.126 70.8663)" style="overflow:visible;"/>
		</g>
	</g>
</g>
</svg>
