<svg id="Layer_1" data-name="Layer 1" xmlns="http://www.w3.org/2000/svg" xmlns:xlink="http://www.w3.org/1999/xlink" viewBox="0 0 184.25197 141.73228"><defs><style>.cls-1,.cls-11,.cls-16{fill:none;}.cls-2{fill:#cc2027;}.cls-10,.cls-14,.cls-15,.cls-19,.cls-20,.cls-21,.cls-24,.cls-3,.cls-5,.cls-6,.cls-7{fill:#ede3d9;}.cls-4{fill:#262626;}.cls-15,.cls-19,.cls-21,.cls-22,.cls-5,.cls-7,.cls-8{stroke:#231f20;}.cls-10,.cls-5,.cls-6,.cls-7,.cls-8,.cls-9{stroke-miterlimit:10;}.cls-5,.cls-6{stroke-width:0.5px;}.cls-10,.cls-20,.cls-23,.cls-24,.cls-6,.cls-9{stroke:#262626;}.cls-13,.cls-22,.cls-23,.cls-8,.cls-9{fill:#fdb614;}.cls-11,.cls-16{stroke:#000;}.cls-11{stroke-width:0.3px;}.cls-12{fill:#131313;}.cls-13,.cls-14{stroke:#131313;}.cls-13,.cls-14,.cls-15{stroke-miterlimit:9.99999;}.cls-16{stroke-width:0.3px;}.cls-17{clip-path:url(#clip-path);}.cls-18{fill:#cc2026;}.cls-19,.cls-20,.cls-21,.cls-22,.cls-23,.cls-24{stroke-miterlimit:10;}.cls-19,.cls-20{stroke-width:0.5px;}</style><clipPath id="clip-path"><rect class="cls-1" x="-54" y="-54" width="292.25198" height="249.73228"/></clipPath><symbol id="TURBORUSS_FRONT" data-name="TURBORUSS FRONT" viewBox="0 0 292.252 405.638"><rect class="cls-2" x="53.99997" y="53.99997" width="184.25187" height="297.63763"/><rect class="cls-3" x="58.75195" y="58.75195" width="174.74791" height="288.13368"/><path class="cls-12" d="M232.99988,346.3856V59.252H59.252V346.3856H232.99988m1,1H58.252V58.252h175.7479Z"/><rect class="cls-2" x="63.00391" y="63.0039" width="166.24398" height="279.62976"/><path class="cls-12" d="M228.74792,342.1336V63.5039H63.50388V342.1336h165.244m1,1H62.50388V62.5039h167.244Z"/><g id="TypoPath"><g id="TypoPathLat-2"><g id="TypoPath-2"><path class="cls-13" d="M73.41718,325.62209V333.377H96.682v-7.75494H88.927V279.09247H81.17211v46.52962Z"/><path class="cls-13" d="M138.86885,329.96486a11.62535,11.62535,0,1,0,16.45022-16.43124l-.00923-.00924a11.20809,11.20809,0,0,0-8.22076-3.41217,11.95573,11.95573,0,0,0-3.87747.6204V294.60234a15.4891,15.4891,0,0,0,15.5104-15.46778q0-.02106,0-.0421h-7.75546a7.74458,7.74458,0,0,1-7.73419,7.75494h-.02081v-7.75494h-7.75494v42.65216A11.20515,11.20515,0,0,0,138.86885,329.96486Zm10.95385-5.48662a3.83837,3.83837,0,1,1,1.14386-2.73362A3.73071,3.73071,0,0,1,149.8227,324.47824Z"/><path class="cls-13" d="M182.45213,329.96486a11.63241,11.63241,0,0,0-8.22023-19.85264,15.51851,15.51851,0,0,0,10.97325-26.48311,14.94753,14.94753,0,0,0-10.97325-4.53664h-7.755V333.377h7.755A11.20516,11.20516,0,0,0,182.45213,329.96486ZM176.965,319.011a3.8775,3.8775,0,0,1-2.73309,6.61108v-7.75494A3.72963,3.72963,0,0,1,176.965,319.011Zm2.75405-29.89529a7.75494,7.75494,0,0,1-5.48715,13.24155V286.8474A7.47749,7.47749,0,0,1,179.719,289.11572Z"/><path class="cls-13" d="M200.90889,314.455a11.60773,11.60773,0,1,0-3.41217-8.22023A11.20516,11.20516,0,0,0,200.90889,314.455Zm10.95333-5.48662a3.83715,3.83715,0,1,1,1.14436-2.73361,3.72957,3.72957,0,0,1-1.14437,2.73361Z"/><rect class="cls-14" x="197.4967" y="325.62209" width="23.26482" height="7.75493"/><rect class="cls-14" x="197.4967" y="279.09247" width="23.26482" height="7.75493"/><path class="cls-13" d="M76.82935,262.21234a11.62518,11.62518,0,1,0,8.22023-19.85268,11.95531,11.95531,0,0,0-3.87747.62039V226.84979A15.4891,15.4891,0,0,0,96.682,211.38143q0-.02073,0-.04149H88.927a7.74453,7.74453,0,0,1-7.73414,7.75494q-.0104,0-.02079,0v-7.75494H73.41718V253.9921A11.20514,11.20514,0,0,0,76.82935,262.21234Zm10.95385-5.48662A3.83837,3.83837,0,1,1,88.927,253.9921,3.73075,3.73075,0,0,1,87.7832,256.72572Z"/><path class="cls-13" d="M138.86885,262.21234A11.63267,11.63267,0,0,0,158.722,253.9921h-7.75546a3.866,3.866,0,1,1-3.87749-3.87747,11.62517,11.62517,0,1,0-11.63241-11.63241h7.75494a3.866,3.866,0,1,1,3.87747,3.87747,11.62515,11.62515,0,0,0-8.22022,19.85263Z"/><rect class="cls-14" x="135.45668" y="211.33994" width="23.26534" height="7.75494"/><path class="cls-13" d="M169.96668,262.21234a11.6324,11.6324,0,0,0,19.85263-8.22024h-7.75494a3.86559,3.86559,0,1,1-3.87747-3.87744,11.62517,11.62517,0,1,0-11.63241-11.63241h7.75494a3.86559,3.86559,0,1,1,3.87747,3.87741,11.62515,11.62515,0,0,0-8.22022,19.85263Z"/><rect class="cls-14" x="166.55451" y="211.33994" width="23.26482" height="7.75494"/><path class="cls-14" d="M104.43694,333.377h7.75495V222.97235a3.8775,3.8775,0,0,1,7.75493,0V333.377h7.75494V222.97235a11.63241,11.63241,0,0,0-23.26482,0Z"/></g><g id="TypoPath-3"><path class="cls-14" d="M71.41718,327.62209V335.377H94.682v-7.75493H86.927V281.09247H79.17211v46.52962Z"/><path class="cls-14" d="M136.86885,331.96486a11.62535,11.62535,0,1,0,16.45022-16.43124l-.00923-.00924a11.208,11.208,0,0,0-8.22076-3.41217,11.95573,11.95573,0,0,0-3.87747.6204V296.60233a15.48909,15.48909,0,0,0,15.5104-15.46777q0-.02106,0-.0421h-7.75546a7.74456,7.74456,0,0,1-7.73419,7.75493h-.02081v-7.75494h-7.75494v42.65217A11.20515,11.20515,0,0,0,136.86885,331.96486Zm10.95386-5.48662a3.83838,3.83838,0,1,1,1.14385-2.73362A3.73074,3.73074,0,0,1,147.82271,326.47824Z"/><path class="cls-14" d="M180.45213,331.96486a11.63241,11.63241,0,0,0-8.22023-19.85264,15.51852,15.51852,0,0,0,10.97325-26.48312,14.94756,14.94756,0,0,0-10.97325-4.53663h-7.755V335.377h7.755A11.2051,11.2051,0,0,0,180.45213,331.96486ZM174.965,321.011a3.87751,3.87751,0,0,1-2.73309,6.61109v-7.75494A3.72966,3.72966,0,0,1,174.965,321.011Zm2.75405-29.89528a7.75494,7.75494,0,0,1-5.48715,13.24155V288.8474A7.47745,7.47745,0,0,1,177.719,291.11572Z"/><path class="cls-14" d="M198.90889,316.455a11.60773,11.60773,0,1,0-3.41217-8.22023A11.20518,11.20518,0,0,0,198.90889,316.455Zm10.95333-5.48662a3.83712,3.83712,0,1,1,1.14437-2.73361,3.72962,3.72962,0,0,1-1.14438,2.73361Z"/><rect class="cls-13" x="195.49671" y="327.62209" width="23.26482" height="7.75493"/><rect class="cls-13" x="195.49671" y="281.09247" width="23.26482" height="7.75493"/><path class="cls-14" d="M74.82935,264.21234a11.62518,11.62518,0,1,0,8.22023-19.85268,11.955,11.955,0,0,0-3.87747.62039V228.84979A15.48911,15.48911,0,0,0,94.682,213.38143q0-.02073,0-.04149H86.927a7.74453,7.74453,0,0,1-7.73414,7.75494q-.01038,0-.02079,0v-7.75494H71.41718V255.9921A11.20516,11.20516,0,0,0,74.82935,264.21234Zm10.95385-5.48662A3.83838,3.83838,0,1,1,86.927,255.9921,3.73077,3.73077,0,0,1,85.7832,258.72572Z"/><path class="cls-14" d="M136.86885,264.21234A11.63267,11.63267,0,0,0,156.722,255.9921h-7.75546a3.866,3.866,0,1,1-3.87749-3.87747,11.62517,11.62517,0,1,0-11.63241-11.63241h7.75494a3.866,3.866,0,1,1,3.87747,3.87747,11.62515,11.62515,0,0,0-8.22022,19.85263Z"/><rect class="cls-13" x="133.45669" y="213.33994" width="23.26534" height="7.75494"/><path class="cls-14" d="M167.96668,264.21234a11.6324,11.6324,0,0,0,19.85263-8.22024h-7.75494a3.86558,3.86558,0,1,1-3.87747-3.87744,11.62517,11.62517,0,1,0-11.63241-11.63241h7.75494a3.86559,3.86559,0,1,1,3.87747,3.87741,11.62515,11.62515,0,0,0-8.22022,19.85263Z"/><rect class="cls-13" x="164.55451" y="213.33994" width="23.26482" height="7.75494"/><path class="cls-13" d="M102.43694,335.377h7.75495V224.97235a3.8775,3.8775,0,0,1,7.75493,0V335.377h7.75494V224.97235a11.63241,11.63241,0,0,0-23.26482,0Z"/></g></g><g id="TypoPathKyr-4"><path class="cls-14" d="M81.24526,186.54308h-7.755v7.755H96.75519v-7.755h-7.755v-7.755h7.755v-7.755h-7.755V140.01323h-7.755v31.01994h-7.755v7.755h7.755Z"/><path class="cls-14" d="M151.03991,163.2782v-7.755h-7.755V140.01326h-7.755v42.65235a11.62522,11.62522,0,1,0,11.63244-11.63244,11.965,11.965,0,0,0-3.87748.62039V163.2782Zm-1.14439,22.12156a3.83711,3.83711,0,1,1,1.14439-2.73415,3.73111,3.73111,0,0,1-1.14435,2.73415Z"/><path class="cls-14" d="M178.18232,163.2782a11.62522,11.62522,0,1,0-11.63241-11.6325v42.65235h23.2649v-7.755h-15.51V162.65776A11.94128,11.94128,0,0,0,178.18232,163.2782Zm-2.73309-8.89831a3.83834,3.83834,0,1,1,2.73309,1.14334A3.73037,3.73037,0,0,1,175.44923,154.37989Z"/><path class="cls-14" d="M200.98189,175.37594a11.60776,11.60776,0,1,0-3.41219-8.22027A11.20311,11.20311,0,0,0,200.98189,175.37594Zm10.95336-5.48611a3.83714,3.83714,0,1,1,1.14438-2.73414,3.73116,3.73116,0,0,1-1.14435,2.73414Z"/><rect class="cls-13" x="197.56973" y="140.01329" width="23.2649" height="7.75497"/><rect class="cls-13" x="197.56973" y="186.54308" width="23.2649" height="7.75497"/><path class="cls-14" d="M89.00022,95.52543v-7.755h-7.755V72.26049h-7.755v42.65235A11.6252,11.6252,0,1,0,85.12269,103.2804a11.96556,11.96556,0,0,0-3.87749.62039V95.52543ZM87.85584,117.647a3.83715,3.83715,0,1,1,1.14438-2.73416,3.73108,3.73108,0,0,1-1.14438,2.73413Z"/><path class="cls-14" d="M138.9422,123.13311a11.63246,11.63246,0,0,0,19.85273-8.22027h-7.755a3.87752,3.87752,0,0,1-7.755,0V83.893a3.87752,3.87752,0,0,1,7.755,0h7.755a11.63245,11.63245,0,0,0-23.26489,0v31.01985A11.20144,11.20144,0,0,0,138.9422,123.13311Z"/><path class="cls-14" d="M169.96205,123.13311a11.63245,11.63245,0,0,0,19.85271-8.22027h-7.755a3.87752,3.87752,0,0,1-7.755,0V83.893a3.87752,3.87752,0,0,1,7.755,0h7.755a11.63245,11.63245,0,0,0-23.26489,0v31.01985A11.20144,11.20144,0,0,0,169.96205,123.13311Z"/><path class="cls-13" d="M124.36286,75.67275A11.63245,11.63245,0,0,0,104.51015,83.893h7.755a3.87752,3.87752,0,0,1,7.755,0v8.37533a11.97414,11.97414,0,0,0-3.87749-.62039,11.65,11.65,0,0,0-11.63244,11.63244v91.01765h7.755V103.2804a3.87752,3.87752,0,0,1,7.755,0v91.01765h7.755V83.893A11.20889,11.20889,0,0,0,124.36286,75.67275Z"/><path class="cls-13" d="M79.24526,188.54308h-7.755v7.755H94.75519v-7.755h-7.755v-7.755h7.755v-7.755h-7.755V142.01323h-7.755v31.01994h-7.755v7.755h7.755Z"/><path class="cls-13" d="M149.03991,165.2782v-7.755h-7.755V142.01326h-7.755v42.65235a11.62522,11.62522,0,1,0,11.63244-11.63244,11.965,11.965,0,0,0-3.87748.62039V165.2782Zm-1.14439,22.12156a3.83711,3.83711,0,1,1,1.14439-2.73415,3.73114,3.73114,0,0,1-1.14434,2.73415Z"/><path class="cls-13" d="M176.18232,165.2782a11.62522,11.62522,0,1,0-11.63241-11.6325v42.65235h23.2649v-7.755h-15.51V164.65776A11.94128,11.94128,0,0,0,176.18232,165.2782Zm-2.73309-8.89831a3.83834,3.83834,0,1,1,2.73309,1.14334A3.73037,3.73037,0,0,1,173.44923,156.37989Z"/><path class="cls-13" d="M198.98189,177.37594a11.60776,11.60776,0,1,0-3.41219-8.22027A11.20311,11.20311,0,0,0,198.98189,177.37594Zm10.95336-5.48611a3.83714,3.83714,0,1,1,1.14438-2.73414,3.7311,3.7311,0,0,1-1.14435,2.73414Z"/><rect class="cls-14" x="195.56973" y="142.01329" width="23.2649" height="7.75497"/><rect class="cls-14" x="195.56973" y="188.54308" width="23.2649" height="7.75497"/><path class="cls-13" d="M87.00022,97.52543v-7.755h-7.755V74.26049h-7.755v42.65235A11.6252,11.6252,0,1,0,83.12269,105.2804a11.96561,11.96561,0,0,0-3.87749.62039V97.52543ZM85.85584,119.647a3.83715,3.83715,0,1,1,1.14438-2.73416,3.73108,3.73108,0,0,1-1.14438,2.73413Z"/><path class="cls-13" d="M136.9422,125.13311a11.63246,11.63246,0,0,0,19.85273-8.22027h-7.755a3.87752,3.87752,0,0,1-7.755,0V85.893a3.87752,3.87752,0,0,1,7.755,0h7.755a11.63245,11.63245,0,0,0-23.26489,0v31.01985A11.20144,11.20144,0,0,0,136.9422,125.13311Z"/><path class="cls-13" d="M167.96205,125.13311a11.63245,11.63245,0,0,0,19.85271-8.22027h-7.755a3.87752,3.87752,0,0,1-7.755,0V85.893a3.87752,3.87752,0,0,1,7.755,0h7.755a11.63245,11.63245,0,0,0-23.26489,0v31.01985A11.20144,11.20144,0,0,0,167.96205,125.13311Z"/><path class="cls-14" d="M122.36286,77.67275A11.63245,11.63245,0,0,0,102.51015,85.893h7.755a3.87752,3.87752,0,0,1,7.755,0v8.37533a11.97387,11.97387,0,0,0-3.87749-.62039,11.65,11.65,0,0,0-11.63244,11.63244v91.01765h7.755V105.2804a3.87752,3.87752,0,0,1,7.755,0v91.01765h7.755V85.893A11.20887,11.20887,0,0,0,122.36286,77.67275Z"/></g></g><g id="Alc-2"><path class="cls-15" d="M201.66617,218.32609c.00653.0269.01658.0402.03016.0402h14.00341c.0201,0,.03016-.0133.03016-.0402v-1.94017a.02665.02665,0,0,0-.0226-.03017H203.69682v-1.98038c0-.02011-.01358-.03016-.04021-.03016h-1.96028q-.03013.0102-.03016.03016Z"/><path class="cls-15" d="M203.66665,220.37683v2.01055h6.03162v2.01054h-8.04216v2.01054h14.07377v-2.01054h-4.02107v-4.02109Z"/><path class="cls-15" d="M202.54075,229.30366a3.00941,3.00941,0,1,0,2.13117-.88464A2.90458,2.90458,0,0,0,202.54075,229.30366Zm1.42232,2.84a.99544.99544,0,1,1,.70885.29642.96842.96842,0,0,1-.70883-.29642Zm-2.307,4.3175,14.07381-4.02108v2.01054l-14.07375,4.021Zm8.92679.88464a3.00941,3.00941,0,1,0,2.13117-.88464,2.90455,2.90455,0,0,0-2.13115.88463Zm1.42232,2.84a.99544.99544,0,1,1,.70885.29642.96834.96834,0,0,1-.70879-.29641Z"/><path class="cls-15" d="M205.6772,254.556v-2.01054l3.0158-1.00527-3.0158-1.00526v-2.01054l6.03161,2.01054v2.01054Z"/><path class="cls-15" d="M203.66665,262.59816V248.52439h-2.01054v14.07377Zm2.89519-5.147a3.0094,3.0094,0,1,0,2.13116-.88465,2.90444,2.90444,0,0,0-2.13111.88468Zm9.16806,5.147V248.52439h-2.01055v14.07377Zm-7.74574-2.307a.99546.99546,0,1,1,.70884.29642.96838.96838,0,0,1-.70884-.29636Z"/><path class="cls-15" d="M215.72988,264.60864H201.65613v2.0106h12.06324v2.01054h2.01051Z"/></g><g id="ml-2"><path class="cls-14" d="M201.75522,76.26052h-2.17879v6.53634h2.17879l7.62574-4.40115v2.22238h2.17879v-2.1788h3.26817v-2.1788h-6.1006l-6.97212,4.01986Z"/><path class="cls-14" d="M204.89267,85.93434a3.26125,3.26125,0,1,0,2.30952-.95865A3.14756,3.14756,0,0,0,204.89267,85.93434ZM206.434,89.012a1.07875,1.07875,0,1,1,.76817.32123,1.04948,1.04948,0,0,1-.76817-.32126Z"/><path class="cls-14" d="M204.89267,94.64949a3.26124,3.26124,0,1,0,2.30952-.95868A3.14753,3.14753,0,0,0,204.89267,94.64949Zm1.54135,3.07766a1.07873,1.07873,0,1,1,.76817.32123A1.04938,1.04938,0,0,1,206.434,97.72715Z"/><path class="cls-14" d="M206.11279,110.294v-2.17877h-6.53636V110.294a4.19951,4.19951,0,0,0,1.2746,3.083q.09806.09806.1961.18521-.09806.087-.1961.18522a4.19951,4.19951,0,0,0-1.2746,3.083V119.009h6.53636v-2.17865h-4.35757a2.17589,2.17589,0,0,1,2.17295-2.1788h.00583v-2.17886a2.17585,2.17585,0,0,1-2.17878-2.17294v-.00586Zm4.35757,8.715V108.11518h-2.17878v10.89376Zm4.35757,0V108.11518h-2.17878v10.89376Z"/><path class="cls-14" d="M214.82793,121.18771h-15.2515v2.17877h13.07272v2.1788h2.17878Z"/></g><line class="cls-16" x1="53.99997" y1="405.63757" x2="53.99997" y2="369.63759"/><line class="cls-16" y1="351.6376" x2="35.99998" y2="351.6376"/><line class="cls-16" y1="53.99997" x2="35.99998" y2="53.99997"/><line class="cls-16" x1="53.99997" x2="53.99997" y2="35.99998"/><line class="cls-16" x1="238.25184" y1="405.63757" x2="238.25184" y2="369.63759"/><line class="cls-16" x1="292.25183" y1="351.6376" x2="256.25185" y2="351.6376"/><line class="cls-16" x1="292.25183" y1="53.99997" x2="256.25185" y2="53.99997"/><line class="cls-16" x1="238.25184" x2="238.25184" y2="35.99998"/></symbol><symbol id="TURBORUSS_BACK" data-name="TURBORUSS BACK" viewBox="0 0 292.252 249.732"><rect class="cls-2" x="53.99999" y="53.99999" width="184.25195" height="141.73227"/><rect class="cls-3" x="58.75224" y="58.75242" width="174.74803" height="132.22801"/><path class="cls-4" d="M233,190.48026V59.252H59.252v131.2283H233m1,1H58.252V58.252H234Z"/><rect class="cls-2" x="63.00419" y="63.00437" width="166.24412" height="123.7241"/><path class="cls-4" d="M228.748,186.22826V63.50387H63.504V186.22826H228.748m1,1H62.504V62.50387H229.748Z"/><g id="Alc-3"><path class="cls-5" d="M213.30835,111.1561c.00387.01591.00982.0238.01786.0238h8.28909c.0119,0,.01785-.00787.01785-.0238v-1.14845a.01579.01579,0,0,0-.01339-.01786h-7.10939v-1.17225c0-.0119-.008-.01786-.02381-.01786h-1.16035q-.01785.006-.01786.01786Z"/><path class="cls-5" d="M214.4925,112.37v1.1901h3.57031v1.19017h-4.76044v1.19011h8.33075v-1.19011H219.253v-2.38021Z"/><path class="cls-5" d="M213.826,117.65408a1.78137,1.78137,0,1,0,1.2615-.52365A1.71926,1.71926,0,0,0,213.826,117.65408Zm.84192,1.68111a.58925.58925,0,1,1,.41958.17546.57314.57314,0,0,1-.41957-.17546Zm-1.36557,2.55567,8.33075-2.38021v1.1901l-8.33075,2.38021Zm5.28407.52365a1.78138,1.78138,0,1,0,1.26151-.52365,1.71931,1.71931,0,0,0-1.26149.52365Zm.84192,1.6811a.58925.58925,0,1,1,.41959.17546.57324.57324,0,0,1-.41958-.17546Z"/><path class="cls-5" d="M215.68261,132.60182v-1.1901l1.78515-.59506-1.78515-.59505V129.0315l3.57031,1.19011v1.19011Z"/><path class="cls-5" d="M214.4925,137.36227v-8.33075h-1.19011v8.33075Zm1.71376-3.04667a1.78136,1.78136,0,1,0,1.2615-.52365,1.71922,1.71922,0,0,0-1.2615.52363Zm5.42688,3.04667v-8.33075H220.443v8.33075Zm-4.585-1.36557a.58925.58925,0,1,1,.41959.17546.5732.5732,0,0,1-.41954-.17548Z"/><path class="cls-5" d="M221.63314,138.55236h-8.33075v1.1901H220.443v1.19011h1.1901Z"/></g><g id="ml-3"><path class="cls-6" d="M71.63451,110.27947H70.34482v3.86909h1.28969l4.51394-2.60518v1.31549h1.2897v-1.2897H79.3727v-1.2897H75.76154l-4.127,2.37948Z"/><path class="cls-6" d="M73.49168,116.00572a1.93044,1.93044,0,1,0,1.36708-.56747A1.86315,1.86315,0,0,0,73.49168,116.00572Zm.91237,1.82178a.63853.63853,0,1,1,.45471.19016A.62118.62118,0,0,1,74.40405,117.8275Z"/><path class="cls-6" d="M73.49168,121.16451a1.93042,1.93042,0,1,0,1.36708-.56748A1.86316,1.86316,0,0,0,73.49168,121.16451Zm.91237,1.82177a.63854.63854,0,1,1,.45471.19015.62116.62116,0,0,1-.45471-.19016Z"/><path class="cls-6" d="M74.21391,130.425v-1.2897H70.34482v1.2897a2.48585,2.48585,0,0,0,.75448,1.82492q.058.058.11607.10963-.058.05149-.11607.10962a2.48585,2.48585,0,0,0-.75448,1.82492v1.28961h3.86909v-1.28961h-2.5794a1.288,1.288,0,0,1,1.2863-1.2897h.00341V131.7147a1.288,1.288,0,0,1-1.28971-1.28629V130.425Zm2.57939,5.1587v-6.4484H75.5036v6.4484Zm2.5794,0v-6.4484H78.083v6.4484Z"/><path class="cls-6" d="M79.3727,136.8734H70.34482v1.2897H78.083v1.28969h1.2897Z"/></g><g id="TypoPathKyr-5"><g id="TypoPathKyr-6"><path class="cls-7" d="M74.5552,94.50222H70.16128v4.39392H83.34305V94.50222H78.94913V90.10828h4.39392V85.71435H78.94913V68.13866H74.5552V85.71438H70.16128v4.3939h4.39393Z"/><path class="cls-8" d="M98.98542,70.072A6.59089,6.59089,0,0,0,87.737,74.72956h4.39392a2.197,2.197,0,0,1,4.39392,0V79.475a6.7658,6.7658,0,0,0-2.197-.35152,6.60079,6.60079,0,0,0-6.59084,6.5909V98.89614h4.39392V85.71438a2.197,2.197,0,0,1,4.39392,0V98.89614h4.39393V74.72956A6.34879,6.34879,0,0,0,98.98542,70.072Z"/><path class="cls-7" d="M114.10021,81.32046V76.92652h-4.39362V68.13868h-4.39393V92.30527a6.58658,6.58658,0,1,0,6.59089-6.59089,6.76579,6.76579,0,0,0-2.197.35151V81.32046Zm-.64779,12.53336a2.17482,2.17482,0,1,1,.64779-1.54855A2.11339,2.11339,0,0,1,113.45242,93.85382Z"/><path class="cls-7" d="M129.479,81.32046a6.5868,6.5868,0,1,0-6.59089-6.5909V98.89614h13.18177V94.50222H127.282V80.96892A6.76611,6.76611,0,0,0,129.479,81.32046Zm-1.54857-5.04233a2.17341,2.17341,0,1,1,1.54857.64841,2.11236,2.11236,0,0,1-1.54861-.64841Z"/><path class="cls-7" d="M142.39708,88.175a6.57692,6.57692,0,1,0-1.93332-4.65756A6.34764,6.34764,0,0,0,142.39708,88.175Zm6.20611-3.109a2.1734,2.1734,0,1,1,.64841-1.54855,2.11236,2.11236,0,0,1-.64839,1.54854Z"/><path class="cls-7" d="M166.8273,81.32046V76.92652h-4.39392V68.13868h-4.39394V92.30527a6.58679,6.58679,0,1,0,6.5909-6.59089,6.76581,6.76581,0,0,0-2.197.35151V81.32046Zm-.64841,12.53336a2.17338,2.17338,0,1,1,.64841-1.54855,2.11235,2.11235,0,0,1-.6484,1.54855Z"/><path class="cls-8" d="M186.86359,70.072a6.59089,6.59089,0,0,0-11.24844,4.65756h4.39392a2.197,2.197,0,0,1,4.39392,0V79.475a6.76571,6.76571,0,0,0-2.197-.35151,6.60078,6.60078,0,0,0-6.59088,6.59088V98.89614H180.009V85.71438a2.197,2.197,0,0,1,4.39392,0V98.89614h4.39393V74.72956A6.34765,6.34765,0,0,0,186.86359,70.072Z"/><path class="cls-7" d="M195.12417,96.96282a6.59089,6.59089,0,0,0,11.24844-4.65756h-4.39392a2.197,2.197,0,0,1-4.39392,0V74.72956a2.197,2.197,0,0,1,4.39392,0h4.39392a6.59089,6.59089,0,0,0-13.18178,0V92.30527A6.34767,6.34767,0,0,0,195.12417,96.96282Z"/><path class="cls-7" d="M212.69985,96.96282a6.59089,6.59089,0,0,0,11.24844-4.65756h-4.39392a2.197,2.197,0,0,1-4.39393,0V74.72956a2.197,2.197,0,0,1,4.39393,0h4.39392a6.59089,6.59089,0,0,0-13.18177,0V92.30527A6.34762,6.34762,0,0,0,212.69985,96.96282Z"/><rect class="cls-8" x="140.46376" y="94.50222" width="13.18176" height="4.39392"/><rect class="cls-8" x="140.46376" y="68.13868" width="13.18176" height="4.39392"/></g><g id="TypoPathKyr-7"><path class="cls-8" d="M72.66368,96.39376H68.26975v4.39392H81.45152V96.39376H77.0576V91.99982h4.39392V87.6059H77.0576V70.0302H72.66368V87.6059H68.26975v4.39392h4.39393Z"/><path class="cls-7" d="M97.09389,71.96354A6.59088,6.59088,0,0,0,85.84545,76.6211h4.39392a2.197,2.197,0,0,1,4.39393,0v4.74544a6.7658,6.7658,0,0,0-2.197-.35152,6.6008,6.6008,0,0,0-6.59088,6.5909v13.18176h4.39392V87.6059a2.197,2.197,0,0,1,4.39393,0v13.18178h4.39392V76.6211A6.34879,6.34879,0,0,0,97.09389,71.96354Z"/><path class="cls-8" d="M112.20869,83.212V78.818h-4.39362V70.03019h-4.39393V94.1968a6.58658,6.58658,0,1,0,6.59089-6.5909,6.76572,6.76572,0,0,0-2.197.35152V83.212Zm-.6478,12.53337a2.17482,2.17482,0,1,1,.6478-1.54855A2.11353,2.11353,0,0,1,111.56089,95.74535Z"/><path class="cls-8" d="M127.58743,83.212a6.58679,6.58679,0,1,0-6.59089-6.5909v24.1666H134.1783V96.39376h-8.78784V82.86046A6.76585,6.76585,0,0,0,127.58743,83.212Zm-1.54857-5.04233a2.17341,2.17341,0,1,1,1.54857.64841A2.11235,2.11235,0,0,1,126.03886,78.16965Z"/><path class="cls-8" d="M140.50555,90.0665a6.57692,6.57692,0,1,0-1.93332-4.65756A6.34768,6.34768,0,0,0,140.50555,90.0665Zm6.20612-3.109a2.17338,2.17338,0,1,1,.6484-1.54855A2.11228,2.11228,0,0,1,146.71167,86.95751Z"/><path class="cls-8" d="M164.93577,83.212V78.818h-4.39392V70.03019h-4.39393V94.1968a6.58679,6.58679,0,1,0,6.59089-6.5909,6.76572,6.76572,0,0,0-2.197.35152V83.212Zm-.64841,12.53337a2.17342,2.17342,0,1,1,.64841-1.54855A2.11225,2.11225,0,0,1,164.28736,95.74535Z"/><path class="cls-7" d="M184.97205,71.96354a6.59089,6.59089,0,0,0-11.24844,4.65756h4.39392a2.197,2.197,0,0,1,4.39394,0v4.74544a6.76582,6.76582,0,0,0-2.197-.35152,6.60083,6.60083,0,0,0-6.59088,6.5909v13.18176h4.39392V87.6059a2.197,2.197,0,0,1,4.39394,0v13.18178h4.39392V76.6211A6.34763,6.34763,0,0,0,184.97205,71.96354Z"/><path class="cls-8" d="M193.23264,98.85434a6.5909,6.5909,0,0,0,11.24845-4.65754h-4.39394a2.197,2.197,0,0,1-4.39392,0V76.6211a2.197,2.197,0,0,1,4.39392,0h4.39394a6.59089,6.59089,0,0,0-13.18178,0V94.1968A6.34757,6.34757,0,0,0,193.23264,98.85434Z"/><path class="cls-8" d="M210.80834,98.85434a6.59088,6.59088,0,0,0,11.24844-4.65754h-4.39392a2.197,2.197,0,0,1-4.39393,0V76.6211a2.197,2.197,0,0,1,4.39393,0h4.39392a6.59089,6.59089,0,0,0-13.18177,0V94.1968A6.34757,6.34757,0,0,0,210.80834,98.85434Z"/><rect class="cls-7" x="138.57223" y="70.03022" width="13.18178" height="4.39392"/><rect class="cls-7" x="138.57223" y="96.39376" width="13.18178" height="4.39392"/></g></g><g id="TypoPathLat-3"><path class="cls-9" d="M70.19516,175.3724v4.39267h13.178V175.3724H78.98049v-26.356H74.58783v26.356Z"/><path class="cls-10" d="M87.76583,179.76507H92.1585V155.6054a2.19636,2.19636,0,0,1,4.39267,0v24.15967h4.39267V155.6054a6.589,6.589,0,1,0-13.178,0h0Z"/><path class="cls-9" d="M107.26927,177.83226A6.5848,6.5848,0,1,0,111.9255,166.587a6.76421,6.76421,0,0,0-2.19633.35142v-9.13675a8.77256,8.77256,0,0,0,8.785-8.7601q0-.0126,0-.02524h-4.39267a4.38578,4.38578,0,0,1-4.37889,4.39267q-.00674,0-.01348,0v-4.39267h-4.39267v24.15972A6.347,6.347,0,0,0,107.26927,177.83226Zm6.20465-3.10811a2.17416,2.17416,0,1,1,.64763-1.54811,2.11285,2.11285,0,0,1-.64763,1.54815Z"/><path class="cls-9" d="M131.95578,177.83226a6.589,6.589,0,0,0-4.65622-11.24524,8.78534,8.78534,0,1,0,.0184-17.57067h-4.41108v30.74872h4.39267A6.34583,6.34583,0,0,0,131.95578,177.83226Zm-3.10811-6.20435a2.19635,2.19635,0,0,1-1.54811,3.74445v-4.39267a2.11171,2.11171,0,0,1,1.54811.64827Zm1.56-16.93432a4.39267,4.39267,0,0,1-3.10811,7.50077v-8.78529a4.23756,4.23756,0,0,1,3.10811,1.28455Z"/><path class="cls-9" d="M142.41034,169.047a6.575,6.575,0,1,0-1.93279-4.65622A6.34582,6.34582,0,0,0,142.41034,169.047Zm6.20434-3.10811a2.17276,2.17276,0,1,1,.64823-1.54811,2.11167,2.11167,0,0,1-.64824,1.54811Z"/><path class="cls-9" d="M159.981,177.83226a6.58491,6.58491,0,1,0,4.65624-11.24524,6.764,6.764,0,0,0-2.19634.35142v-9.13675a8.77357,8.77357,0,0,0,8.78533-8.7618q0-.01176,0-.02354h-4.39267a4.38576,4.38576,0,0,1-4.37885,4.39267q-.00689,0-.01381,0v-4.39267h-4.39267v24.15972A6.34589,6.34589,0,0,0,159.981,177.83226Zm6.20435-3.10811a2.17278,2.17278,0,1,1,.64821-1.54811,2.11174,2.11174,0,0,1-.6482,1.54815Z"/><path class="cls-10" d="M175.61891,179.76507h4.39267V155.6054a2.19636,2.19636,0,0,1,4.39266,0v24.15967h4.39267V155.6054a6.589,6.589,0,0,0-13.178,0Z"/><path class="cls-9" d="M195.12235,177.83226a6.589,6.589,0,0,0,11.24522-4.65622h-4.39265a2.18939,2.18939,0,1,1-2.19633-2.19635,6.58491,6.58491,0,1,0-6.589-6.589h4.39267a2.18939,2.18939,0,1,1,2.19634,2.19632,6.58491,6.58491,0,0,0-4.65624,11.24524Z"/><path class="cls-9" d="M212.737,177.83226a6.589,6.589,0,0,0,11.24524-4.65622h-4.39267a2.18939,2.18939,0,1,1-2.19633-2.19635,6.58491,6.58491,0,1,0-6.589-6.589h4.39267a2.18939,2.18939,0,1,1,2.19634,2.19632,6.58491,6.58491,0,0,0-4.65624,11.24524Z"/><rect class="cls-10" x="140.47755" y="175.3724" width="13.17801" height="4.39267"/><rect class="cls-10" x="193.18958" y="149.0164" width="13.17801" height="4.39267"/><rect class="cls-10" x="210.80417" y="149.0164" width="13.17801" height="4.39267"/><rect class="cls-10" x="140.47755" y="149.0164" width="13.17801" height="4.39267"/><path class="cls-10" d="M68.26975,177.29782v4.39266h13.178v-4.39266H77.05509v-26.356H72.66242v26.356Z"/><path class="cls-9" d="M85.84043,181.69048H90.2331V157.5308a2.19636,2.19636,0,0,1,4.39267,0v24.15968h4.39266V157.5308a6.589,6.589,0,0,0-13.178,0h0Z"/><path class="cls-10" d="M105.34387,179.7577a6.5848,6.5848,0,1,0,4.65623-11.24523,6.76422,6.76422,0,0,0-2.19634.35141v-9.13675a8.77255,8.77255,0,0,0,8.785-8.7601q0-.01262,0-.02524h-4.39267a4.38578,4.38578,0,0,1-4.37888,4.39267c-.00449,0-.009,0-.01349,0v-4.39267h-4.39267v24.15968A6.347,6.347,0,0,0,105.34387,179.7577Zm6.20465-3.10811a2.17417,2.17417,0,1,1,.64762-1.54812A2.11287,2.11287,0,0,1,111.54852,176.64959Z"/><path class="cls-10" d="M130.03038,179.7577a6.589,6.589,0,0,0-4.65623-11.24523,8.78534,8.78534,0,1,0,.0084-17.57068h-4.40107v30.74869h4.39267A6.34577,6.34577,0,0,0,130.03038,179.7577Zm-3.10811-6.20435a2.19636,2.19636,0,0,1-1.54812,3.74446v-4.39267A2.11176,2.11176,0,0,1,126.92227,173.55335Zm1.56-16.93433a4.39267,4.39267,0,0,1-3.10811,7.50077v-8.78532a4.2375,4.2375,0,0,1,3.10809,1.28455Z"/><path class="cls-10" d="M140.48492,170.97236a6.575,6.575,0,1,0-1.93277-4.65623A6.3459,6.3459,0,0,0,140.48492,170.97236Zm6.20435-3.10811a2.17277,2.17277,0,1,1,.64821-1.54812,2.11171,2.11171,0,0,1-.64821,1.54814Z"/><path class="cls-10" d="M158.0556,179.7577a6.5849,6.5849,0,1,0,4.65623-11.24523,6.76412,6.76412,0,0,0-2.19633.35141v-9.13675a8.77357,8.77357,0,0,0,8.78534-8.76179q0-.01177,0-.02355h-4.39267a4.38578,4.38578,0,0,1-4.37888,4.39267c-.00459,0-.0092,0-.01379,0v-4.39267h-4.39267v24.15968A6.34574,6.34574,0,0,0,158.0556,179.7577Zm6.20437-3.10811a2.17276,2.17276,0,1,1,.64823-1.54812A2.11172,2.11172,0,0,1,164.26,176.64959Z"/><path class="cls-9" d="M173.69351,181.69048h4.39267V157.5308a2.19636,2.19636,0,0,1,4.39266,0v24.15968h4.39266V157.5308a6.589,6.589,0,0,0-13.178,0Z"/><path class="cls-10" d="M193.197,179.7577a6.589,6.589,0,0,0,11.24523-4.65623h-4.39267a2.18939,2.18939,0,1,1-2.19634-2.19632,6.5849,6.5849,0,1,0-6.589-6.589h4.39267a2.18939,2.18939,0,1,1,2.19633,2.19634A6.58491,6.58491,0,0,0,193.197,179.7577Z"/><path class="cls-10" d="M210.81154,179.7577a6.589,6.589,0,0,0,11.24523-4.65623H217.6641a2.18939,2.18939,0,1,1-2.19634-2.19632,6.58491,6.58491,0,1,0-6.589-6.589h4.39265a2.18939,2.18939,0,1,1,2.19634,2.19634,6.58491,6.58491,0,0,0-4.65624,11.24523Z"/><rect class="cls-9" x="138.55215" y="177.29782" width="13.17801" height="4.39267"/><rect class="cls-9" x="191.26417" y="150.9418" width="13.17801" height="4.39267"/><rect class="cls-9" x="208.87877" y="150.9418" width="13.17801" height="4.39267"/><rect class="cls-9" x="138.55215" y="150.9418" width="13.17801" height="4.39267"/></g><rect class="cls-3" x="85.68095" y="105.5239" width="120.88964" height="38.68456"/><path class="cls-4" d="M206.07085,143.70865V106.02359H86.1811v37.68506H206.07085m1,1H85.1811V105.02359H207.07085Z"/><rect class="cls-2" x="88.51591" y="108.35788" width="115.2207" height="33.01611"/><path class="cls-4" d="M203.2362,140.874V108.85828H89.01574V140.874H203.2362m1,1H88.01574V107.85828H204.2362Z"/><path class="cls-5" d="M96.48827,131.07746a2.34407,2.34407,0,0,0-3.89844,1.89453,2.23739,2.23739,0,0,0,.78125,1.61328,2.27939,2.27939,0,0,0,1.69532.58594,2.23237,2.23237,0,0,0,1.60937-.78125l.00781-.00781,2.53907-2.85938-1.17188-1.03907-1.07031,1.20312A2.379,2.379,0,0,0,96.48827,131.07746Zm-1.60547.98047a.7626.7626,0,0,1,.56641.1914.77123.77123,0,0,1,.25781.53907.76033.76033,0,0,1-.1875.55468l-.00781.00782a.74537.74537,0,0,1-.53907.26171.73014.73014,0,0,1-.5625-.19921.77428.77428,0,0,1-.0704-1.09272l.00791-.00885A.75158.75158,0,0,1,94.8828,132.05793Z"/><path class="cls-5" d="M101.88183,137.61651a2.34229,2.34229,0,1,0,1.65625-4,2.41626,2.41626,0,0,0-.78125.125v-6.375h-1.5625v8.59375A2.25686,2.25686,0,0,0,101.88183,137.61651Zm2.207-1.10546a.77337.77337,0,1,1,.23047-.55078.75346.75346,0,0,1-.23045.55078Z"/><path class="cls-5" d="M111.36962,136.74152h-1.5625V135.179h1.5625v-1.5625h-1.5625v-6.25h-1.5625V138.304h3.125Z"/><path class="cls-5" d="M116.85692,136.74152h-1.5625V135.179h1.5625v-1.5625h-1.5625V128.929h1.5625v-1.5625h-3.125V138.304h3.125Z"/><path class="cls-5" d="M119.21971,127.36652V138.304h1.5625v-9.375h1.5625v-1.5625Z"/><path class="cls-5" d="M125.39452,137.61651a2.34375,2.34375,0,0,0,4-1.65624H127.832a.77893.77893,0,1,1-.78125-.78125,2.34229,2.34229,0,1,0-2.34375-2.34375h1.5625a.77893.77893,0,1,1,.78125.78125,2.34229,2.34229,0,0,0-1.65625,4Z"/><path class="cls-5" d="M135.67869,131.07746a2.34406,2.34406,0,0,0-3.89843,1.89453,2.23739,2.23739,0,0,0,.78125,1.61328,2.27936,2.27936,0,0,0,1.69531.58594,2.23239,2.23239,0,0,0,1.60937-.78125l.00782-.00781,2.53906-2.85938-1.17188-1.03907-1.07031,1.20312A2.37855,2.37855,0,0,0,135.67869,131.07746Zm-1.60546.98047a.76257.76257,0,0,1,.5664.1914.77119.77119,0,0,1,.25781.53907.76039.76039,0,0,1-.1875.55468l-.00781.00782a.74534.74534,0,0,1-.53906.26171.73011.73011,0,0,1-.5625-.19921.77427.77427,0,0,1-.0704-1.09272l.0079-.00885A.75162.75162,0,0,1,134.07323,132.05793Z"/><path class="cls-5" d="M143.51024,136.74152h-1.5625V135.179h1.5625v-1.5625h-1.5625v-6.25h-1.5625V138.304h3.125Z"/><path class="cls-5" d="M145.87254,136.74152V138.304h4.687v-1.56249H148.997v-9.375h-1.5625v9.375Z"/><path class="cls-5" d="M160.75389,132.83527l.78125-2.34375h1.5625l1.5625,4.6875h-1.5625l-.78125-2.34375-.78125,2.34375h-1.5625l-.78125-2.34375-.78125,2.34375h-1.5625l1.5625-4.6875h1.5625Z"/><path class="cls-5" d="M170.92869,131.07746a2.34407,2.34407,0,0,0-3.89844,1.89453,2.23566,2.23566,0,0,0,.78125,1.61328,2.28,2.28,0,0,0,1.69532.58594,2.23241,2.23241,0,0,0,1.60937-.78125l.00781-.00781,2.53907-2.85938-1.17188-1.03907-1.07031,1.20312A2.37876,2.37876,0,0,0,170.92869,131.07746Zm-1.60547.98047a.7626.7626,0,0,1,.56641.1914.77123.77123,0,0,1,.25781.53907.75624.75624,0,0,1-.1875.55468l-.00781.00782a.74536.74536,0,0,1-.53906.26171.73008.73008,0,0,1-.5625-.19921.77427.77427,0,0,1-.07041-1.09272l.00791-.00885A.75249.75249,0,0,1,169.32322,132.05793Z"/><path class="cls-5" d="M176.32224,137.61651a2.34375,2.34375,0,0,0,4-1.65624h-1.5625a.77892.77892,0,1,1-.78125-.78125,2.34229,2.34229,0,1,0-2.34375-2.34375h1.5625a.77893.77893,0,1,1,.78125.78125,2.34229,2.34229,0,0,0-1.65625,4Z"/><path class="cls-5" d="M183.38865,137.61651a2.34375,2.34375,0,0,0,4-1.65624h-1.5625a.77893.77893,0,1,1-.78125-.78125,2.34229,2.34229,0,1,0-2.34375-2.34375h1.5625a.77893.77893,0,1,1,.78125.78125,2.34229,2.34229,0,0,0-1.65625,4Z"/><path class="cls-5" d="M192.89158,136.74152h-1.5625V135.179h1.5625v-1.5625h-1.5625V128.929h1.5625v-1.5625h-3.125V138.304h3.125Z"/><path class="cls-5" d="M195.94138,137.61651a2.34229,2.34229,0,1,0,1.65625-4,2.41631,2.41631,0,0,0-.78125.125v-3.25a3.12081,3.12081,0,0,0,3.125-3.11664v-.00836h-1.5625a1.56041,1.56041,0,0,1-1.5583,1.5625h-.0042v-1.5625h-1.5625v8.59375A2.25881,2.25881,0,0,0,195.94138,137.61651Zm2.207-1.10546a.77337.77337,0,1,1,.23047-.55078.75187.75187,0,0,1-.23044.55078Z"/><path class="cls-5" d="M97.26952,119.179H95.707l-.78125-2.34375-.78125,2.34375H92.582l1.5625-4.6875H95.707Z"/><path class="cls-5" d="M99.98339,118.49152a2.33879,2.33879,0,1,0-.6875-1.65625A2.25877,2.25877,0,0,0,99.98339,118.49152Zm2.207-1.10547a.77338.77338,0,1,1,.23047-.55078.75345.75345,0,0,1-.23044.55078Z"/><path class="cls-5" d="M110.01023,121.61652a2.25684,2.25684,0,0,0,.6875-1.65625v-6.25a2.34728,2.34728,0,0,0-2.34375-2.34375h-2.34375V122.304H108.354A2.25878,2.25878,0,0,0,110.01023,121.61652Zm-1.10546-1.10547a.75353.75353,0,0,1-.55079.23047h-.78125V112.929h.78125a.78692.78692,0,0,1,.78125.78125v6.25A.75.75,0,0,1,108.90477,120.51105Z"/><path class="cls-5" d="M115.39208,117.18292a1.50623,1.50623,0,0,1-1.10547.457v-6.27343h-1.5625V122.304h1.5625v-1.5625a1.5604,1.5604,0,0,1,1.5625,1.55829v.00421h1.5625a3.1313,3.1313,0,0,0-2.83594-3.11719,2.96774,2.96774,0,0,0,1.92188-.89844,3.01231,3.01231,0,0,0,.91406-2.21094v-4.71093h-1.5625v4.71093A1.50535,1.50535,0,0,1,115.39208,117.18292Z"/><path class="cls-5" d="M123.34422,115.07746a2.34406,2.34406,0,0,0-3.89843,1.89453,2.23733,2.23733,0,0,0,.78125,1.61328,2.27929,2.27929,0,0,0,1.69531.58593,2.23241,2.23241,0,0,0,1.60938-.78125l.00781-.00781,2.53907-2.85937-1.17187-1.03906-1.07031,1.20312A2.37914,2.37914,0,0,0,123.34422,115.07746Zm-1.60546.98046a.76255.76255,0,0,1,.5664.19141.77125.77125,0,0,1,.25781.53906.76034.76034,0,0,1-.1875.55469l-.00781.00781a.74538.74538,0,0,1-.53907.26171.7301.7301,0,0,1-.5625-.19921.77427.77427,0,0,1-.0704-1.09271l.0079-.00885A.75167.75167,0,0,1,121.73876,116.05792Z"/><path class="cls-5" d="M131.3037,122.304h1.5625v-8.59375a.78125.78125,0,0,1,1.56249,0V122.304h1.5625v-8.59375a2.34375,2.34375,0,1,0-4.68749,0h0Z"/><path class="cls-5" d="M139.58006,111.36652h-1.5625V122.304h1.5625v-.85938l1.5625-1.5625V122.304h1.5625V111.36652h-1.5625v6.25l-1.5625,1.5625Z"/><path class="cls-5" d="M148.73143,121.61652a2.25885,2.25885,0,0,0,.6875-1.65625v-6.25a2.34728,2.34728,0,0,0-2.34375-2.34375h-2.34375V122.304h2.34375A2.25881,2.25881,0,0,0,148.73143,121.61652Zm-1.10547-1.10547a.755.755,0,0,1-.55078.23047H146.294V112.929h.78125a.787.787,0,0,1,.78125.78125v6.25a.75182.75182,0,0,1-.2305.55078Z"/><path class="cls-5" d="M156.82713,113.15949a.78126.78126,0,0,1,1.332.55078h1.5625a2.34375,2.34375,0,1,0-4.6875,0h0v3.125h1.5625a.77893.77893,0,1,1,.78125.78125,2.34229,2.34229,0,1,0,2.34375,2.34375,2.23172,2.23172,0,0,0-.60156-1.5625,2.23175,2.23175,0,0,0,.60156-1.5625,2.34728,2.34728,0,0,0-2.34375-2.34375,2.41631,2.41631,0,0,0-.78125.125v-.90625A.75179.75179,0,0,1,156.82713,113.15949Zm1.10156,7.35156a.77338.77338,0,1,1,.23047-.55078A.75188.75188,0,0,1,157.92869,120.51105Z"/><path class="cls-5" d="M164.873,120.74152h-1.5625V119.179h1.5625v-1.5625h-1.5625V112.929h1.5625v-1.5625h-3.125V122.304h3.125Z"/><path class="cls-5" d="M170.80662,116.83527l.78125-2.34375h1.5625l1.5625,4.6875h-1.5625l-.78125-2.34375-.78125,2.34375h-1.5625l-.78125-2.34375-.78125,2.34375h-1.5625l1.5625-4.6875h1.5625Z"/><path class="cls-5" d="M176.73924,122.304h1.5625v-8.59375a.78126.78126,0,0,1,1.5625,0V122.304h1.5625v-8.59375a2.34375,2.34375,0,1,0-4.6875,0h0Z"/><path class="cls-5" d="M186.5781,120.74152h-1.5625V119.179h1.5625v-1.5625h-1.5625V112.929h1.5625v-1.5625h-3.125V122.304h3.125Z"/><path class="cls-5" d="M189.292,121.61652a2.34229,2.34229,0,1,0,1.65625-4,2.41635,2.41635,0,0,0-.78125.125v-3.25a3.1208,3.1208,0,0,0,3.125-3.11661v-.00839h-1.5625a1.5604,1.5604,0,0,1-1.5583,1.5625h-.0042v-1.5625h-1.5625v8.59375A2.25885,2.25885,0,0,0,189.292,121.61652Zm2.207-1.10547a.77339.77339,0,1,1,.23046-.55078.75188.75188,0,0,1-.23048.55078Z"/><path class="cls-5" d="M195.31834,120.74152v1.5625h4.6875v-1.5625L197.084,116.054h2.92188v-1.5625h-4.6875v1.5625l2.92187,4.6875Z"/><rect class="cls-5" x="92.58202" y="136.74152" width="6.25" height="1.5625"/><rect class="cls-5" x="92.58202" y="127.36652" width="6.25" height="1.5625"/><rect class="cls-5" x="124.70702" y="127.36652" width="13.31543" height="1.5625"/><rect class="cls-5" x="131.77245" y="136.74152" width="6.25" height="1.5625"/><rect class="cls-5" x="156.84764" y="136.74152" width="16.4248" height="1.5625"/><rect class="cls-5" x="156.84764" y="127.36652" width="30.54101" height="1.5625"/><rect class="cls-5" x="92.58202" y="120.74152" width="11.40137" height="1.5625"/><rect class="cls-5" x="92.58202" y="111.36652" width="11.40137" height="1.5625"/><rect class="cls-5" x="119.43797" y="120.74152" width="6.25" height="1.5625"/><rect class="cls-5" x="119.43797" y="111.36652" width="6.25" height="1.5625"/><rect class="cls-5" x="166.90037" y="120.74152" width="7.8125" height="1.5625"/><rect class="cls-5" x="166.90037" y="111.36652" width="7.8125" height="1.5625"/><rect class="cls-5" x="195.31834" y="111.36652" width="4.6875" height="1.5625"/><line class="cls-11" x1="53.99999" y1="249.73225" x2="53.99999" y2="213.73226"/><line class="cls-11" y1="195.73226" x2="36" y2="195.73226"/><line class="cls-11" y1="53.99999" x2="36" y2="53.99999"/><line class="cls-11" x1="53.99999" x2="53.99999" y2="36"/><line class="cls-11" x1="238.25194" y1="249.73225" x2="238.25194" y2="213.73226"/><line class="cls-11" x1="292.25195" y1="195.73226" x2="256.25195" y2="195.73226"/><line class="cls-11" x1="292.25195" y1="53.99999" x2="256.25195" y2="53.99999"/><line class="cls-11" x1="238.25194" x2="238.25194" y2="36"/></symbol></defs><g id="Layer_6" data-name="Layer 6"><use width="292.25183" height="405.63757" transform="matrix(1, 0, 0, -1, -264.36292, 273.68481)" xlink:href="#TURBORUSS_FRONT"/><g class="cls-17"><use width="292.25195" height="249.73225" transform="matrix(1, 0, 0, -1, -54, 195.73241)" xlink:href="#TURBORUSS_BACK"/></g></g><rect class="cls-18" x="11.61591" y="92.21073" width="161.02016" height="37.91606"/><rect class="cls-18" x="11.50035" y="11.50389" width="161.02016" height="37.91606"/><g id="Typo_Back" data-name="Typo Back"><g id="Alc"><path class="cls-19" d="M159.30838,84.57617c.00386-.01592.00981-.0238.01785-.0238h8.2891c.0119,0,.01785.00788.01785.0238v1.14845a.0158.0158,0,0,1-.01338.01787h-7.10941v1.17224c0,.01191-.008.01786-.0238.01786h-1.16036q-.01785-.006-.01785-.01786Z"/><path class="cls-19" d="M160.49252,83.36226v-1.1901h3.57032V80.98205H159.3024V79.79194h8.33075v1.19011H165.253v2.38021Z"/><path class="cls-19" d="M159.82607,78.07819a1.78138,1.78138,0,1,1,1.2615.52365A1.71917,1.71917,0,0,1,159.82607,78.07819Zm.84191-1.6811a.58927.58927,0,1,0,.41959-.17546.57319.57319,0,0,0-.41957.17545Zm-1.36557-2.55567,8.33075,2.38021V75.03152l-8.33075-2.38021Zm5.28408-.52366a1.78136,1.78136,0,1,1,1.2615.52366,1.71928,1.71928,0,0,1-1.26149-.52366Zm.84192-1.68109a.58921.58921,0,1,0,.41958-.17547.57322.57322,0,0,0-.41957.17546Z"/><path class="cls-19" d="M161.68263,63.13045v1.1901l1.78516.59506-1.78516.59505v1.19011l3.57031-1.19011V64.32055Z"/><path class="cls-19" d="M160.49252,58.37v8.33075h-1.19011V58.37Zm1.71376,3.04667a1.78137,1.78137,0,1,1,1.26151.52365,1.71926,1.71926,0,0,1-1.26151-.52363ZM167.63316,58.37v8.33075h-1.19009V58.37Zm-4.585,1.36557a.58924.58924,0,1,0,.41958-.17546.57319.57319,0,0,0-.41954.17548Z"/><path class="cls-19" d="M167.63316,57.17991h-8.33075v-1.1901h7.14066V54.7997h1.19009Z"/></g><g id="ml"><path class="cls-20" d="M17.63452,85.45281H16.34483V81.58372h1.28969l4.51394,2.60518V82.87341h1.2897v1.28971h1.93455v1.2897H21.76155l-4.127-2.37949Z"/><path class="cls-20" d="M19.49169,79.72655a1.93044,1.93044,0,1,1,1.36708.56746A1.86314,1.86314,0,0,1,19.49169,79.72655Zm.91237-1.82178a.63854.63854,0,1,0,.45471-.19015A.62115.62115,0,0,0,20.40406,77.90477Z"/><path class="cls-20" d="M19.49169,74.56776a1.93044,1.93044,0,1,1,1.36708.56746A1.8631,1.8631,0,0,1,19.49169,74.56776Zm.91237-1.82178a.63854.63854,0,1,0,.45471-.19015.62117.62117,0,0,0-.45471.19017Z"/><path class="cls-20" d="M20.21392,65.30727V66.597H16.34483V65.3073a2.48584,2.48584,0,0,1,.75447-1.82492q.058-.058.11607-.10963-.058-.05151-.11607-.10962a2.48587,2.48587,0,0,1-.75447-1.82492V60.14857h3.86909v1.28961h-2.5794a1.288,1.288,0,0,0,1.2863,1.2897h.0034v1.28969a1.288,1.288,0,0,0-1.2897,1.2863v.0034Zm2.57939-5.1587V66.597h-1.2897V60.1486Zm2.5794,0V66.597H24.083V60.1486Z"/><path class="cls-20" d="M25.37271,58.85887H16.34483v-1.2897H24.083V56.27948h1.2897Z"/></g><g id="TypoPathKyr"><g id="TypoPathKyr-2"><path class="cls-21" d="M20.55521,20.23H16.16129V15.83613H29.34306V20.23H24.94914v4.394h4.39392v4.39393H24.94914V46.59362H20.55521V29.0179H16.16129V24.624h4.39392Z"/><path class="cls-22" d="M44.98543,44.66027A6.59088,6.59088,0,0,1,33.737,40.00271h4.39392a2.197,2.197,0,0,0,4.39392,0V35.25727a6.76606,6.76606,0,0,1-2.197.35151A6.60079,6.60079,0,0,1,33.737,29.0179V15.83613h4.39392V29.0179a2.197,2.197,0,0,0,4.39392,0V15.83613h4.39393V40.00271A6.34877,6.34877,0,0,1,44.98543,44.66027Z"/><path class="cls-21" d="M60.10023,33.41182v4.39393H55.70661v8.78784H51.31268V22.427a6.58658,6.58658,0,1,1,6.59089,6.59089,6.7658,6.7658,0,0,1-2.197-.35152v4.74544Zm-.6478-12.53337a2.17481,2.17481,0,1,0,.6478,1.54856A2.11344,2.11344,0,0,0,59.45243,20.87845Z"/><path class="cls-21" d="M75.479,33.41182a6.58679,6.58679,0,1,1-6.59089,6.59089V15.83613H82.06985V20.23H73.282V33.76334A6.76572,6.76572,0,0,1,75.479,33.41182Zm-1.54857,5.04233a2.17341,2.17341,0,1,0,1.54857-.6484,2.11229,2.11229,0,0,0-1.5486.6484Z"/><path class="cls-21" d="M88.3971,26.5573a6.57691,6.57691,0,1,1-1.93332,4.65756A6.34766,6.34766,0,0,1,88.3971,26.5573Zm6.20613,3.109a2.1734,2.1734,0,1,0,.6484,1.54856A2.11236,2.11236,0,0,0,94.60323,29.6663Z"/><path class="cls-21" d="M112.82732,33.41182v4.39393H108.4334v8.78784h-4.39393V22.427a6.58679,6.58679,0,1,1,6.59089,6.59089,6.7658,6.7658,0,0,1-2.197-.35152v4.74544Zm-.6484-12.53337a2.1734,2.1734,0,1,0,.6484,1.54856A2.11232,2.11232,0,0,0,112.17892,20.87845Z"/><path class="cls-22" d="M132.86362,44.66027a6.59088,6.59088,0,0,1-11.24845-4.65756h4.39392a2.197,2.197,0,0,0,4.39393,0V35.25727a6.76608,6.76608,0,0,1-2.197.35151,6.60079,6.60079,0,0,1-6.59088-6.59088V15.83613h4.39392V29.0179a2.197,2.197,0,0,0,4.39392,0V15.83613h4.39394V40.00271A6.34774,6.34774,0,0,1,132.86362,44.66027Z"/><path class="cls-21" d="M141.12419,17.76945A6.59087,6.59087,0,0,1,152.37263,22.427h-4.39392a2.197,2.197,0,0,0-4.39392,0v17.5757a2.197,2.197,0,0,0,4.39392,0h4.39392a6.59089,6.59089,0,0,1-13.18177,0V22.427A6.3477,6.3477,0,0,1,141.12419,17.76945Z"/><path class="cls-21" d="M158.69987,17.76945A6.59089,6.59089,0,0,1,169.94832,22.427H165.5544a2.197,2.197,0,0,0-4.39394,0v17.5757a2.197,2.197,0,0,0,4.39394,0h4.39392a6.59089,6.59089,0,0,1-13.18178,0V22.427A6.34773,6.34773,0,0,1,158.69987,17.76945Z"/><rect class="cls-22" x="86.46378" y="15.83613" width="13.18177" height="4.39392"/><rect class="cls-22" x="86.46378" y="42.19967" width="13.18177" height="4.39392"/></g><g id="TypoPathKyr-3"><path class="cls-22" d="M18.66369,18.33852H14.26976V13.9446H27.45153v4.39392H23.05761v4.39393h4.39392v4.39392H23.05761v17.5757H18.66369V27.12637H14.26976V22.73245h4.39393Z"/><path class="cls-21" d="M43.0939,42.76874a6.59088,6.59088,0,0,1-11.24844-4.65756h4.39392a2.197,2.197,0,0,0,4.39393,0V33.36574a6.76606,6.76606,0,0,1-2.197.35151,6.60081,6.60081,0,0,1-6.59088-6.59088V13.9446h4.39392V27.12637a2.197,2.197,0,0,0,4.39393,0V13.9446H45.0272V38.11118A6.34883,6.34883,0,0,1,43.0939,42.76874Z"/><path class="cls-22" d="M58.2087,31.52029v4.39393H53.81508v8.78784H49.42115V20.53548A6.58658,6.58658,0,1,1,56.012,27.12637a6.76633,6.76633,0,0,1-2.197-.35151v4.74543Zm-.6478-12.53337a2.17481,2.17481,0,1,0,.6478,1.54856A2.11349,2.11349,0,0,0,57.5609,18.98692Z"/><path class="cls-22" d="M73.58744,31.52029a6.58679,6.58679,0,1,1-6.59089,6.59089V13.9446H80.17832v4.39392H71.39048V31.87181A6.7661,6.7661,0,0,1,73.58744,31.52029Zm-1.54856,5.04232a2.17342,2.17342,0,1,0,1.54856-.64839A2.11235,2.11235,0,0,0,72.03888,36.56261Z"/><path class="cls-22" d="M86.50557,24.66577a6.57691,6.57691,0,1,1-1.93332,4.65756A6.34762,6.34762,0,0,1,86.50557,24.66577Zm6.20612,3.109a2.17336,2.17336,0,1,0,.64841,1.54856A2.11229,2.11229,0,0,0,92.71169,27.77477Z"/><path class="cls-22" d="M110.93579,31.52029v4.39393h-4.39392v8.78784h-4.39393V20.53548a6.58679,6.58679,0,1,1,6.59089,6.59089,6.76633,6.76633,0,0,1-2.197-.35151v4.74543Zm-.6484-12.53337a2.1734,2.1734,0,1,0,.6484,1.54856A2.11233,2.11233,0,0,0,110.28739,18.98692Z"/><path class="cls-21" d="M130.97208,42.76874a6.5909,6.5909,0,0,1-11.24845-4.65756h4.39392a2.197,2.197,0,0,0,4.39394,0V33.36574a6.76606,6.76606,0,0,1-2.197.35151,6.60082,6.60082,0,0,1-6.59088-6.59088V13.9446h4.39392V27.12637a2.197,2.197,0,0,0,4.39393,0V13.9446h4.39392V38.11118A6.34761,6.34761,0,0,1,130.97208,42.76874Z"/><path class="cls-22" d="M139.23267,15.87793a6.59089,6.59089,0,0,1,11.24844,4.65755h-4.39394a2.197,2.197,0,0,0-4.39392,0v17.5757a2.197,2.197,0,0,0,4.39392,0h4.39394a6.59089,6.59089,0,0,1-13.18178,0V20.53548A6.3476,6.3476,0,0,1,139.23267,15.87793Z"/><path class="cls-22" d="M156.80836,15.87793a6.59089,6.59089,0,0,1,11.24845,4.65755h-4.39392a2.197,2.197,0,0,0-4.39394,0v17.5757a2.197,2.197,0,0,0,4.39394,0h4.39392a6.59089,6.59089,0,0,1-13.18178,0V20.53548A6.34763,6.34763,0,0,1,156.80836,15.87793Z"/><rect class="cls-21" x="84.57225" y="40.30814" width="13.18177" height="4.39392"/><rect class="cls-21" x="84.57225" y="13.9446" width="13.18177" height="4.39392"/></g></g><g id="TypoPathLat"><path class="cls-23" d="M16.19517,101.35986V96.96719h13.178v4.39267H24.9805v26.356H20.58784v-26.356Z"/><path class="cls-24" d="M33.76584,96.96719h4.39267v24.15968a2.19636,2.19636,0,0,0,4.39267,0V96.96719h4.39267v24.15968a6.58491,6.58491,0,0,1-11.24523,4.65623,6.347,6.347,0,0,1-1.93278-4.65623Z"/><path class="cls-23" d="M53.26929,98.9a6.58722,6.58722,0,1,1,4.65623,11.24523,6.76386,6.76386,0,0,1-2.19633-.35142v9.13675a8.77255,8.77255,0,0,1,8.785,8.7601q0,.01262,0,.02524H60.12156a4.38578,4.38578,0,0,0-4.37888-4.39267h-.01349v4.39267H51.33652V103.55619A6.347,6.347,0,0,1,53.26929,98.9Zm6.20465,3.10811a2.17418,2.17418,0,1,0,.64762,1.54812,2.11289,2.11289,0,0,0-.64762-1.54816Z"/><path class="cls-23" d="M77.95579,98.9a6.575,6.575,0,0,1,.014,9.29844l-.014.014a6.34579,6.34579,0,0,1-4.65622,1.93278A8.77357,8.77357,0,0,1,82.0849,118.907q0,.01177,0,.02354a8.77357,8.77357,0,0,1-8.76179,8.78534q-.01176,0-.02354,0H68.9069V96.96719h4.39267A6.34582,6.34582,0,0,1,77.95579,98.9Zm-3.10811,6.20435a2.19635,2.19635,0,0,0-1.54811-3.74445v4.39267a2.11173,2.11173,0,0,0,1.54811-.64826Zm1.56,16.93433a4.39268,4.39268,0,0,0-3.10811-7.50078v8.7853a4.23751,4.23751,0,0,0,3.10811-1.28456Z"/><path class="cls-23" d="M88.41035,107.6853a6.589,6.589,0,1,1-1.93277,4.66781A6.589,6.589,0,0,1,88.41035,107.6853Zm6.20434,3.10811a2.17277,2.17277,0,1,0,.64821,1.54812A2.11168,2.11168,0,0,0,94.61469,110.79341Z"/><path class="cls-23" d="M105.981,98.9a6.5873,6.5873,0,1,1,4.65624,11.24523,6.76386,6.76386,0,0,1-2.19633-.35142v9.13675a8.77357,8.77357,0,0,1,8.78533,8.76179q0,.01177,0,.02355h-4.39267a4.38577,4.38577,0,0,0-4.37884-4.39267h-.01382v4.39267h-4.39267V103.55619A6.34591,6.34591,0,0,1,105.981,98.9Zm6.20436,3.10811a2.1728,2.1728,0,1,0,.6482,1.54812,2.11172,2.11172,0,0,0-.64819-1.54816Z"/><path class="cls-24" d="M121.61892,96.96719h4.39267v24.15968a2.19636,2.19636,0,0,0,4.39268,0V96.96719h4.39267v24.15968a6.589,6.589,0,0,1-13.178,0h0Z"/><path class="cls-23" d="M141.12238,98.9a6.589,6.589,0,0,1,11.24522,4.65623H147.975a2.18939,2.18939,0,1,0-2.19634,2.19634,6.58566,6.58566,0,1,1-6.589,6.589h4.39267a2.18939,2.18939,0,1,0,2.19634-2.19633,6.59893,6.59893,0,0,1-6.589-6.589A6.34581,6.34581,0,0,1,141.12238,98.9Z"/><path class="cls-23" d="M158.737,98.9a6.589,6.589,0,0,1,11.24524,4.65623h-4.39267a2.18939,2.18939,0,1,0-2.19634,2.19634,6.58566,6.58566,0,1,1-6.589,6.589h4.39267a2.18939,2.18939,0,1,0,2.19634-2.19633,6.59894,6.59894,0,0,1-6.589-6.589A6.34589,6.34589,0,0,1,158.737,98.9Z"/><rect class="cls-24" x="86.47757" y="96.96719" width="13.17801" height="4.39267"/><rect class="cls-24" x="139.18961" y="123.3232" width="13.17801" height="4.39267"/><rect class="cls-24" x="156.8042" y="123.3232" width="13.17801" height="4.39267"/><rect class="cls-24" x="86.47757" y="123.3232" width="13.17801" height="4.39267"/><path class="cls-24" d="M14.26976,99.43445V95.04178h13.178v4.39267H23.0551v26.356H18.66243v-26.356Z"/><path class="cls-23" d="M31.84044,95.04178h4.39267v24.15968a2.19636,2.19636,0,0,0,4.39267,0V95.04178h4.39266v24.15968a6.5849,6.5849,0,0,1-11.24523,4.65623,6.347,6.347,0,0,1-1.93277-4.65623Z"/><path class="cls-24" d="M51.34389,96.97456a6.58722,6.58722,0,1,1,4.65623,11.24523,6.76426,6.76426,0,0,1-2.19634-.35141v9.13675a8.77256,8.77256,0,0,1,8.785,8.7601q0,.01261,0,.02524H58.19615a4.38578,4.38578,0,0,0-4.37888-4.39267q-.00675,0-.01349,0v4.39267H49.41111V101.63079A6.347,6.347,0,0,1,51.34389,96.97456Zm6.20464,3.10811a2.17418,2.17418,0,1,0,.64762,1.54812A2.11284,2.11284,0,0,0,57.54853,100.08267Z"/><path class="cls-24" d="M76.03039,96.97456a6.575,6.575,0,0,1,.014,9.29844l-.014.014a6.34582,6.34582,0,0,1-4.65623,1.93277,8.77357,8.77357,0,0,1,8.78534,8.76179q0,.01178,0,.02355a8.77356,8.77356,0,0,1-8.76179,8.78534q-.01178,0-.02355,0H66.98149V95.04178h4.39267A6.34583,6.34583,0,0,1,76.03039,96.97456Zm-3.10811,6.20435a2.19636,2.19636,0,0,0-1.54812-3.74446v4.39267A2.11176,2.11176,0,0,0,72.92228,103.17891Zm1.56,16.93433a4.39267,4.39267,0,0,0-3.10811-7.50078v8.78534A4.23753,4.23753,0,0,0,74.48228,120.11324Z"/><path class="cls-24" d="M86.48494,105.7599a6.589,6.589,0,1,1-1.93276,4.6678A6.589,6.589,0,0,1,86.48494,105.7599Zm6.20435,3.1081a2.17279,2.17279,0,1,0,.64821,1.54812A2.11168,2.11168,0,0,0,92.68929,108.868Z"/><path class="cls-24" d="M104.05562,96.97456a6.5873,6.5873,0,1,1,4.65623,11.24523,6.76422,6.76422,0,0,1-2.19634-.35141v9.13675a8.77357,8.77357,0,0,1,8.78534,8.76178q0,.01179,0,.02356h-4.39267a4.38578,4.38578,0,0,0-4.37888-4.39267q-.0069,0-.01379,0v4.39267h-4.39267V101.63079A6.34579,6.34579,0,0,1,104.05562,96.97456Zm6.20438,3.10811a2.17276,2.17276,0,1,0,.64822,1.54812A2.11173,2.11173,0,0,0,110.26,100.08267Z"/><path class="cls-23" d="M119.69352,95.04178h4.39267v24.15968a2.19636,2.19636,0,0,0,4.39268,0V95.04178h4.39265v24.15968a6.589,6.589,0,0,1-13.178,0Z"/><path class="cls-24" d="M139.197,96.97456a6.589,6.589,0,0,1,11.24522,4.65623h-4.39267a2.18939,2.18939,0,1,0-2.19633,2.19633,6.58566,6.58566,0,1,1-6.589,6.589h4.39267a2.18939,2.18939,0,1,0,2.19633-2.19634,6.59892,6.59892,0,0,1-6.589-6.589A6.34572,6.34572,0,0,1,139.197,96.97456Z"/><path class="cls-24" d="M156.81157,96.97456a6.589,6.589,0,0,1,11.24522,4.65623h-4.39267a2.18939,2.18939,0,1,0-2.19633,2.19633,6.58566,6.58566,0,1,1-6.589,6.589h4.39265a2.18939,2.18939,0,1,0,2.19634-2.19634,6.59892,6.59892,0,0,1-6.589-6.589A6.34582,6.34582,0,0,1,156.81157,96.97456Z"/><rect class="cls-23" x="84.55217" y="95.04178" width="13.17801" height="4.39267"/><rect class="cls-23" x="137.26419" y="121.3978" width="13.17801" height="4.39267"/><rect class="cls-23" x="154.8788" y="121.3978" width="13.17801" height="4.39267"/><rect class="cls-23" x="84.55217" y="121.3978" width="13.17801" height="4.39267"/></g></g></svg>