<svg xmlns="http://www.w3.org/2000/svg" xmlns:xlink="http://www.w3.org/1999/xlink" viewBox="0 0 184.25197 297.6378"><defs><style>.cls-1{fill:#cc2027;}.cls-11,.cls-2,.cls-5,.cls-6{fill:#ede3d9;}.cls-3{fill:#131313;}.cls-10,.cls-4{fill:#fdb614;}.cls-4,.cls-5{stroke:#131313;}.cls-10,.cls-11,.cls-4,.cls-5,.cls-6{stroke-miterlimit:10;}.cls-6{stroke:#231f20;}.cls-12,.cls-7,.cls-8{fill:none;}.cls-12,.cls-7{stroke:#000;}.cls-7{stroke-width:0.3px;}.cls-9{fill:#ce2029;}.cls-10,.cls-11{stroke:#262626;}.cls-12{stroke-width:0.3px;}</style><symbol id="TURBORUSS_FRONT" data-name="TURBORUSS FRONT" viewBox="0 0 292.252 405.638"><rect class="cls-1" x="54" y="54" width="184.25197" height="297.6378"/><rect class="cls-2" x="58.75198" y="58.75197" width="174.748" height="288.13385"/><path class="cls-3" d="M233,59.252V346.38579H59.252V59.252H233m1-1H58.252V347.38579H234V58.252Z"/><rect class="cls-1" x="63.00395" y="63.00394" width="166.24406" height="279.62991"/><path class="cls-3" d="M228.74805,63.504V342.13384H63.50391V63.504H228.74805m1-1H62.50391V343.13384H229.74805V62.504Z"/><g id="TypoPath"><g id="TypoPathLat"><g id="TypoPath-2" data-name="TypoPath"><path class="cls-4" d="M73.41722,80.01552V72.26058H96.682v7.75494H88.9271v46.52965H81.17216V80.01552Z"/><path class="cls-4" d="M138.86893,75.67275a11.62536,11.62536,0,1,1,16.441,16.44048,11.208,11.208,0,0,1-8.22077,3.41217,11.95564,11.95564,0,0,1-3.87747-.62039v16.13028a15.48911,15.48911,0,0,1,15.51041,15.50988h-7.75546a7.74457,7.74457,0,0,0-7.755-7.75494v7.75494h-7.75494V83.893A11.20515,11.20515,0,0,1,138.86893,75.67275Zm10.95385,5.48662a3.83836,3.83836,0,1,0,1.14386,2.73362A3.73077,3.73077,0,0,0,149.82278,81.15937Z"/><path class="cls-4" d="M182.45222,75.67275A11.63241,11.63241,0,0,1,174.232,95.5254a15.51852,15.51852,0,0,1,10.97325,26.48313,14.94753,14.94753,0,0,1-10.97325,4.53664H166.477V72.26058H174.232A11.20512,11.20512,0,0,1,182.45222,75.67275Zm-5.48714,10.95386a3.87751,3.87751,0,0,0-2.7331-6.61109v7.75494A3.72962,3.72962,0,0,0,176.96508,86.62661Zm2.75405,29.8953a7.75494,7.75494,0,0,0-5.48715-13.24156v15.50988A7.47746,7.47746,0,0,0,179.71913,116.52191Z"/><path class="cls-4" d="M200.909,91.18264a11.60774,11.60774,0,1,1-3.41217,8.22023A11.20516,11.20516,0,0,1,200.909,91.18264Zm10.95334,5.48662a3.83715,3.83715,0,1,0,1.14437,2.73361A3.72961,3.72961,0,0,0,211.86232,96.66926Z"/><rect class="cls-5" x="197.49681" y="72.26058" width="23.26483" height="7.75494"/><rect class="cls-5" x="197.49681" y="118.79023" width="23.26483" height="7.75494"/><path class="cls-4" d="M76.82939,143.42531A11.62518,11.62518,0,1,1,85.04963,163.278a11.95564,11.95564,0,0,1-3.87747-.62039v16.13027A15.48912,15.48912,0,0,1,96.682,194.29773H88.9271a7.74455,7.74455,0,0,0-7.75494-7.75494v7.75494H73.41722V151.64555A11.20514,11.20514,0,0,1,76.82939,143.42531Zm10.95386,5.48662a3.83838,3.83838,0,1,0,1.14385,2.73362A3.73079,3.73079,0,0,0,87.78325,148.91193Z"/><path class="cls-4" d="M138.86893,143.42531a11.63267,11.63267,0,0,1,19.85317,8.22024h-7.75546a3.866,3.866,0,1,0-3.87748,3.87747,11.62517,11.62517,0,1,1-11.63241,11.63241h7.75494a3.866,3.866,0,1,0,3.87747-3.87747,11.62517,11.62517,0,0,1-8.22023-19.85265Z"/><rect class="cls-5" x="135.45675" y="186.54279" width="23.26535" height="7.75494"/><path class="cls-4" d="M169.96677,143.42531a11.63242,11.63242,0,0,1,19.85265,8.22024h-7.75494A3.86559,3.86559,0,1,0,178.187,155.523a11.62517,11.62517,0,1,1-11.63241,11.63241h7.75494A3.86559,3.86559,0,1,0,178.187,163.278a11.62517,11.62517,0,0,1-8.22023-19.85265Z"/><rect class="cls-5" x="166.55459" y="186.54279" width="23.26483" height="7.75494"/><path class="cls-5" d="M104.437,72.26058h7.75495V182.66532a3.8775,3.8775,0,0,0,7.75494,0V72.26058h7.75494V182.66532a11.63242,11.63242,0,0,1-23.26483,0Z"/></g><g id="TypoPath-3" data-name="TypoPath"><path class="cls-5" d="M71.41722,78.01552V70.26058H94.682v7.75494H86.9271v46.52965H79.17216V78.01552Z"/><path class="cls-5" d="M136.86893,73.67275a11.62536,11.62536,0,1,1,16.441,16.44048,11.208,11.208,0,0,1-8.22077,3.41217,11.95564,11.95564,0,0,1-3.87747-.62039v16.13028a15.48911,15.48911,0,0,1,15.51041,15.50988h-7.75546a7.74457,7.74457,0,0,0-7.755-7.75494v7.75494h-7.75494V81.893A11.20515,11.20515,0,0,1,136.86893,73.67275Zm10.95385,5.48662a3.83836,3.83836,0,1,0,1.14386,2.73362A3.73077,3.73077,0,0,0,147.82278,79.15937Z"/><path class="cls-5" d="M180.45222,73.67275A11.63241,11.63241,0,0,1,172.232,93.5254a15.51852,15.51852,0,0,1,10.97325,26.48313,14.94753,14.94753,0,0,1-10.97325,4.53664H164.477V70.26058H172.232A11.20512,11.20512,0,0,1,180.45222,73.67275Zm-5.48714,10.95386a3.87751,3.87751,0,0,0-2.7331-6.61109v7.75494A3.72962,3.72962,0,0,0,174.96508,84.62661Zm2.75405,29.8953a7.75494,7.75494,0,0,0-5.48715-13.24156v15.50988A7.47746,7.47746,0,0,0,177.71913,114.52191Z"/><path class="cls-5" d="M198.909,89.18264a11.60774,11.60774,0,1,1-3.41217,8.22023A11.20516,11.20516,0,0,1,198.909,89.18264Zm10.95334,5.48662a3.83715,3.83715,0,1,0,1.14437,2.73361A3.72961,3.72961,0,0,0,209.86232,94.66926Z"/><rect class="cls-4" x="195.49681" y="70.26058" width="23.26483" height="7.75494"/><rect class="cls-4" x="195.49681" y="116.79023" width="23.26483" height="7.75494"/><path class="cls-5" d="M74.82939,141.42531A11.62518,11.62518,0,1,1,83.04963,161.278a11.95564,11.95564,0,0,1-3.87747-.62039v16.13027A15.48912,15.48912,0,0,1,94.682,192.29773H86.9271a7.74455,7.74455,0,0,0-7.75494-7.75494v7.75494H71.41722V149.64555A11.20514,11.20514,0,0,1,74.82939,141.42531Zm10.95386,5.48662a3.83838,3.83838,0,1,0,1.14385,2.73362A3.73079,3.73079,0,0,0,85.78325,146.91193Z"/><path class="cls-5" d="M136.86893,141.42531a11.63267,11.63267,0,0,1,19.85317,8.22024h-7.75546a3.866,3.866,0,1,0-3.87748,3.87747,11.62517,11.62517,0,1,1-11.63241,11.63241h7.75494a3.866,3.866,0,1,0,3.87747-3.87747,11.62517,11.62517,0,0,1-8.22023-19.85265Z"/><rect class="cls-4" x="133.45675" y="184.54279" width="23.26535" height="7.75494"/><path class="cls-5" d="M167.96677,141.42531a11.63242,11.63242,0,0,1,19.85265,8.22024h-7.75494A3.86559,3.86559,0,1,0,176.187,153.523a11.62517,11.62517,0,1,1-11.63241,11.63241h7.75494A3.86559,3.86559,0,1,0,176.187,161.278a11.62517,11.62517,0,0,1-8.22023-19.85265Z"/><rect class="cls-4" x="164.55459" y="184.54279" width="23.26483" height="7.75494"/><path class="cls-4" d="M102.437,70.26058h7.75495V180.66532a3.8775,3.8775,0,0,0,7.75494,0V70.26058h7.75494V180.66532a11.63242,11.63242,0,0,1-23.26483,0Z"/></g></g><g id="TypoPathKyr"><path class="cls-5" d="M81.2453,219.0946h-7.755v-7.755H96.75524v7.755h-7.755v7.755h7.755v7.755h-7.755v31.01988h-7.755V234.60453h-7.755v-7.755h7.755Z"/><path class="cls-5" d="M151.04,242.3595v7.755h-7.755v15.50994h-7.755V222.97208a11.62522,11.62522,0,1,1,11.63245,11.63245,11.96506,11.96506,0,0,1-3.87748-.62039v8.37536Zm-1.14439-22.12157a3.83712,3.83712,0,1,0,1.14439,2.73415A3.73113,3.73113,0,0,0,149.89564,220.23793Z"/><path class="cls-5" d="M178.18242,242.3595A11.62523,11.62523,0,1,1,166.55,253.992V211.33963h23.2649v7.755H174.30493v23.8853A11.94149,11.94149,0,0,1,178.18242,242.3595Zm-2.7331,8.89831a3.83834,3.83834,0,1,0,2.7331-1.14334A3.73042,3.73042,0,0,0,175.44932,251.25781Z"/><path class="cls-5" d="M200.982,230.26175a11.60778,11.60778,0,1,1-3.41219,8.22027A11.20315,11.20315,0,0,1,200.982,230.26175Zm10.95337,5.48612a3.83715,3.83715,0,1,0,1.14438,2.73415A3.73116,3.73116,0,0,0,211.9354,235.74787Z"/><rect class="cls-4" x="197.56984" y="257.86944" width="23.26491" height="7.75497"/><rect class="cls-4" x="197.56984" y="211.33963" width="23.26491" height="7.75497"/><path class="cls-5" d="M89.00027,310.11231v7.755h-7.755v15.50994h-7.755V290.72489a11.62521,11.62521,0,0,1,19.85272-8.22027,11.63246,11.63246,0,0,1-8.22026,19.85272,11.96512,11.96512,0,0,1-3.87749-.6204v8.37537Zm-1.14438-22.12157a3.83715,3.83715,0,1,0,1.14438,2.73415A3.73112,3.73112,0,0,0,87.85589,287.99074Z"/><path class="cls-5" d="M138.94227,282.50462a11.63246,11.63246,0,0,1,19.85273,8.22027H151.04a3.87752,3.87752,0,0,0-7.755,0v31.01987a3.87752,3.87752,0,0,0,7.755,0h7.755a11.63246,11.63246,0,0,1-23.26491,0V290.72489A11.20147,11.20147,0,0,1,138.94227,282.50462Z"/><path class="cls-5" d="M169.96215,282.50462a11.63245,11.63245,0,0,1,19.85272,8.22027h-7.755a3.87752,3.87752,0,0,0-7.755,0v31.01987a3.87752,3.87752,0,0,0,7.755,0h7.755a11.63245,11.63245,0,0,1-23.2649,0V290.72489A11.20147,11.20147,0,0,1,169.96215,282.50462Z"/><path class="cls-4" d="M124.36293,329.965a11.63246,11.63246,0,0,1-19.85272-8.22027h7.755a3.87752,3.87752,0,0,0,7.755,0V313.3694a11.97429,11.97429,0,0,1-3.87749.62039,11.65,11.65,0,0,1-11.63245-11.63245V211.33963h7.755v91.01771a3.87752,3.87752,0,0,0,7.755,0V211.33963h7.755V321.74476A11.2089,11.2089,0,0,1,124.36293,329.965Z"/><path class="cls-4" d="M79.2453,217.0946h-7.755v-7.755H94.75524v7.755h-7.755v7.755h7.755v7.755h-7.755v31.01988h-7.755V232.60453h-7.755v-7.755h7.755Z"/><path class="cls-4" d="M149.04,240.3595v7.755h-7.755v15.50994h-7.755V220.97208a11.62522,11.62522,0,1,1,11.63245,11.63245,11.96506,11.96506,0,0,1-3.87748-.62039v8.37536Zm-1.14439-22.12157a3.83712,3.83712,0,1,0,1.14439,2.73415A3.73113,3.73113,0,0,0,147.89564,218.23793Z"/><path class="cls-4" d="M176.18242,240.3595A11.62523,11.62523,0,1,1,164.55,251.992V209.33963h23.2649v7.755H172.30493v23.8853A11.94149,11.94149,0,0,1,176.18242,240.3595Zm-2.7331,8.89831a3.83834,3.83834,0,1,0,2.7331-1.14334A3.73042,3.73042,0,0,0,173.44932,249.25781Z"/><path class="cls-4" d="M198.982,228.26175a11.60778,11.60778,0,1,1-3.41219,8.22027A11.20315,11.20315,0,0,1,198.982,228.26175Zm10.95337,5.48612a3.83715,3.83715,0,1,0,1.14438,2.73415A3.73116,3.73116,0,0,0,209.9354,233.74787Z"/><rect class="cls-5" x="195.56984" y="255.86944" width="23.26491" height="7.75497"/><rect class="cls-5" x="195.56984" y="209.33963" width="23.26491" height="7.75497"/><path class="cls-4" d="M87.00027,308.11231v7.755h-7.755v15.50994h-7.755V288.72489a11.62521,11.62521,0,0,1,19.85272-8.22027,11.63246,11.63246,0,0,1-8.22026,19.85272,11.96512,11.96512,0,0,1-3.87749-.6204v8.37537Zm-1.14438-22.12157a3.83715,3.83715,0,1,0,1.14438,2.73415A3.73112,3.73112,0,0,0,85.85589,285.99074Z"/><path class="cls-4" d="M136.94227,280.50462a11.63246,11.63246,0,0,1,19.85273,8.22027H149.04a3.87752,3.87752,0,0,0-7.755,0v31.01987a3.87752,3.87752,0,0,0,7.755,0h7.755a11.63246,11.63246,0,0,1-23.26491,0V288.72489A11.20147,11.20147,0,0,1,136.94227,280.50462Z"/><path class="cls-4" d="M167.96215,280.50462a11.63245,11.63245,0,0,1,19.85272,8.22027h-7.755a3.87752,3.87752,0,0,0-7.755,0v31.01987a3.87752,3.87752,0,0,0,7.755,0h7.755a11.63245,11.63245,0,0,1-23.2649,0V288.72489A11.20147,11.20147,0,0,1,167.96215,280.50462Z"/><path class="cls-5" d="M122.36293,327.965a11.63246,11.63246,0,0,1-19.85272-8.22027h7.755a3.87752,3.87752,0,0,0,7.755,0V311.3694a11.97429,11.97429,0,0,1-3.87749.62039,11.65,11.65,0,0,1-11.63245-11.63245V209.33963h7.755v91.01771a3.87752,3.87752,0,0,0,7.755,0V209.33963h7.755V319.74476A11.2089,11.2089,0,0,1,122.36293,327.965Z"/></g></g><g id="Alc"><path class="cls-6" d="M201.66628,187.31158c.00653-.0269.01658-.04021.03016-.04021h14.00342c.0201,0,.03015.01331.03015.04021v1.94017a.02665.02665,0,0,1-.03015.03016H203.69693v1.98038c0,.02011-.01358.03016-.04021.03016h-1.96028q-.03015-.01019-.03016-.03016Z"/><path class="cls-6" d="M203.66677,185.26083v-2.01054h6.03162v-2.01054h-8.04216v-2.01054H215.73v2.01054h-4.02108v4.02108Z"/><path class="cls-6" d="M202.54087,176.334a3.00941,3.00941,0,1,1,2.13117.88464A2.90451,2.90451,0,0,1,202.54087,176.334Zm1.42232-2.84a.99545.99545,0,1,0,.70885-.29642A.96837.96837,0,0,0,203.96319,173.494Zm-2.307-4.3175L215.73,173.19759v-2.01054L201.65623,167.166Zm8.9268-.88464a3.00941,3.00941,0,1,1,2.13117.88464A2.90451,2.90451,0,0,1,210.583,168.29187Zm1.42232-2.84a.99545.99545,0,1,0,.70885-.29642A.96837.96837,0,0,0,212.00535,165.45185Z"/><path class="cls-6" d="M205.67731,151.08165v2.01054l3.01581,1.00527-3.01581,1.00527v2.01054l6.03162-2.01054v-2.01054Z"/><path class="cls-6" d="M203.66677,143.03949v14.07378h-2.01054V143.03949Zm2.89518,5.147a3.00941,3.00941,0,1,1,2.13117.88464A2.90451,2.90451,0,0,1,206.562,148.18647Zm9.16806-5.147v14.07378h-2.01054V143.03949Zm-7.74574,2.307a.99547.99547,0,1,0,.70885-.29641A.9684.9684,0,0,0,207.98427,145.34644Z"/><path class="cls-6" d="M215.73,141.029H201.65623V139.0184h12.06324v-2.01054H215.73Z"/></g><g id="ml"><path class="cls-5" d="M201.75533,329.37722h-2.17879v-6.53636h2.17879l7.62575,4.40115v-2.22237h2.17879v2.17879h3.26818v2.17879h-6.1006l-6.97212-4.01986Z"/><path class="cls-5" d="M204.89278,319.70341a3.26126,3.26126,0,1,1,2.30952.95866A3.14756,3.14756,0,0,1,204.89278,319.70341Zm1.54135-3.07769a1.07876,1.07876,0,1,0,.76817-.32122A1.04942,1.04942,0,0,0,206.43413,316.62572Z"/><path class="cls-5" d="M204.89278,310.98826a3.26124,3.26124,0,1,1,2.30952.95867A3.14755,3.14755,0,0,1,204.89278,310.98826Zm1.54135-3.07768a1.07873,1.07873,0,1,0,.76817-.32123A1.04941,1.04941,0,0,0,206.43413,307.91058Z"/><path class="cls-5" d="M206.1129,295.34379v2.17878h-6.53636v-2.17878a4.19959,4.19959,0,0,1,1.27459-3.083q.09805-.09805.1961-.1852-.09805-.087-.1961-.1852a4.19959,4.19959,0,0,1-1.27459-3.083v-2.17864h6.53636v2.17864h-4.35757a2.17588,2.17588,0,0,0,2.17879,2.17879V293.165a2.17587,2.17587,0,0,0-2.17879,2.17879Zm4.35758-8.715v10.89378h-2.17879V286.62879Zm4.35757,0v10.89378h-2.17879V286.62879Z"/><path class="cls-5" d="M214.82805,284.45H199.57654v-2.17878h13.07272v-2.17879h2.17879Z"/></g><line class="cls-7" x1="54" x2="54" y2="36"/><line class="cls-7" y1="54" x2="36" y2="54"/><line class="cls-7" y1="351.6378" x2="36" y2="351.6378"/><line class="cls-7" x1="54" y1="405.6378" x2="54" y2="369.6378"/><line class="cls-7" x1="238.25197" x2="238.25197" y2="36"/><line class="cls-7" x1="292.25197" y1="54" x2="256.25197" y2="54"/><line class="cls-7" x1="292.25197" y1="351.6378" x2="256.25197" y2="351.6378"/><line class="cls-7" x1="238.25197" y1="405.6378" x2="238.25197" y2="369.6378"/></symbol></defs><g id="BG_Back" data-name="BG Back"><polygon class="cls-8" points="394.615 219.685 210.363 219.685 58.118 77.953 394.615 77.953 394.615 219.685"/><polygon class="cls-8" points="390.363 215.433 214.615 215.433 62.37 82.205 390.363 82.205 390.363 215.433"/><polygon class="cls-8" points="386.111 211.181 218.867 211.181 66.622 86.457 386.111 86.457 386.111 211.181"/></g><g id="Layer_6" data-name="Layer 6"><use width="292.25197" height="405.6378" transform="translate(-54 -54)" xlink:href="#TURBORUSS_FRONT"/><rect class="cls-9" x="12.3428" y="10.91425" width="159.47617" height="269.78937"/><g id="Typo_Front" data-name="Typo Front"><g id="TypoPath-4" data-name="TypoPath"><g id="TypoPathLat-2" data-name="TypoPathLat"><g id="TypoPath-5" data-name="TypoPath"><path class="cls-10" d="M22.29443,166.42141v-7.755H45.55925v7.755H37.80431v46.52965H30.04937V166.42141Z"/><path class="cls-10" d="M87.74614,162.07864a11.62536,11.62536,0,1,1,8.22023,19.85265,11.95538,11.95538,0,0,1-3.87747-.6204v16.13028a15.48911,15.48911,0,0,1,15.51041,15.50989H99.84384a7.74455,7.74455,0,0,0-7.75494-7.75494v7.75494H84.334V170.29888A11.20515,11.20515,0,0,1,87.74614,162.07864ZM98.7,167.56526a3.83837,3.83837,0,1,0,1.14385,2.73362A3.73077,3.73077,0,0,0,98.7,167.56526Z"/><path class="cls-10" d="M131.32943,162.07864a11.63241,11.63241,0,0,1-8.22024,19.85265,15.50989,15.50989,0,1,1,0,31.01977h-7.75494v-54.2846h7.75494A11.20513,11.20513,0,0,1,131.32943,162.07864Zm-5.48714,10.95385a3.8775,3.8775,0,0,0-2.7331-6.61108v7.75494A3.72959,3.72959,0,0,0,125.84229,173.03249Zm2.754,29.8953a7.75494,7.75494,0,0,0-5.48715-13.24156v15.50989A7.47743,7.47743,0,0,0,128.59634,202.92779Z"/><path class="cls-10" d="M149.78619,177.58852a11.60775,11.60775,0,1,1-3.41217,8.22024A11.20515,11.20515,0,0,1,149.78619,177.58852Zm10.95333,5.48662a3.83714,3.83714,0,1,0,1.14438,2.73362A3.72961,3.72961,0,0,0,160.73952,183.07514Z"/><rect class="cls-11" x="146.37402" y="158.66646" width="23.26483" height="7.75494"/><rect class="cls-11" x="146.37402" y="205.19612" width="23.26483" height="7.75494"/><path class="cls-10" d="M25.7066,229.8312a11.60773,11.60773,0,0,1,16.44048,0,11.63242,11.63242,0,0,1-8.22024,19.85265,11.9556,11.9556,0,0,1-3.87747-.6204v16.13028a14.94835,14.94835,0,0,1,10.97324,4.53664,14.94835,14.94835,0,0,1,4.53664,10.97324H37.80431a7.74455,7.74455,0,0,0-7.75494-7.75494v7.75494H22.29443V238.05143A11.2051,11.2051,0,0,1,25.7066,229.8312Zm10.95386,5.48662a3.83837,3.83837,0,1,0,1.14385,2.73361A3.73076,3.73076,0,0,0,36.66046,235.31782Z"/><path class="cls-10" d="M87.74614,229.8312a11.63267,11.63267,0,0,1,19.85317,8.22023H99.84384a3.86594,3.86594,0,1,0-3.87747,3.87748A11.62517,11.62517,0,1,1,84.334,253.56132H92.0889a3.866,3.866,0,1,0,3.87747-3.87747,11.62517,11.62517,0,0,1-8.22023-19.85265Z"/><rect class="cls-11" x="84.33396" y="272.94867" width="23.26535" height="7.75494"/><path class="cls-10" d="M118.844,229.8312a11.63242,11.63242,0,0,1,19.85265,8.22023h-7.755a3.86558,3.86558,0,1,0-3.87747,3.87748,11.62517,11.62517,0,1,1-11.63241,11.63241h7.75494a3.86559,3.86559,0,1,0,3.87747-3.87747A11.62517,11.62517,0,0,1,118.844,229.8312Z"/><rect class="cls-11" x="115.4318" y="272.94867" width="23.26483" height="7.75494"/><path class="cls-11" d="M53.31419,158.66646h7.75495V269.0712a3.8775,3.8775,0,0,0,7.75494,0V158.66646H76.579V269.0712a11.62518,11.62518,0,0,1-19.85265,8.22024,11.20515,11.20515,0,0,1-3.41218-8.22024Z"/></g><g id="TypoPath-6" data-name="TypoPath"><path class="cls-11" d="M20.29443,164.42141v-7.755H43.55925v7.755H35.80431v46.52965H28.04937V164.42141Z"/><path class="cls-11" d="M85.74614,160.07864a11.62536,11.62536,0,1,1,8.22023,19.85265,11.95538,11.95538,0,0,1-3.87747-.6204v16.13028a15.48911,15.48911,0,0,1,15.51041,15.50989H97.84384a7.74455,7.74455,0,0,0-7.75494-7.75494v7.75494H82.334V168.29888A11.20515,11.20515,0,0,1,85.74614,160.07864ZM96.7,165.56526a3.83837,3.83837,0,1,0,1.14385,2.73362A3.73077,3.73077,0,0,0,96.7,165.56526Z"/><path class="cls-11" d="M129.32943,160.07864a11.63241,11.63241,0,0,1-8.22024,19.85265,15.50989,15.50989,0,1,1,0,31.01977h-7.75494v-54.2846h7.75494A11.20513,11.20513,0,0,1,129.32943,160.07864Zm-5.48714,10.95385a3.8775,3.8775,0,0,0-2.7331-6.61108v7.75494A3.72959,3.72959,0,0,0,123.84229,171.03249Zm2.754,29.8953a7.75494,7.75494,0,0,0-5.48715-13.24156v15.50989A7.47743,7.47743,0,0,0,126.59634,200.92779Z"/><path class="cls-11" d="M147.78619,175.58852a11.60775,11.60775,0,1,1-3.41217,8.22024A11.20515,11.20515,0,0,1,147.78619,175.58852Zm10.95333,5.48662a3.83714,3.83714,0,1,0,1.14438,2.73362A3.72961,3.72961,0,0,0,158.73952,181.07514Z"/><rect class="cls-10" x="144.37402" y="156.66646" width="23.26483" height="7.75494"/><rect class="cls-10" x="144.37402" y="203.19612" width="23.26483" height="7.75494"/><path class="cls-11" d="M23.7066,227.8312a11.20515,11.20515,0,0,1,8.22024-3.41218,11.63242,11.63242,0,0,1,0,23.26483,11.9556,11.9556,0,0,1-3.87747-.6204v16.13028a14.94835,14.94835,0,0,1,10.97324,4.53664,14.94835,14.94835,0,0,1,4.53664,10.97324H35.80431a7.74455,7.74455,0,0,0-7.75494-7.75494v7.75494H20.29443V236.05143A11.2051,11.2051,0,0,1,23.7066,227.8312Zm10.95386,5.48662a3.83837,3.83837,0,1,0,1.14385,2.73361A3.73076,3.73076,0,0,0,34.66046,233.31782Z"/><path class="cls-11" d="M85.74614,227.8312a11.63267,11.63267,0,0,1,19.85317,8.22023H97.84384a3.86594,3.86594,0,1,0-3.87747,3.87748A11.62517,11.62517,0,1,1,82.334,251.56132H90.0889a3.866,3.866,0,1,0,3.87747-3.87747,11.62517,11.62517,0,0,1-8.22023-19.85265Z"/><rect class="cls-10" x="82.33396" y="270.94867" width="23.26535" height="7.75494"/><path class="cls-11" d="M116.844,227.8312a11.63242,11.63242,0,0,1,19.85265,8.22023h-7.755a3.86558,3.86558,0,1,0-3.87747,3.87748,11.62517,11.62517,0,1,1-11.63241,11.63241h7.75494a3.86559,3.86559,0,1,0,3.87747-3.87747A11.62517,11.62517,0,0,1,116.844,227.8312Z"/><rect class="cls-10" x="113.4318" y="270.94867" width="23.26483" height="7.75494"/><path class="cls-10" d="M51.31419,156.66646h7.75495V267.0712a3.8775,3.8775,0,0,0,7.75494,0V156.66646H74.579V267.0712a11.62518,11.62518,0,0,1-19.85265,8.22024,11.20515,11.20515,0,0,1-3.41218-8.22024Z"/></g></g><g id="TypoPathKyr-2" data-name="TypoPathKyr"><path class="cls-11" d="M32.22952,24.01533h-7.755v-7.755H47.73946v7.755h-7.755v7.755h7.755v7.755h-7.755V70.54514h-7.755V39.52527h-7.755v-7.755h7.755Z"/><path class="cls-11" d="M102.02424,47.28024v7.755h-7.755V70.54514h-7.755V27.89281a11.63246,11.63246,0,0,1,23.26491,0A11.65,11.65,0,0,1,98.14676,39.52527a11.96512,11.96512,0,0,1-3.87749-.6204v8.37537Zm-1.14438-22.12158a3.866,3.866,0,1,0-5.46725,5.46725,3.866,3.866,0,1,0,5.46725-5.46725Z"/><path class="cls-11" d="M129.16663,47.28024a11.65,11.65,0,0,1,11.63246,11.63245,11.63246,11.63246,0,0,1-23.26491,0V16.26036h23.26491v7.755H125.28915v23.8853A11.94146,11.94146,0,0,1,129.16663,47.28024Zm-2.7331,8.8983a3.83835,3.83835,0,1,0,2.7331-1.14334A3.73041,3.73041,0,0,0,126.43353,56.17854Z"/><path class="cls-11" d="M151.96624,35.18248A11.63246,11.63246,0,0,1,171.819,43.40275a11.63246,11.63246,0,1,1-19.85273-8.22027Zm10.95337,5.48612a3.83712,3.83712,0,1,0,1.14439,2.73415A3.73113,3.73113,0,0,0,162.91961,40.6686Z"/><rect class="cls-10" x="148.55406" y="62.79017" width="23.26491" height="7.75497"/><rect class="cls-10" x="148.55406" y="16.26036" width="23.26491" height="7.75497"/><path class="cls-11" d="M39.98449,115.033v7.755h-7.755v15.50994h-7.755V95.64562A11.65,11.65,0,0,1,36.107,84.01316a11.63246,11.63246,0,0,1,0,23.26491,11.96506,11.96506,0,0,1-3.87748-.6204V115.033ZM38.84011,92.91147a3.83715,3.83715,0,1,0,1.14438,2.73415A3.73114,3.73114,0,0,0,38.84011,92.91147Z"/><path class="cls-11" d="M89.92649,87.42535a11.63245,11.63245,0,0,1,19.85272,8.22027h-7.755a3.87752,3.87752,0,0,0-7.755,0v31.01987a3.87752,3.87752,0,0,0,7.755,0h7.755a11.63246,11.63246,0,0,1-23.26491,0V95.64562A11.20148,11.20148,0,0,1,89.92649,87.42535Z"/><path class="cls-11" d="M120.94637,87.42535a11.63246,11.63246,0,0,1,19.85272,8.22027h-7.755a3.87752,3.87752,0,0,0-7.755,0v31.01987a3.87752,3.87752,0,0,0,7.755,0h7.755a11.63246,11.63246,0,0,1-23.26491,0V95.64562A11.20148,11.20148,0,0,1,120.94637,87.42535Z"/><path class="cls-10" d="M75.34715,134.88576a11.63245,11.63245,0,0,1-19.85272-8.22027h7.755a3.87752,3.87752,0,0,0,7.755,0v-8.37536a11.97423,11.97423,0,0,1-3.87748.62039,11.65,11.65,0,0,1-11.63245-11.63245V16.26036h7.755v91.01771a3.87752,3.87752,0,0,0,7.755,0V16.26036h7.755V126.66549A11.20889,11.20889,0,0,1,75.34715,134.88576Z"/><path class="cls-10" d="M30.22952,22.01533h-7.755v-7.755H45.73946v7.755h-7.755v7.755h7.755v7.755h-7.755V68.54514h-7.755V37.52527h-7.755v-7.755h7.755Z"/><path class="cls-10" d="M100.02424,45.28024v7.755h-7.755V68.54514h-7.755V25.89281a11.20151,11.20151,0,0,1,3.41219-8.22027,11.6078,11.6078,0,0,1,16.44054,0,11.2015,11.2015,0,0,1,3.41218,8.22027A11.65,11.65,0,0,1,96.14676,37.52527a11.96512,11.96512,0,0,1-3.87749-.6204v8.37537ZM98.87986,23.15866a3.866,3.866,0,1,0-5.46725,5.46725,3.866,3.866,0,1,0,5.46725-5.46725Z"/><path class="cls-10" d="M127.16663,45.28024a11.65,11.65,0,0,1,11.63246,11.63245,11.63246,11.63246,0,0,1-23.26491,0V14.26036h23.26491v7.755H123.28915v23.8853A11.94146,11.94146,0,0,1,127.16663,45.28024Zm-2.7331,8.8983a3.83835,3.83835,0,1,0,2.7331-1.14334A3.73041,3.73041,0,0,0,124.43353,54.17854Z"/><path class="cls-10" d="M149.96624,33.18248A11.63246,11.63246,0,0,1,169.819,41.40275a11.63246,11.63246,0,1,1-19.85273-8.22027Zm10.95337,5.48612a3.83712,3.83712,0,1,0,1.14439,2.73415A3.73113,3.73113,0,0,0,160.91961,38.6686Z"/><rect class="cls-11" x="146.55406" y="60.79017" width="23.26491" height="7.75497"/><rect class="cls-11" x="146.55406" y="14.26036" width="23.26491" height="7.75497"/><path class="cls-10" d="M37.98449,113.033v7.755h-7.755v15.50994h-7.755V93.64562A11.65,11.65,0,0,1,34.107,82.01316a11.63246,11.63246,0,0,1,0,23.26491,11.96506,11.96506,0,0,1-3.87748-.6204V113.033ZM36.84011,90.91147a3.83715,3.83715,0,1,0,1.14438,2.73415A3.73114,3.73114,0,0,0,36.84011,90.91147Z"/><path class="cls-10" d="M87.92649,85.42535a11.63245,11.63245,0,0,1,19.85272,8.22027h-7.755a3.87752,3.87752,0,0,0-7.755,0v31.01987a3.87752,3.87752,0,0,0,7.755,0h7.755a11.63246,11.63246,0,0,1-23.26491,0V93.64562A11.20148,11.20148,0,0,1,87.92649,85.42535Z"/><path class="cls-10" d="M118.94637,85.42535a11.63246,11.63246,0,0,1,19.85272,8.22027h-7.755a3.87752,3.87752,0,0,0-7.755,0v31.01987a3.87752,3.87752,0,0,0,7.755,0h7.755a11.63246,11.63246,0,0,1-23.26491,0V93.64562A11.20148,11.20148,0,0,1,118.94637,85.42535Z"/><path class="cls-11" d="M73.34715,132.88576a11.63245,11.63245,0,0,1-19.85272-8.22027h7.755a3.87752,3.87752,0,0,0,7.755,0v-8.37536a11.97423,11.97423,0,0,1-3.87748.62039,11.65,11.65,0,0,1-11.63245-11.63245V14.26036h7.755v91.01771a3.87752,3.87752,0,0,0,7.755,0V14.26036h7.755V124.66549A11.20889,11.20889,0,0,1,73.34715,132.88576Z"/></g></g><g id="Alc-2" data-name="Alc"><path class="cls-6" d="M150.54349,273.71747c.00652-.0269.01658-.04021.03016-.04021h14.00341c.02011,0,.03016.01331.03016.04021v1.94017a.02666.02666,0,0,1-.03016.03016H152.57414v1.98038c0,.02011-.01359.03016-.04021.03016h-1.96028q-.03015-.01018-.03016-.03016Z"/><path class="cls-6" d="M152.544,271.66672v-2.01054h6.03162v-2.01054h-8.04216V265.6351h14.07378v2.01054h-4.02108v4.02108Z"/><path class="cls-6" d="M151.41808,262.73992a3.0094,3.0094,0,1,1,2.13117.88464A2.90451,2.90451,0,0,1,151.41808,262.73992Zm1.42232-2.84a.99547.99547,0,1,0,.70885-.29641A.9684.9684,0,0,0,152.8404,259.89989Zm-2.307-4.31749,14.07378,4.02108v-2.01054l-14.07378-4.02108Zm8.9268-.88464a3.00941,3.00941,0,1,1,2.13117.88464A2.90452,2.90452,0,0,1,159.46024,254.69776Zm1.42232-2.84a.99545.99545,0,1,0,.70885-.29642A.96839.96839,0,0,0,160.88256,251.85773Z"/><path class="cls-6" d="M154.55452,237.48753v2.01054l3.01581,1.00527-3.01581,1.00527v2.01054l6.03162-2.01054v-2.01054Z"/><path class="cls-6" d="M152.544,229.44537v14.07378h-2.01054V229.44537Zm2.89518,5.147a3.0094,3.0094,0,1,1,2.13117.88464A2.90448,2.90448,0,0,1,155.43916,234.59235Zm9.16806-5.147v14.07378h-2.01054V229.44537Zm-7.74574,2.307a.99545.99545,0,1,0,.70885-.29642A.96837.96837,0,0,0,156.86148,231.75233Z"/><path class="cls-6" d="M164.60722,227.43483H150.53344v-2.01054h12.06324v-2.01054h2.01054Z"/></g><g id="ml-2" data-name="ml"><path class="cls-11" d="M152.73955,134.29795h-2.17879v-6.53636h2.17879l7.62575,4.40115v-2.22236h2.17878v2.17878h3.26818v2.17879h-6.1006l-6.97211-4.01986Z"/><path class="cls-11" d="M155.877,124.62414a3.26126,3.26126,0,1,1,2.30951.95866A3.14757,3.14757,0,0,1,155.877,124.62414Zm1.54134-3.07769a1.07877,1.07877,0,1,0,.76817-.32122A1.04941,1.04941,0,0,0,157.41834,121.54645Z"/><path class="cls-11" d="M155.877,115.909a3.26124,3.26124,0,1,1,2.30951.95867A3.14756,3.14756,0,0,1,155.877,115.909Zm1.54134-3.07768a1.07877,1.07877,0,1,0,.76817-.32122A1.0494,1.0494,0,0,0,157.41834,112.83131Z"/><path class="cls-11" d="M157.09712,100.26452v2.17879h-6.53636v-2.17879a4.19955,4.19955,0,0,1,1.27459-3.083q.098-.09806.19609-.1852-.098-.087-.19609-.1852a4.19955,4.19955,0,0,1-1.27459-3.083V91.54952h6.53636v2.17864h-4.35757a2.17587,2.17587,0,0,0,2.17878,2.17879v2.17878a2.17587,2.17587,0,0,0-2.17878,2.17879Zm4.35757-8.715v10.89379h-2.17878V91.54952Zm4.35757,0v10.89379h-2.17878V91.54952Z"/><path class="cls-11" d="M165.81226,89.37074h-15.2515V87.192h13.07272V85.01316h2.17878Z"/></g></g><line class="cls-12" x1="156.36299" y1="77.95276" x2="192.36299" y2="77.95276"/><line class="cls-12" x1="156.36299" y1="219.68504" x2="192.36299" y2="219.68504"/><line class="cls-12" x1="156.36299" y1="-30.04724" x2="156.36299" y2="5.95276"/><line class="cls-12" x1="102.36299" y1="23.95276" x2="138.36299" y2="23.95276"/><line class="cls-12" x1="102.36299" y1="273.68504" x2="138.36299" y2="273.68504"/><line class="cls-12" x1="156.36299" y1="327.68504" x2="156.36299" y2="291.68504"/></g></svg>