<?xml version="1.0" encoding="utf-8"?>
<!-- Generator: Adobe Illustrator 25.0.1, SVG Export Plug-In . SVG Version: 6.00 Build 0)  -->
<svg version="1.1" id="Layer_1" xmlns="http://www.w3.org/2000/svg" xmlns:xlink="http://www.w3.org/1999/xlink" x="0px" y="0px"
	 viewBox="0 0 184.3 297.6" style="enable-background:new 0 0 184.3 297.6;" xml:space="preserve">
<style type="text/css">
	.st0{fill:#CC2027;}
	.st1{fill:#EDE3D9;}
	.st2{fill:#131313;}
	.st3{fill:#FDB614;stroke:#131313;stroke-width:1;stroke-miterlimit:10;}
	.st4{fill:#EDE3D9;stroke:#131313;stroke-width:1;stroke-miterlimit:10;}
	.st5{fill:#EDE3D9;stroke:#231F20;stroke-width:1;stroke-miterlimit:10;}
	.st6{fill:none;stroke:#000000;stroke-width:0.3;stroke-miterlimit:4;}
	.st7{fill:none;stroke:#000000;stroke-width:0.3;}
</style>
<symbol  id="TURBORUSS_FRONT" viewBox="-146.1 -202.8 292.3 405.6">
	<rect x="-92.1" y="-148.8" class="st0" width="184.3" height="297.6"/>
	<rect x="-87.4" y="-144.1" class="st1" width="174.7" height="288.1"/>
	<path class="st2" d="M86.9-143.6v287.1H-86.9v-287.1H86.9 M87.9-144.6H-87.9v289.1H87.9V-144.6z"/>
	<rect x="-83.1" y="-139.8" class="st0" width="166.2" height="279.6"/>
	<path class="st2" d="M82.6-139.3v278.6H-82.6v-278.6H82.6 M83.6-140.3H-83.6v280.6H83.6V-140.3z"/>
	<g id="TypoPath_1_">
		<g id="TypoPathLat_1_">
			<g id="TypoPath-2_1_">
				<path class="st3" d="M-72.7-122.8v-7.8h23.3v7.8h-7.8v46.5H-65v-46.5H-72.7z"/>
				<path class="st3" d="M-7.3-127.1c4.5-4.5,11.9-4.5,16.4,0c4.5,4.5,4.5,11.9,0,16.4c0,0,0,0,0,0c-2.2,2.2-5.1,3.5-8.2,3.4
					c-1.3,0-2.6-0.2-3.9-0.6v16.1c8.6,0,15.5,6.9,15.5,15.5c0,0,0,0,0,0H4.8c0-4.3-3.5-7.7-7.7-7.8c0,0,0,0,0,0v7.8h-7.8v-42.7
					C-10.7-122-9.5-125-7.3-127.1z M3.7-121.7c-1.5-1.5-3.9-1.5-5.4,0s-1.5,3.9,0,5.4c1.5,1.5,3.9,1.5,5.4,0
					c0.7-0.7,1.1-1.7,1.1-2.7C4.9-120,4.4-120.9,3.7-121.7z"/>
				<path class="st3" d="M36.3-127.1c4.5,4.5,4.5,11.9,0,16.5c-2.2,2.2-5.1,3.4-8.2,3.4c8.6,0,15.5,7,15.5,15.5c0,4.1-1.6,8-4.5,11
					c-2.9,3-6.8,4.6-11,4.5h-7.8v-54.3h7.8C31.2-130.6,34.2-129.4,36.3-127.1z M30.8-116.2c1.5-1.5,1.5-4,0-5.5
					c-0.7-0.7-1.7-1.1-2.7-1.1v7.8C29.1-115,30.1-115.4,30.8-116.2L30.8-116.2z M33.6-86.3c3-3,3-7.9,0-11c-1.5-1.5-3.4-2.3-5.5-2.3
					V-84C30.2-84,32.2-84.8,33.6-86.3z"/>
				<path class="st3" d="M54.8-111.6c4.5-4.5,11.9-4.5,16.4,0s4.5,11.9,0,16.4c-4.5,4.5-11.9,4.5-16.4,0c-2.2-2.2-3.4-5.1-3.4-8.2
					C51.3-106.5,52.6-109.5,54.8-111.6z M65.7-106.1c-1.5-1.5-3.9-1.5-5.4,0c-1.5,1.5-1.5,3.9,0,5.4c1.5,1.5,3.9,1.5,5.4,0
					c0.7-0.7,1.1-1.7,1.1-2.7C66.9-104.4,66.5-105.4,65.7-106.1L65.7-106.1z"/>
				<rect x="51.4" y="-130.6" class="st4" width="23.3" height="7.8"/>
				<rect x="51.4" y="-84" class="st4" width="23.3" height="7.8"/>
				<path class="st3" d="M-69.3-59.4c4.5-4.5,11.9-4.5,16.4,0s4.5,11.9,0,16.4c-2.2,2.2-5.1,3.4-8.2,3.4c-1.3,0-2.6-0.2-3.9-0.6V-24
					c8.6,0,15.5,6.9,15.5,15.5c0,0,0,0,0,0h-7.8c0-4.3-3.5-7.7-7.7-7.8c0,0,0,0,0,0v7.8h-7.8v-42.7C-72.8-54.3-71.5-57.2-69.3-59.4z
					 M-58.3-53.9c-1.5-1.5-3.9-1.5-5.4,0c-1.5,1.5-1.5,3.9,0,5.4c1.5,1.5,3.9,1.5,5.4,0c0.7-0.7,1.1-1.7,1.1-2.7
					C-57.2-52.2-57.6-53.2-58.3-53.9z"/>
				<path class="st3" d="M-7.3-59.4c4.5-4.5,11.9-4.5,16.5,0c2.2,2.2,3.4,5.1,3.4,8.2H4.8C4.8-53.3,3.1-55,1-55s-3.9,1.7-3.9,3.9
					c0,2.1,1.7,3.8,3.9,3.9c6.4,0,11.6,5.2,11.6,11.6S7.4-24,0.9-24c-6.4,0-11.6-5.2-11.6-11.6h7.8c0,2.1,1.7,3.9,3.9,3.9
					s3.9-1.7,3.9-3.9c0-2.1-1.7-3.8-3.9-3.9c-6.4,0-11.6-5.2-11.6-11.6C-10.7-54.2-9.4-57.2-7.3-59.4L-7.3-59.4z"/>
				<rect x="-10.7" y="-16.3" class="st4" width="23.3" height="7.8"/>
				<path class="st3" d="M23.8-59.4c4.5-4.5,11.9-4.5,16.5,0c2.2,2.2,3.4,5.1,3.4,8.2h-7.8c0-2.1-1.7-3.9-3.9-3.9
					c-2.1,0-3.9,1.7-3.9,3.9c0,2.1,1.7,3.8,3.9,3.9c6.4,0,11.6,5.2,11.6,11.6S38.5-24,32-24c-6.4,0-11.6-5.2-11.6-11.6h7.8
					c0,2.1,1.7,3.9,3.9,3.9c2.1,0,3.9-1.7,3.9-3.9c0-2.1-1.7-3.8-3.9-3.9c-6.4,0-11.6-5.2-11.6-11.6C20.4-54.2,21.7-57.2,23.8-59.4
					L23.8-59.4z"/>
				<rect x="20.4" y="-16.3" class="st4" width="23.3" height="7.8"/>
				<path class="st4" d="M-41.7-130.6h7.8v110.4c0,2.1,1.8,3.9,3.9,3.9c2.1,0,3.9-1.7,3.9-3.9v-110.4h7.8v110.4
					c0,6.4-5.2,11.6-11.6,11.6c-6.4,0-11.6-5.2-11.6-11.6V-130.6z"/>
			</g>
			<g id="TypoPath-3_1_">
				<path class="st4" d="M-74.7-124.8v-7.8h23.3v7.8h-7.8v46.5H-67v-46.5H-74.7z"/>
				<path class="st4" d="M-9.3-129.1c4.5-4.5,11.9-4.5,16.4,0c4.5,4.5,4.5,11.9,0,16.4c0,0,0,0,0,0c-2.2,2.2-5.1,3.5-8.2,3.4
					c-1.3,0-2.6-0.2-3.9-0.6v16.1c8.6,0,15.5,6.9,15.5,15.5c0,0,0,0,0,0H2.8c0-4.3-3.5-7.7-7.7-7.8c0,0,0,0,0,0v7.8h-7.8v-42.7
					C-12.7-124-11.5-127-9.3-129.1z M1.7-123.7c-1.5-1.5-3.9-1.5-5.4,0c-1.5,1.5-1.5,3.9,0,5.4c1.5,1.5,3.9,1.5,5.4,0
					c0.7-0.7,1.1-1.7,1.1-2.7C2.9-122,2.4-122.9,1.7-123.7z"/>
				<path class="st4" d="M34.3-129.1c4.5,4.5,4.5,11.9,0,16.5c-2.2,2.2-5.1,3.4-8.2,3.4c8.6,0,15.5,7,15.5,15.5c0,4.1-1.6,8-4.5,11
					c-2.9,3-6.8,4.6-11,4.5h-7.8v-54.3h7.8C29.2-132.6,32.2-131.4,34.3-129.1z M28.8-118.2c1.5-1.5,1.5-4,0-5.5
					c-0.7-0.7-1.7-1.1-2.7-1.1v7.8C27.1-117,28.1-117.4,28.8-118.2L28.8-118.2z M31.6-88.3c3-3,3-7.9,0-11c-1.5-1.5-3.4-2.3-5.5-2.3
					V-86C28.2-86,30.2-86.8,31.6-88.3z"/>
				<path class="st4" d="M52.8-113.6c4.5-4.5,11.9-4.5,16.4,0s4.5,11.9,0,16.4c-4.5,4.5-11.9,4.5-16.4,0c-2.2-2.2-3.4-5.1-3.4-8.2
					C49.3-108.5,50.6-111.5,52.8-113.6z M63.7-108.1c-1.5-1.5-3.9-1.5-5.4,0c-1.5,1.5-1.5,3.9,0,5.4c1.5,1.5,3.9,1.5,5.4,0
					c0.7-0.7,1.1-1.7,1.1-2.7C64.9-106.4,64.5-107.4,63.7-108.1L63.7-108.1z"/>
				<rect x="49.4" y="-132.6" class="st3" width="23.3" height="7.8"/>
				<rect x="49.4" y="-86" class="st3" width="23.3" height="7.8"/>
				<path class="st4" d="M-71.3-61.4c4.5-4.5,11.9-4.5,16.4,0s4.5,11.9,0,16.4c-2.2,2.2-5.1,3.4-8.2,3.4c-1.3,0-2.6-0.2-3.9-0.6V-26
					c8.6,0,15.5,6.9,15.5,15.5c0,0,0,0,0,0h-7.8c0-4.3-3.5-7.7-7.7-7.8c0,0,0,0,0,0v7.8h-7.8v-42.7C-74.8-56.3-73.5-59.2-71.3-61.4z
					 M-60.3-55.9c-1.5-1.5-3.9-1.5-5.4,0c-1.5,1.5-1.5,3.9,0,5.4c1.5,1.5,3.9,1.5,5.4,0c0.7-0.7,1.1-1.7,1.1-2.7
					C-59.2-54.2-59.6-55.2-60.3-55.9z"/>
				<path class="st4" d="M-9.3-61.4c4.5-4.5,11.9-4.5,16.5,0c2.2,2.2,3.4,5.1,3.4,8.2H2.8C2.8-55.3,1.1-57-1-57s-3.9,1.7-3.9,3.9
					c0,2.1,1.7,3.8,3.9,3.9c6.4,0,11.6,5.2,11.6,11.6S5.4-26-1.1-26c-6.4,0-11.6-5.2-11.6-11.6h7.8c0,2.1,1.7,3.9,3.9,3.9
					s3.9-1.7,3.9-3.9c0-2.1-1.7-3.8-3.9-3.9c-6.4,0-11.6-5.2-11.6-11.6C-12.7-56.2-11.4-59.2-9.3-61.4L-9.3-61.4z"/>
				<rect x="-12.7" y="-18.3" class="st3" width="23.3" height="7.8"/>
				<path class="st4" d="M21.8-61.4c4.5-4.5,11.9-4.5,16.5,0c2.2,2.2,3.4,5.1,3.4,8.2h-7.8c0-2.1-1.7-3.9-3.9-3.9
					c-2.1,0-3.9,1.7-3.9,3.9c0,2.1,1.7,3.8,3.9,3.9c6.4,0,11.6,5.2,11.6,11.6S36.5-26,30-26c-6.4,0-11.6-5.2-11.6-11.6h7.8
					c0,2.1,1.7,3.9,3.9,3.9c2.1,0,3.9-1.7,3.9-3.9c0-2.1-1.7-3.8-3.9-3.9c-6.4,0-11.6-5.2-11.6-11.6C18.4-56.2,19.7-59.2,21.8-61.4
					L21.8-61.4z"/>
				<rect x="18.4" y="-18.3" class="st3" width="23.3" height="7.8"/>
				<path class="st3" d="M-43.7-132.6h7.8v110.4c0,2.1,1.8,3.9,3.9,3.9c2.1,0,3.9-1.7,3.9-3.9v-110.4h7.8v110.4
					c0,6.4-5.2,11.6-11.6,11.6c-6.4,0-11.6-5.2-11.6-11.6V-132.6z"/>
			</g>
		</g>
		<g id="TypoPathKyr_1_">
			<path class="st4" d="M-64.9,16.3h-7.8V8.5h23.3v7.8h-7.8V24h7.8v7.8h-7.8v31h-7.8v-31h-7.8V24h7.8L-64.9,16.3z"/>
			<path class="st4" d="M4.9,39.5v7.8h-7.8v15.5h-7.8V20.2c0-6.4,5.2-11.6,11.6-11.6c6.4,0,11.6,5.2,11.6,11.6
				c0,6.4-5.2,11.6-11.6,11.6c-1.3,0-2.6-0.2-3.9-0.6v8.4H4.9z M3.8,17.4c-1.5-1.5-3.9-1.5-5.4,0c-1.5,1.5-1.5,3.9,0,5.4
				c1.5,1.5,3.9,1.5,5.4,0c0.7-0.7,1.1-1.7,1.1-2.7C4.9,19.1,4.5,18.1,3.8,17.4L3.8,17.4z"/>
			<path class="st4" d="M32.1,39.5c6.4,0,11.6,5.2,11.6,11.6S38.5,62.8,32,62.8c-6.4,0-11.6-5.2-11.6-11.6V8.5h23.3v7.8H28.2v23.9
				C29.4,39.7,30.7,39.5,32.1,39.5z M29.3,48.4c-1.5,1.5-1.5,3.9,0,5.4c1.5,1.5,3.9,1.5,5.4,0c1.5-1.5,1.5-3.9,0-5.4
				c-0.7-0.7-1.7-1.1-2.7-1.1C31,47.3,30,47.7,29.3,48.4z"/>
			<path class="st4" d="M54.9,27.4c4.5-4.5,11.9-4.5,16.4,0s4.5,11.9,0,16.4s-11.9,4.5-16.4,0c-2.2-2.2-3.4-5.1-3.4-8.2
				C51.4,32.6,52.6,29.6,54.9,27.4z M65.8,32.9c-1.5-1.5-3.9-1.5-5.4,0c-1.5,1.5-1.5,3.9,0,5.4c1.5,1.5,3.9,1.5,5.4,0
				c0.7-0.7,1.1-1.7,1.1-2.7C67,34.6,66.6,33.6,65.8,32.9L65.8,32.9z"/>
			<rect x="51.4" y="55.1" class="st3" width="23.3" height="7.8"/>
			<rect x="51.4" y="8.5" class="st3" width="23.3" height="7.8"/>
			<path class="st4" d="M-57.1,107.3v7.8h-7.8v15.5h-7.8V87.9c0-6.4,5.2-11.6,11.6-11.6c3.1,0,6.1,1.2,8.2,3.4
				c4.5,4.5,4.5,11.9,0,16.5c-2.2,2.2-5.1,3.4-8.2,3.4c-1.3,0-2.6-0.2-3.9-0.6v8.4H-57.1z M-58.3,85.2c-1.5-1.5-3.9-1.5-5.4,0
				c-1.5,1.5-1.5,3.9,0,5.4c1.5,1.5,3.9,1.5,5.4,0c0.7-0.7,1.1-1.7,1.1-2.7C-57.1,86.9-57.5,85.9-58.3,85.2L-58.3,85.2z"/>
			<path class="st4" d="M-7.2,79.7c4.5-4.5,11.9-4.5,16.5,0c2.2,2.2,3.4,5.1,3.4,8.2H4.9C4.9,85.8,3.2,84,1,84
				c-2.1,0-3.9,1.7-3.9,3.9v31c0,2.1,1.7,3.9,3.9,3.9c2.1,0,3.9-1.7,3.9-3.9h7.8c0,6.4-5.2,11.6-11.6,11.6
				c-6.4,0-11.6-5.2-11.6-11.6v-31C-10.6,84.8-9.4,81.8-7.2,79.7z"/>
			<path class="st4" d="M23.8,79.7c4.5-4.5,11.9-4.5,16.5,0c2.2,2.2,3.4,5.1,3.4,8.2h-7.8c0-2.1-1.7-3.9-3.9-3.9
				c-2.1,0-3.9,1.7-3.9,3.9v31c0,2.1,1.7,3.9,3.9,3.9c2.1,0,3.9-1.7,3.9-3.9h7.8c0,6.4-5.2,11.6-11.6,11.6
				c-6.4,0-11.6-5.2-11.6-11.6v-31C20.4,84.8,21.6,81.8,23.8,79.7z"/>
			<path class="st3" d="M-21.8,127.1c-4.5,4.5-11.9,4.5-16.5,0c-2.2-2.2-3.4-5.1-3.4-8.2h7.8c0,2.1,1.7,3.9,3.9,3.9
				c2.1,0,3.9-1.7,3.9-3.9v-8.4c-1.2,0.4-2.6,0.6-3.9,0.6c-6.4,0-11.6-5.2-11.6-11.6v-91h7.8v91c0,2.1,1.7,3.9,3.9,3.9
				c2.1,0,3.9-1.7,3.9-3.9v-91h7.8v110.4C-18.3,122-19.5,125-21.8,127.1z"/>
			<path class="st3" d="M-66.9,14.3h-7.8V6.5h23.3v7.8h-7.8V22h7.8v7.8h-7.8v31h-7.8v-31h-7.8V22h7.8L-66.9,14.3z"/>
			<path class="st3" d="M2.9,37.5v7.8h-7.8v15.5h-7.8V18.2c0-6.4,5.2-11.6,11.6-11.6c6.4,0,11.6,5.2,11.6,11.6
				c0,6.4-5.2,11.6-11.6,11.6c-1.3,0-2.6-0.2-3.9-0.6v8.4H2.9z M1.8,15.4c-1.5-1.5-3.9-1.5-5.4,0c-1.5,1.5-1.5,3.9,0,5.4
				c1.5,1.5,3.9,1.5,5.4,0c0.7-0.7,1.1-1.7,1.1-2.7C2.9,17.1,2.5,16.1,1.8,15.4L1.8,15.4z"/>
			<path class="st3" d="M30.1,37.5c6.4,0,11.6,5.2,11.6,11.6S36.5,60.8,30,60.8c-6.4,0-11.6-5.2-11.6-11.6V6.5h23.3v7.8H26.2v23.9
				C27.4,37.7,28.7,37.5,30.1,37.5z M27.3,46.4c-1.5,1.5-1.5,3.9,0,5.4c1.5,1.5,3.9,1.5,5.4,0c1.5-1.5,1.5-3.9,0-5.4
				c-0.7-0.7-1.7-1.1-2.7-1.1C29,45.3,28,45.7,27.3,46.4z"/>
			<path class="st3" d="M52.9,25.4c4.5-4.5,11.9-4.5,16.4,0s4.5,11.9,0,16.4s-11.9,4.5-16.4,0c-2.2-2.2-3.4-5.1-3.4-8.2
				C49.4,30.6,50.6,27.6,52.9,25.4z M63.8,30.9c-1.5-1.5-3.9-1.5-5.4,0c-1.5,1.5-1.5,3.9,0,5.4c1.5,1.5,3.9,1.5,5.4,0
				c0.7-0.7,1.1-1.7,1.1-2.7C65,32.6,64.6,31.6,63.8,30.9L63.8,30.9z"/>
			<rect x="49.4" y="53.1" class="st4" width="23.3" height="7.8"/>
			<rect x="49.4" y="6.5" class="st4" width="23.3" height="7.8"/>
			<path class="st3" d="M-59.1,105.3v7.8h-7.8v15.5h-7.8V85.9c0-6.4,5.2-11.6,11.6-11.6c3.1,0,6.1,1.2,8.2,3.4
				c4.5,4.5,4.5,11.9,0,16.5c-2.2,2.2-5.1,3.4-8.2,3.4c-1.3,0-2.6-0.2-3.9-0.6v8.4H-59.1z M-60.3,83.2c-1.5-1.5-3.9-1.5-5.4,0
				c-1.5,1.5-1.5,3.9,0,5.4c1.5,1.5,3.9,1.5,5.4,0c0.7-0.7,1.1-1.7,1.1-2.7C-59.1,84.9-59.5,83.9-60.3,83.2L-60.3,83.2z"/>
			<path class="st3" d="M-9.2,77.7c4.5-4.5,11.9-4.5,16.5,0c2.2,2.2,3.4,5.1,3.4,8.2H2.9C2.9,83.8,1.2,82-1,82
				c-2.1,0-3.9,1.7-3.9,3.9v31c0,2.1,1.7,3.9,3.9,3.9c2.1,0,3.9-1.7,3.9-3.9h7.8c0,6.4-5.2,11.6-11.6,11.6
				c-6.4,0-11.6-5.2-11.6-11.6v-31C-12.6,82.8-11.4,79.8-9.2,77.7z"/>
			<path class="st3" d="M21.8,77.7c4.5-4.5,11.9-4.5,16.5,0c2.2,2.2,3.4,5.1,3.4,8.2h-7.8c0-2.1-1.7-3.9-3.9-3.9
				c-2.1,0-3.9,1.7-3.9,3.9v31c0,2.1,1.7,3.9,3.9,3.9c2.1,0,3.9-1.7,3.9-3.9h7.8c0,6.4-5.2,11.6-11.6,11.6
				c-6.4,0-11.6-5.2-11.6-11.6v-31C18.4,82.8,19.6,79.8,21.8,77.7z"/>
			<path class="st4" d="M-23.8,125.1c-4.5,4.5-11.9,4.5-16.5,0c-2.2-2.2-3.4-5.1-3.4-8.2h7.8c0,2.1,1.7,3.9,3.9,3.9
				c2.1,0,3.9-1.7,3.9-3.9v-8.4c-1.2,0.4-2.6,0.6-3.9,0.6c-6.4,0-11.6-5.2-11.6-11.6v-91h7.8v91c0,2.1,1.7,3.9,3.9,3.9
				c2.1,0,3.9-1.7,3.9-3.9v-91h7.8v110.4C-20.3,120-21.5,123-23.8,125.1z"/>
		</g>
	</g>
	<g id="Alc_1_">
		<path class="st5" d="M55.5-15.5C55.5-15.5,55.6-15.5,55.5-15.5l14,0c0,0,0,0,0,0v1.9c0,0,0,0,0,0c0,0,0,0,0,0h-12v2c0,0,0,0,0,0
			h-2c0,0,0,0,0,0V-15.5z"/>
		<path class="st5" d="M57.5-17.6v-2h6v-2h-8v-2h14.1v2h-4v4H57.5z"/>
		<path class="st5" d="M56.4-26.5c-1.2-1.2-1.2-3.1,0-4.3c1.2-1.2,3.1-1.2,4.3,0c1.2,1.2,1.2,3.1,0,4.3c-0.6,0.6-1.3,0.9-2.1,0.9
			C57.7-25.6,57-25.9,56.4-26.5z M57.8-29.3c-0.4,0.4-0.4,1,0,1.4c0.4,0.4,1,0.4,1.4,0c0.4-0.4,0.4-1,0-1.4
			c-0.2-0.2-0.4-0.3-0.7-0.3C58.3-29.6,58-29.5,57.8-29.3L57.8-29.3z M55.5-33.6l14.1,4v-2l-14.1-4L55.5-33.6z M64.5-34.5
			c-1.2-1.2-1.2-3.1,0-4.3c1.2-1.2,3.1-1.2,4.3,0c1.2,1.2,1.2,3.1,0,4.3c-0.6,0.6-1.3,0.9-2.1,0.9C65.8-33.6,65-34,64.5-34.5
			L64.5-34.5z M65.9-37.4c-0.4,0.4-0.4,1,0,1.4c0.4,0.4,1,0.4,1.4,0c0.4-0.4,0.4-1,0-1.4c-0.2-0.2-0.4-0.3-0.7-0.3
			C66.3-37.7,66.1-37.6,65.9-37.4L65.9-37.4z"/>
		<path class="st5" d="M59.6-51.7v2l3,1l-3,1v2l6-2v-2L59.6-51.7z"/>
		<path class="st5" d="M57.5-59.8v14.1h-2v-14.1H57.5z M60.4-54.6c-1.2-1.2-1.2-3.1,0-4.3c1.2-1.2,3.1-1.2,4.3,0
			c1.2,1.2,1.2,3.1,0,4.3c-0.6,0.6-1.3,0.9-2.1,0.9C61.8-53.7,61-54.1,60.4-54.6L60.4-54.6z M69.6-59.8v14.1h-2v-14.1H69.6z
			 M61.9-57.5c-0.4,0.4-0.4,1,0,1.4c0.4,0.4,1,0.4,1.4,0c0.4-0.4,0.4-1,0-1.4c-0.2-0.2-0.4-0.3-0.7-0.3C62.3-57.8,62-57.7,61.9-57.5
			L61.9-57.5z"/>
		<path class="st5" d="M69.6-61.8H55.5v-2h12.1v-2h2V-61.8z"/>
	</g>
	<g id="ml_1_">
		<path class="st4" d="M55.6,126.6h-2.2V120h2.2l7.6,4.4v-2.2h2.2v2.2h3.3v2.2h-6.1l-7-4L55.6,126.6z"/>
		<path class="st4" d="M58.8,116.9c-1.3-1.3-1.3-3.3,0-4.6c1.3-1.3,3.3-1.3,4.6,0c1.3,1.3,1.3,3.3,0,4.6c-0.6,0.6-1.4,1-2.3,1
			C60.2,117.9,59.4,117.5,58.8,116.9z M60.3,113.8c-0.4,0.4-0.4,1.1,0,1.5c0.4,0.4,1.1,0.4,1.5,0c0.4-0.4,0.4-1.1,0-1.5
			c-0.2-0.2-0.5-0.3-0.8-0.3C60.8,113.5,60.5,113.6,60.3,113.8L60.3,113.8z"/>
		<path class="st4" d="M58.8,108.2c-1.3-1.3-1.3-3.3,0-4.6s3.3-1.3,4.6,0c1.3,1.3,1.3,3.3,0,4.6c-0.6,0.6-1.4,1-2.3,1
			C60.2,109.1,59.4,108.8,58.8,108.2z M60.3,105.1c-0.4,0.4-0.4,1.1,0,1.5c0.4,0.4,1.1,0.4,1.5,0c0.4-0.4,0.4-1.1,0-1.5
			c-0.2-0.2-0.5-0.3-0.8-0.3C60.8,104.8,60.5,104.9,60.3,105.1z"/>
		<path class="st4" d="M60,92.5v2.2h-6.5v-2.2c0-1.2,0.4-2.3,1.3-3.1c0.1-0.1,0.1-0.1,0.2-0.2c-0.1-0.1-0.1-0.1-0.2-0.2
			c-0.8-0.8-1.3-1.9-1.3-3.1v-2.2H60V86h-4.4c0,1.2,1,2.2,2.2,2.2c0,0,0,0,0,0v2.2c-1.2,0-2.2,1-2.2,2.2c0,0,0,0,0,0L60,92.5z
			 M64.3,83.8v10.9h-2.2V83.8H64.3z M68.7,83.8v10.9h-2.2V83.8H68.7z"/>
		<path class="st4" d="M68.7,81.6H53.5v-2.2h13.1v-2.2h2.2V81.6z"/>
	</g>
	<line class="st6" x1="-92.1" y1="-202.8" x2="-92.1" y2="-166.8"/>
	<line class="st6" x1="-146.1" y1="-148.8" x2="-110.1" y2="-148.8"/>
	<line class="st6" x1="-146.1" y1="148.8" x2="-110.1" y2="148.8"/>
	<line class="st6" x1="-92.1" y1="202.8" x2="-92.1" y2="166.8"/>
	<line class="st6" x1="92.1" y1="-202.8" x2="92.1" y2="-166.8"/>
	<line class="st6" x1="146.1" y1="-148.8" x2="110.1" y2="-148.8"/>
	<line class="st6" x1="146.1" y1="148.8" x2="110.1" y2="148.8"/>
	<line class="st6" x1="92.1" y1="202.8" x2="92.1" y2="166.8"/>
</symbol>
<g id="Layer_6">
	
		<use xlink:href="#TURBORUSS_FRONT"  width="292.3" height="405.6" x="-146.1" y="-202.8" transform="matrix(1 0 0 1 92.126 148.8188)" style="overflow:visible;"/>
	<path class="st7" d="M138.4,24"/>
	<path class="st7" d="M102.4,24"/>
</g>
</svg>
